<svg xmlns="http://www.w3.org/2000/svg" xmlns:xlink="http://www.w3.org/1999/xlink" viewBox="0 0 142.42 142.42"><defs><style>.cls-1{fill:#eddcd2;}.cls-2{clip-path:url(#clip-path);}.cls-3{fill:#59371e;}.cls-4{fill:#ffe8dd;}.cls-5{fill:#938c87;}.cls-6{fill:#dabfa7;}.cls-7{fill:#f2d0ca;}.cls-8{fill:#bf5862;}.cls-9{fill:#c19a7c;}.cls-10{fill:#963947;}.cls-11{fill:#e2c5b5;}.cls-12{fill:#fbfbfb;}.cls-13{fill:#e5e5e6;}.cls-14{fill:none;stroke:#aa7f63;stroke-miterlimit:10;stroke-width:0.25px;}.cls-15{fill:#b58d71;}</style><clipPath id="clip-path"><circle class="cls-1" cx="71.21" cy="71.21" r="71.21"/></clipPath></defs><g id="レイヤー_2" data-name="レイヤー 2"><g id="レイヤー_1-2" data-name="レイヤー 1"><circle class="cls-1" cx="71.21" cy="71.21" r="71.21"/><g class="cls-2"><path class="cls-3" d="M47.61,45.1l1-1.81s4.81-1.42,6-3.64c1.89-3.67,4.13-5.56,1.72-11.52s-5.38-5.4-10.42-5S38.34,28,37.92,32c-.46,4.3-.59,6.39,3.94,8.8,3.23,1.71,1.65-.49,3.83.89s.5,1.82.5,1.82Z"/><path class="cls-4" d="M39.62,34.47a58.55,58.55,0,0,0,2.24,6.31c1.17,2.63,4.91,4,6.19,3.43s4.59-2.29,5-5a36.6,36.6,0,0,1,1.39-5.84c.42-1.38-4.81-6.07-7.9-6.07A5.86,5.86,0,0,0,43,28.91C41.13,30.48,39.68,32.85,39.62,34.47Z"/><path class="cls-3" d="M41.67,27.42s1.18,3.84,2.55,4.84c1.83,1.34,2.5,1.75,2.5,1.75a29.78,29.78,0,0,0,3.36,1.12c1.39.22,2.28.13,2.78.26s0,.08,1,.08h2.59s-1.11-5.29-3.09-8S41.67,27.42,41.67,27.42Z"/><path class="cls-3" d="M43,28s-.24,4.82-1.11,6.12a10.38,10.38,0,0,1-3.36,2.48L41.3,28Z"/><path class="cls-5" d="M35.11,72.07s-2-20.92-1.59-23.34C34.11,45,35.64,46,36,46.11c2.61,1.12,21.43.51,21.43.51s.32-.25,2.44-.3,2.62,4.38,2.47,6.61-1.49,19.26-1.49,19.26Z"/><path class="cls-4" d="M45,44s1.05,2.63-1.09,2.88a8.87,8.87,0,0,1-1.94.21c-2.26.12,1.1,2.88,1.1,2.88l5.18,1.91a10.37,10.37,0,0,0,3.17-1.75,7.83,7.83,0,0,0,1-3.2l-2.65-.35V42.27"/><polygon class="cls-6" points="23.08 65.63 70.06 65.63 66.82 79.67 26.32 79.67 23.08 65.63"/><rect class="cls-6" x="26.59" y="81.29" width="40.23" height="48.33"/><path class="cls-7" d="M70.23,131.58s4.47-38.92,8.19-39.36,25.55,0,26.54,1.3,7.69,38.93,7.69,38.93Z"/><path class="cls-3" d="M90.26,73.08s-7.61,0-8.73,6.45,1.12,13.15-.9,18.22,1.78-.79,2,2,3.05,1.18,5.51,1.18,6.55-.52,6.55-.52l5.9-3c1.35-4.84-2.6-1.15-1.7-6.69S100.23,78.77,97.32,76A12,12,0,0,0,90.26,73.08Z"/><path class="cls-8" d="M90.9,141.82s4.41-24,8.13-24.3,25.55,0,26.54.75,8.25,23.55,8.25,23.55Z"/><path class="cls-8" d="M23.62,138.49s4.47-41.21,8.19-41.67,25.55,0,26.54,1.37S66,139.41,66,139.41Z"/><path class="cls-9" d="M44.41,76.87S39,74.46,35.47,81.8c-2.21,4.55,1.14,10-.92,13.9s-.13,7.53.1,9.65,3.27-.78,5.79-.78,13-.51,13-.51S49,99.93,50.37,96.23s1.6-2.46,2.52-6.69S55,80.21,52,78.1,44.41,76.87,44.41,76.87Z"/><path class="cls-10" d="M49.3,141.74S55.05,117.2,58.77,117s25.55,0,26.55.74,8.55,24.13,8.55,24.13Z"/><path class="cls-11" d="M12.5,141.83s1.51-25.45,5.23-25.69,25.55,0,26.55.74,8.32,24.94,8.32,24.94Z"/><path class="cls-3" d="M30.76,98.14s-7.7,0-8.83,6.38,1.13,13-.91,18,3.16-2.45,3.39.28,1.29,1.06,3.78,1.06a24,24,0,0,0,5.05-.64s2,4.77,3.41,0,1.58-3.19,2.49-8.66,2-12.07-.91-14.8S30.76,98.14,30.76,98.14Z"/><polygon class="cls-12" points="44.51 46.41 40.42 46.93 48.24 60.84 54.38 47.04 49.73 46.53 48.22 51.83 44.51 46.41"/><polygon class="cls-13" points="44.52 45.78 48.22 51.83 42.26 50.6 44.52 45.78"/><polygon class="cls-13" points="49.87 46.15 48.22 51.83 53.01 50.19 49.87 46.15"/><path class="cls-3" d="M45.79,24.21A6.21,6.21,0,0,1,45.32,20c1-3.93,6.86-3.39,7.23-1.1s1.13,4.14-1.31,5.25A8.56,8.56,0,0,1,45.79,24.21Z"/><path class="cls-9" d="M62.76,103.22c-1,4.26,1,8.67-.83,12s-3.72,6.54-3.51,8.37,3.24,11.09,5.51,11.09,15.39-.13,15.39-.13-2-11.73-.79-14.93-.89-6.08-.07-9.73,1.47-5.8.17-8.77c-.66-1.51-1.85-4.28-8.37-4.38C64.22,96.66,63.32,100.92,62.76,103.22Z"/><path class="cls-14" d="M68.28,101.83s-.57,2.35-1,4.44a10.54,10.54,0,0,0,.92,6.75c1.09,2-2.15,6.94-2.15,10.2s.91,5.2,1.07,7.21S70,134.37,70,134.37"/><path class="cls-14" d="M72.12,102.59a43.08,43.08,0,0,0,.61,7.29c.69,4.22-1.68,6.75-1.53,10.81s-.62,6.52.84,8.9S74.57,133,74.8,134"/><path class="cls-14" d="M65.19,134.17s-4.42-7-4.12-10.95,4.07-7.59,3.92-10-1.69-8-1.15-9.82l.53-1.84"/><path class="cls-14" d="M76.34,103.9s-.08,4.44.07,8.28-2.3,5.91-1.84,10.12,2.07,10.36,3.3,12"/><rect class="cls-4" x="106.8" y="111.83" width="7.77" height="6.28"/><path class="cls-9" d="M110.07,93.34s7.66,0,8.78,5.43,1.89,5.47-.14,9.74c-2.6,5.48-6.12,4-6.34,6.33s.53-1.36-1.94-1.36-1.08,1.44-1.08,1.44-3.14,1.4-5.69-2c-1.8-2.4-2-.38-3-5s-.56-9.66,2.37-12A13.87,13.87,0,0,1,110.07,93.34Z"/><path class="cls-15" d="M107.35,98.48s5-1.8,7.2,1.15,4.46,10.44,2.88,16.49-4.47,9.36-2.74,14.11a7.77,7.77,0,0,1-1.8,8.06l-4,.79s3.67-1.8,2.81-5.25-4.75-3.6-4.54-9,1.44-8,1.16-12S101.37,98.7,107.35,98.48Z"/><path class="cls-4" d="M70.39,48.77a37.81,37.81,0,0,1,5-2.46c2.49-1,1.13-4.32-2.8-2s-4,2.77-4,2.77.14-2.25-.83-1.88-.51,2.56-.18,3.78S70.39,48.77,70.39,48.77Z"/><path class="cls-4" d="M68.12,47.78,62.64,62.51l5.14.06s.87-11.9,3.07-14.1"/><polyline class="cls-5" points="66.81 65.47 70.53 54.21 65.15 52.35 60.8 60.8 55.36 65.53"/></g></g></g></svg>