<?xml version="1.0" encoding="utf-8"?>
<!-- Generator: Adobe Illustrator 25.3.1, SVG Export Plug-In . SVG Version: 6.00 Build 0)  -->
<svg version="1.1" id="レイヤー_1" xmlns="http://www.w3.org/2000/svg" xmlns:xlink="http://www.w3.org/1999/xlink" x="0px"
	 y="0px" viewBox="0 0 142.4 142.4" style="enable-background:new 0 0 142.4 142.4;" xml:space="preserve">
<style type="text/css">
	.st0{fill:#ECD0CA;}
	.st1{fill:#FFFFFF;}
	.st2{fill:#E26287;}
</style>
<circle class="st0" cx="71.2" cy="71.2" r="71.2"/>
<path class="st1" d="M24.8,43c0,0,0,5.1-4.2,4.9c2.7,1.1,4.4,3.7,4.4,6.6c0,0,0.5-7.4,5.8-7C30.9,47.5,24.9,47.5,24.8,43z"/>
<path class="st1" d="M100.4,31.2c0,0,0.6,5.4-3.4,5.7c0,0,4,1,4.7,6.5c0,0-0.2-7.9,4.7-8.1C106.4,35.4,100.9,36,100.4,31.2z"/>
<path class="st1" d="M30,84.7c0,0,0.4,3.9-3.1,4c2.2,0.6,3.7,2.5,3.9,4.8c0,0,0-5.6,4.3-5.6C35.1,87.8,30.4,88.1,30,84.7z"/>
<path class="st2" d="M96.2,78.1c5.3-24,0.1-23.9,0.1-23.9l-5.3,0.9l2-4.8c-8.8-4.8-18-7.4-28-8.1l-1.7,5.2l-1.8-1.9
	c0,0-9.1,3.4-10.3,6.7c-1.2,3.3-6.7,21.4-6.7,21.4l2.2,1.9c-1.5,0.7-3,1.8-3.5,3.6c-0.9,3,1.7,15.7,1.7,15.7l3.4-1.7l-2.7,3.3
	c10.2,7.8,28,8.5,28,8.5l0.5-3.7l0.3,2.6c2.6,0.5,5.2-0.2,7.5-1.6c5.3-2.4,8.3-12.7,8.3-12.7l-1.8-2.3l3.7-0.2L96.2,78.1z M56.5,73
	c-4.7-3.9-1.3-6-1.3-6c3.8-2.1,8.3-1.6,11.5,0.8c1.8,1.2,2.8,3.8,2.4,6.1C68.4,75.6,60.9,76.9,56.5,73z M68.4,96.9
	C66.9,96.5,65,96,63.5,96c0,0-6.2-2.8-5.8-4.7c0.4-1.8,3.8-2.5,5.3-2s8.5,2.2,9.1,4.8C72.8,96.7,69.8,97.3,68.4,96.9z M86.1,80.8
	c-3,1.4-6.4,0.9-8.9-1.1c-3.6-2.7-2.4-4.9-2.4-4.9c0.1-1.5,0.8-1.1,2-2.5c2.3-1.4,4.9-1.3,7.5-0.5c2.2,0.8,3.6,2.7,3.5,5
	C87.7,78.6,86.9,80,86.1,80.8L86.1,80.8z"/>
<path class="st2" d="M58.1,25c0,0,0,6.3-5.2,6c3.4,1.5,5.6,4.5,5.6,8.2c0,0,0.7-9.3,7.1-8.6C65.5,30.6,58.1,30.6,58.1,25z"/>
<path class="st2" d="M120.8,78.5c0,0-0.7,6.7-5.6,6c3,1.9,4.8,5.6,3.7,8.9c0,0,1.9-9.7,7.8-8.6C127.1,85.6,120.1,84.8,120.8,78.5z"
	/>
<path class="st2" d="M44.6,112c0,0,0.4,4.8-3.7,4.8c2.6,0.7,4.8,3,4.8,6c0,0,0-7.1,5.2-7.1C50.9,115.7,45,116.1,44.6,112z"/>
<path class="st1" d="M99.1,105c0,0,0.5,5.4-3.4,5.7c0,0,4,1,4.7,6.6c0,0-0.2-7.9,4.7-8.1C105.1,109.2,99.6,109.8,99.1,105z"/>
</svg>
