<?xml version="1.0" encoding="utf-8"?>
<!-- Generator: Adobe Illustrator 25.3.1, SVG Export Plug-In . SVG Version: 6.00 Build 0)  -->
<svg version="1.1" id="レイヤー_1" xmlns="http://www.w3.org/2000/svg" xmlns:xlink="http://www.w3.org/1999/xlink" x="0px"
	 y="0px" viewBox="0 0 142.4 142.4" style="enable-background:new 0 0 142.4 142.4;" xml:space="preserve">
<style type="text/css">
	.st0{fill:#ECD0CA;}
	.st1{fill:#CE7C7C;}
	.st2{fill:#E26287;}
	.st3{fill:#FFFFFF;}
	.st4{fill:#DD9A97;}
	.st5{fill:#D83976;}
</style>
<circle class="st0" cx="71.2" cy="71.2" r="71.2"/>
<path class="st1" d="M45.8,50c-0.8-1.7-1.7-3.3-2.7-4.8c-0.7-0.7-1.8-3.3,0.6-4.1s10.5-2.6,12.3-2.3s1.9,0.8,1.5,4.1
	s-0.7,5.3-0.7,5.3S50.2,52,45.8,50z"/>
<path class="st2" d="M47.9,91.8c0,0-1.4-3.4-2.1-5.2S39,71.5,36.1,63.9l-2.5-8.5c1.1-1.7,4.4-7.9,16.8-10.3s19.3,2.1,20.2,2.5
	s1.7,6.9,1.4,13.6s-1,16.2-1.4,21.5l-1.1,6.2C69.5,88.8,56.6,93.6,47.9,91.8z"/>
<path class="st1" d="M48.8,38.7c0,0,1.8,0.2,2.5-0.7l-1.1-5.2c1.1-0.3,2.1-0.8,3-1.5l7-1.4L59.9,28l-6,1.1c0,0-1.2-2.7-6.5-1.6
	s-5.2,4.1-4.1,4.9c1.4,0.8,3.1,1.1,4.7,0.8L48.8,38.7z"/>
<path class="st3" d="M51.5,81.8l-1.4-3.5C49.6,77,45.5,68,43.5,62.9l-1.7-5.8c0.7-1.2,3-5.3,11.4-7s13,1.3,13.6,1.7s1.1,4.7,0.9,9.2
	s-0.5,11-0.8,14.5l-0.7,4.2C66.1,79.7,57.4,83.1,51.5,81.8z"/>
<path class="st2" d="M93.9,105.2l-6.6,16.9c-8.5,2.3-17.6-1.2-22.3-8.6l6.3-16.3C71.3,97.2,77.2,94.7,93.9,105.2z"/>
<path class="st4" d="M71.9,97.7c0,0,7.5,12.4,20.3,7.8l9.8-24.2c0,0-13.6,4.8-20.7-7.5L71.9,97.7z"/>
<ellipse transform="matrix(0.3605 -0.9328 0.9328 0.3605 -13.1748 134.9813)" class="st1" cx="91.9" cy="77.1" rx="4.9" ry="11.1"/>
<path class="st2" d="M84.1,77.3c0,0,5.7-17.7,7.8-20.6s14.4-6.7,16.4-4.1l-12,30.5C96.3,83.1,86.1,82,84.1,77.3z"/>
<path class="st5" d="M93.1,59.1c0,0,10.6-1.6,13.3-4.5s-0.5-2.7-2.6-2.5S88,56.1,93.1,59.1z"/>
</svg>
