<?xml version="1.0" encoding="utf-8"?>
<!-- Generator: Adobe Illustrator 25.3.1, SVG Export Plug-In . SVG Version: 6.00 Build 0)  -->
<svg version="1.1" id="レイヤー_1" xmlns="http://www.w3.org/2000/svg" xmlns:xlink="http://www.w3.org/1999/xlink" x="0px"
	 y="0px" viewBox="0 0 142.4 142.4" style="enable-background:new 0 0 142.4 142.4;" xml:space="preserve">
<style type="text/css">
	.st0{fill:#ECD0CA;}
	.st1{fill:#E26287;}
	.st2{fill:#EA83A5;}
	.st3{fill:#D83976;}
	.st4{fill:#FFFFFF;}
</style>
<circle class="st0" cx="71.2" cy="71.2" r="71.2"/>
<rect x="33.4" y="55.5" transform="matrix(0.9826 -0.1857 0.1857 0.9826 -12.2966 11.9671)" class="st1" width="48.7" height="32.2"/>
<path class="st2" d="M30.8,60.3l47.9-9l0,0c1.3,7-3.3,13.7-10.3,15l-22.5,4.2C38.9,71.9,32.2,67.4,30.8,60.3
	C30.9,60.4,30.9,60.3,30.8,60.3L30.8,60.3L30.8,60.3z"/>
<path class="st1" d="M87.3,65.4c0,0,8.6-2.1,8.9-1.7c0.1,0.9,0.1,1.7-0.1,2.6l0.6,1c0,0,1.7,19.8,1.6,22s1.9,13.2,2.1,13.9
	c0.1,0.6,0.2,1.2,0.2,1.7l0.4,1.7c0,0-4.5,0.6-6,0.6s-2.8,0.2-2.8,0.2l0.2-2.2c0,0-1.3-16.7-1.3-17.9s-0.8-11.2-1.1-13.2
	s-1-5.2-1-5.2l0.1-1.1L87.3,65.4z"/>
<path class="st3" d="M95.8,66.7l0.4-0.3c0.2-0.8,0.2-1.7,0.1-2.6c-0.3-0.5-8.9,1.7-8.9,1.7l1.6,2.5L95.8,66.7"/>
<path class="st1" d="M108.4,68.5c0,0,0.6,0.5,2.1,1.6c1,0.5,2,0.9,3,1.2l-0.7,0.5c0,0-12.5,15.5-14,17s-7.8,10.8-8.2,11.4
	c-0.3,0.5-0.7,0.9-1.1,1.4l-0.9,1.4c0,0-3.6-2.7-4.8-3.7l-2.2-1.8l1.7-1.5c0,0,10.5-13,11.4-13.9s7.2-8.6,8.4-10.1s2.8-4.5,2.8-4.5
	l0.6-1L108.4,68.5z"/>
<path class="st3" d="M89.1,101l-5.7-5l-1.7,1.5c0,0,1,0.8,2.2,1.8s4.8,3.7,4.8,3.7l0.9-1.5L89.1,101"/>
<circle class="st1" cx="107.4" cy="62.6" r="0.6"/>
<circle class="st1" cx="113.4" cy="59.4" r="0.5"/>
<circle class="st1" cx="111.9" cy="64.8" r="0.4"/>
<circle class="st1" cx="118.5" cy="63.4" r="0.5"/>
<circle class="st1" cx="115.6" cy="68.3" r="0.3"/>
<circle class="st1" cx="110.7" cy="67.8" r="0.4"/>
<circle class="st1" cx="126.9" cy="63.4" r="0.6"/>
<circle class="st1" cx="120.8" cy="58.4" r="0.3"/>
<circle class="st1" cx="110.4" cy="52.6" r="0.7"/>
<path class="st4" d="M36,41.6c0,0,0,5.1-4.2,4.9c2.7,1.1,4.4,3.7,4.4,6.6c0,0,0.5-7.4,5.8-7C42.1,46.1,36.1,46.1,36,41.6z"/>
<path class="st4" d="M87.7,43.6c0,0-0.6,5.4-4.5,4.9c0,0,3.7,1.8,3.2,7.4c0,0,1.5-7.8,6.3-6.9C92.7,49,87.2,48.4,87.7,43.6z"/>
<path class="st4" d="M31.5,91.2c0,0,0.4,3.9-3.1,4c2.2,0.6,3.7,2.5,3.9,4.8c0,0,0-5.6,4.3-5.6C36.6,94.3,31.9,94.6,31.5,91.2z"/>
<path class="st3" d="M99.9,104.8l-7.6,0.3l-0.2,2.2c0,0,1.3-0.1,2.8-0.2s6-0.6,6-0.6l-0.4-1.7L99.9,104.8"/>
</svg>
