<svg xmlns="http://www.w3.org/2000/svg" xmlns:xlink="http://www.w3.org/1999/xlink" viewBox="0 0 142.42 151.02"><defs><style>.cls-1{fill:#eddcd2;}.cls-2{clip-path:url(#clip-path);}.cls-3{fill:#c19a7c;}.cls-4{fill:#ffe8dd;}.cls-5{fill:#fff;}</style><clipPath id="clip-path"><circle class="cls-1" cx="71.21" cy="71.21" r="71.21"/></clipPath></defs><g id="レイヤー_2" data-name="レイヤー 2"><g id="レイヤー_1-2" data-name="レイヤー 1"><circle class="cls-1" cx="71.21" cy="71.21" r="71.21"/><g class="cls-2"><path class="cls-3" d="M66.79,113.62l18.69-11.78S71.61,83.4,78,80c16.61-8.88,30.25-20.92,20.87-49.68C95.33,19.53,83.47,13.57,69.08,14.85S48.47,28.6,44.22,40.19,48.35,77,65.87,80.07c14.47,2.56-19.36,28.83-13.15,33.12s7.2,0,7.2,0Z"/><path class="cls-4" d="M51,50.81s3,11.74,6.23,20.17S70.82,83.81,74.38,82s12.75-7.33,13.93-16.13a132.89,132.89,0,0,1,3.86-18.7c1.18-4.4-13.34-19.44-21.94-19.44-3.29,0-6.84,2.15-10,5.28C55.17,38,51.15,45.61,51,50.81Z"/><path class="cls-3" d="M53.38,32.93s6.14-3.62,10.34-.17A150.88,150.88,0,0,0,82,45.16s5.42,8,8.19,8-.26,1.38,1.33,1.81-1.18-.61,2-.61h8.31s-1.39-19-9.89-25.63C75.24,15.78,53.38,32.93,53.38,32.93Z"/><path class="cls-4" d="M56.09,66.78s-6.9-1.91-7.82-7.77,6.94-2.89,6.94-2.89"/><path class="cls-3" d="M58.61,30.43s-5.16,14.31-7.93,18.46a7.16,7.16,0,0,1-7.09,3.27l9.68-21.73Z"/><path class="cls-5" d="M96.46,148.27C86.52,151-.26,163.39,23.22,98.21c4.49-12.47,7.46-9.7,8.63-9.12,9.72,4.79,66,3.5,66,3.5s10-2.61,17.39-2.79,11.79,42,11.27,49.74-7.85-9.34-7.85-9.34Z"/><path class="cls-4" d="M63,80.24s3.68,9.19-3.8,10.07-1.91-.12-9.83.32,14.8,7.22,14.8,7.22l5.09,3.3s7.06-.24,9.7-3.32,18.85-5.24,18.85-5.24L79.69,89.25V74.38"/><path class="cls-4" d="M87.87,67.68s6.62-3,6.62-8.89S87.06,57,87.06,57"/><path class="cls-4" d="M48.61,78.89A53.07,53.07,0,0,1,34,62.34c-6.05-10.73-2.91-23.48-4.31-29.52s-7-14.52-7-14.52L36.12,4.72S40.18,17.24,39.81,25,34.58,40.7,37.46,48.69s8.95,22.45,11.18,24.36S48.61,78.89,48.61,78.89Z"/><path class="cls-4" d="M36.49,32s2,9.41,3.16,11.53,5,12.35,1.61,9.49a35.5,35.5,0,0,1-6.07-7.23"/><path class="cls-4" d="M94.13,81.06A53,53,0,0,0,111.5,67.41c7.87-9.49,7.07-22.59,9.53-28.28s9.5-13,9.5-13L119.7,10.33s-6.24,11.59-7.27,19.31,2.33,16.36-1.93,23.7-12.82,20.5-15.36,22S94.13,81.06,94.13,81.06Z"/><path class="cls-4" d="M114.46,37.07s-3.71,8.89-5.18,10.77S102.19,59.11,106,56.9a35.79,35.79,0,0,0,7.26-6"/><path class="cls-5" d="M44.54,58.64S54.91,48.14,58,43.57s6.22-9.82,6.22-9.82S81,49.3,86.42,52.33c6.9,3.86,13.84,7.46,14.23,6.92s5.56-29.12-4.08-37.34S68.4,9.22,57.82,16.32C47.66,23.14,38.06,35.94,44.54,58.64Z"/></g></g></g></svg>