<?xml version="1.0" encoding="utf-8"?>
<!-- Generator: Adobe Illustrator 25.3.1, SVG Export Plug-In . SVG Version: 6.00 Build 0)  -->
<svg version="1.1" id="レイヤー_1" xmlns="http://www.w3.org/2000/svg" xmlns:xlink="http://www.w3.org/1999/xlink" x="0px"
	 y="0px" viewBox="0 0 83.6 85.5" style="enable-background:new 0 0 83.6 85.5;" xml:space="preserve">
<style type="text/css">
	.st0{fill:#ECD0CA;}
	.st1{clip-path:url(#SVGID_2_);fill:#E8B1AC;}
	.st2{clip-path:url(#SVGID_2_);fill:#DD9A97;}
	.st3{clip-path:url(#SVGID_2_);fill:#CE7C7C;}
	.st4{clip-path:url(#SVGID_2_);fill:#EDC7B4;}
	.st5{clip-path:url(#SVGID_2_);fill:#FFFFFF;}
	.st6{clip-path:url(#SVGID_2_);fill:#6D3718;}
	.st7{clip-path:url(#SVGID_2_);fill:#E7B597;}
	.st8{clip-path:url(#SVGID_2_);fill:#E81C52;}
</style>
<circle class="st0" cx="41.8" cy="41.8" r="41.8"/>
<g>
	<defs>
		<circle id="SVGID_1_" cx="41.8" cy="41.8" r="41.8"/>
	</defs>
	<use xlink:href="#SVGID_1_"  style="overflow:visible;fill:#ECD0CA;"/>
	<clipPath id="SVGID_2_">
		<use xlink:href="#SVGID_1_"  style="overflow:visible;"/>
	</clipPath>
	<rect x="13.5" y="13.6" class="st1" width="28.6" height="70.7"/>
	<rect x="16.5" y="16.5" class="st2" width="4.1" height="3.9"/>
	<rect x="22.7" y="16.5" class="st2" width="4.1" height="3.9"/>
	<rect x="28.9" y="16.5" class="st2" width="4.2" height="3.9"/>
	<rect x="35" y="16.5" class="st2" width="4.2" height="3.9"/>
	<rect x="16.5" y="22.8" class="st2" width="4.1" height="3.9"/>
	<rect x="22.8" y="22.8" class="st2" width="4.1" height="3.9"/>
	<rect x="29" y="22.8" class="st2" width="4.1" height="3.9"/>
	<rect x="35.1" y="22.8" class="st2" width="4.2" height="3.9"/>
	<rect x="16.6" y="29.3" class="st2" width="4.1" height="3.9"/>
	<rect x="22.8" y="29.3" class="st2" width="4.1" height="3.9"/>
	<rect x="29" y="29.3" class="st2" width="4.2" height="3.9"/>
	<rect x="35.1" y="29.3" class="st2" width="4.2" height="3.9"/>
	<rect x="16.6" y="35.6" class="st2" width="4.1" height="3.8"/>
	<rect x="22.9" y="35.6" class="st2" width="4.1" height="3.8"/>
	<rect x="29.1" y="35.6" class="st2" width="4.1" height="3.8"/>
	<rect x="35.2" y="35.6" class="st2" width="4.2" height="3.8"/>
	<rect x="16.7" y="41.8" class="st2" width="4.1" height="3.8"/>
	<rect x="23" y="41.8" class="st2" width="4.1" height="3.8"/>
	<rect x="29.2" y="41.8" class="st2" width="4.1" height="3.8"/>
	<rect x="35.2" y="41.8" class="st2" width="4.2" height="3.8"/>
	<rect x="16.8" y="48" class="st2" width="4.1" height="3.8"/>
	<rect x="23.1" y="48" class="st2" width="4.1" height="3.8"/>
	<rect x="29.2" y="48" class="st2" width="4.2" height="3.8"/>
	<rect x="35.3" y="48" class="st2" width="4.2" height="3.8"/>
	<rect x="16.8" y="54.4" class="st2" width="4.1" height="3.8"/>
	<rect x="23" y="54.4" class="st2" width="4.1" height="3.8"/>
	<rect x="29.2" y="54.4" class="st2" width="4.2" height="3.8"/>
	<rect x="35.3" y="54.4" class="st2" width="4.2" height="3.8"/>
	<rect x="16.8" y="61" class="st2" width="4.1" height="3.9"/>
	<rect x="23" y="61" class="st2" width="4.1" height="3.9"/>
	<rect x="29.2" y="61" class="st2" width="4.2" height="3.9"/>
	<rect x="35.3" y="61" class="st2" width="4.2" height="3.9"/>
	<rect x="16.8" y="67.2" class="st2" width="4.1" height="3.8"/>
	<rect x="23.1" y="67.2" class="st2" width="4.1" height="3.8"/>
	<rect x="29.3" y="67.2" class="st2" width="4.1" height="3.8"/>
	<rect x="35.4" y="67.2" class="st2" width="4.2" height="3.8"/>
	<polyline class="st3" points="40.4,79.4 41.2,85.2 71,84.4 67.9,75.6 	"/>
	<path class="st4" d="M45.2,45.5l-1-4.1l0.5-7.1c-1-0.9-1.6-2.2-1.5-3.6l0.2-3.2c0,0,1.6-5.9,5.4-5.6c2.4,0.1,4.3,2.2,4.2,4.6v0.4
		L53,28.1c0,0,1-0.9,1.3-0.2s0.5,0.8-0.5,2c-0.6,0.7-1,1.5-1.3,2.4l-0.6,5.5c0,0,0.8,7.2,1.7,7.8C53.7,45.5,47.9,47.7,45.2,45.5z"/>
	<path class="st5" d="M44.7,43.2l5.2,3.8l4.1-4.4c0,0,9.2,22.6,8.1,25.5s0.8,8.3,0.8,8.3l-21.3,0.2L44.7,43.2z"/>
	<path class="st3" d="M61.4,66.8c-0.5,0.6,2.2,8.6,2.2,8.6c1.8-1.5,8.1-5.6,8.9-7.8c0.9-3.2,0.9,0.1,0.1-1.9
		c-0.2-0.8,1.6-2.5,0.7-2.3c-0.2,0,0-1.4-0.2-1.2c0,0-0.2-1-1.1-1.1S70.6,47.7,69.1,46s-1.7-5.6-2.7-5.8s-6.2,0-7.9-0.2
		c-1.8-0.3-3.6-0.8-5.4-1.5c0,0-1.3-0.4-1.3,0.3c0.3,2.5,1,4.9,2,7.2c1.1,1.6-3.4,12.4-2.9,13.9c1,2.6,2.5,5.4,3.8,7.9
		c0.7,2.8-1.2,5.2-0.9,8.1c-0.1,1.4-1.2,6.1-1.2,6.1c1.9-0.9,14.5-5.4,16.1-6.6c0.8-1-1,0.5-1,0.5l-5.3-10.1"/>
	<path class="st3" d="M52.6,82c0,0,1.7-8.6,2.2-14.2s-5-15.6-7.3-19.5c-1.4-2.7-2.6-5.5-3.6-8.4l-0.3-1.4c0,0-3.7,1.9-3.8,2.7
		c-0.2,0.6-0.5,1.2-1,1.7c-0.7,0.3-1.5,0.4-2.2,0.5c-1.9,0.3-3.1-1.4-3.5,0.4s-2.3,6-2.6,9.9s-0.8,9.9-1.2,10s-1,0-0.5,1
		s0.8,1.5,0.1,2.6s-1.2,1.5-0.8,2.2c0.2,0.4,0.6,0.8,1.1,0.9c0,0,3.9,3.5,6.6,1.5c2.3-1.6,2.9-13.4,2.9-13c0.1,1,2,12.8,1.9,13.4
		s-4.6,6.1-4.6,6.1S52,82.1,52.6,82z"/>
	<path class="st4" d="M62.8,66.9c0,0-6.1,10.4-6.8,11.3c-1.4,1.9-2.6,4.1-3.6,6.3c-0.2-1.6,7.7-3.5,7.8-5.1c0.2-0.7,7.7-8.2,7.4-9.1
		S65.4,65.7,62.8,66.9z"/>
	<path class="st4" d="M31.9,71c0,0,1.9-5.7,4.1-5.5s2.6,2.2,4.7,4.1s10.2,9.3,11.6,10.7s-1.5,6.2-2.8,5s-5.7-5.7-8-7.5
		s-5.2-4-6.5-4.8S31.9,71,31.9,71z"/>
	<path class="st6" d="M48.8,24.3c0.6-0.4,1.3-0.5,2-0.5c1,0.1,2,1.4,2.2,3.5c0.2,2.7-1.8,8-1.2,11.6c0.9,5.4,7.9,7.8,7.7,12.1
		s-1.2,4.6-1.2,4.6s5.7-1.3,5.8-3.7s-1.9-1.6-1.2-3.9c0.9-3.1-0.6-6.3-1.5-9.9s-3.3-16-7.5-17.3s-9.4-3.3-12,1.4S40.6,37,39.7,41.3
		s-4,1.7-4.2,5.2s3.3,7.6,3.9,9.2s-0.8-0.4,1.1-3.7c2.2-3.8,5.4-15.9,5.1-17.4c-0.8-2.5-1.3-5.1-1.5-7.8
		C44.3,24.5,47.4,21.9,48.8,24.3z"/>
	<path class="st7" d="M53.8,27.7c0,0,1.4-1,1.2,0.6c-0.2,1-0.9,1.9-1.7,2.4"/>
	<path class="st8" d="M46.6,31.6c0,0,1.5,1.4,2.8,0.1l0.3-0.3c0,0-1-0.9-1.2-0.8c-0.2,0.1-0.3,0.2-0.4,0.3l-0.5-0.2L46.6,31.6z"/>
	<rect x="16.9" y="73.3" class="st2" width="4.1" height="3.8"/>
	<rect x="23.2" y="73.3" class="st2" width="4.1" height="3.8"/>
	<rect x="17" y="79.6" class="st2" width="4.1" height="3.8"/>
	<rect x="23.2" y="79.6" class="st2" width="4.1" height="3.8"/>
	<rect x="29.7" y="72.9" class="st2" width="4.2" height="3.8"/>
	<rect x="30" y="79.6" class="st2" width="4.2" height="3.8"/>
</g>
</svg>
