<svg xmlns="http://www.w3.org/2000/svg" viewBox="0 0 466.96 85.94"><defs><style>.cls-1{fill:#fff5f0;}.cls-2{fill:#e81c52;}.cls-3{fill:#960016;}.cls-4{fill:#f9ece4;}</style></defs><g id="レイヤー_2" data-name="レイヤー 2"><g id="レイヤー_1-2" data-name="レイヤー 1"><rect class="cls-1" x="0.08" y="0.11" width="466.81" height="85.31"/><path class="cls-2" d="M325.7,6.06s-33.4,34.78-71.32,0"/><path class="cls-3" d="M303.3,14.18a33.59,33.59,0,0,1-34.76-3.06S288.34,20.29,303.3,14.18Z"/><path class="cls-2" d="M136.06,6.41s34.34,33.86,72.26-.94"/><path class="cls-3" d="M158.47,14.52a33.56,33.56,0,0,0,34.76-3.06S173.43,20.63,158.47,14.52Z"/><rect class="cls-4" x="90.26" y="35.94" width="4.97" height="42.27"/><path class="cls-2" d="M161.1.11s-17,37.61-36,54.4c-11.28,10-20.72,7.79-20.72,7.79a105.17,105.17,0,0,1,7.67,10.51c3.61,5.72,14.5,13.13,14.5,13.13H63.53s12.55-8.89,14.89-14.36,8.35-10,8.35-10-11.38-3.85-14.86-8c-6.65-7.95-8.43-9.71-13-21.59C53.66,18.53,46.22.29,46.22.29Z"/><path class="cls-3" d="M103.42,56.81s12.24-2.34,21.68-17.19A93.53,93.53,0,0,0,137.7,7.89,147.35,147.35,0,0,1,123.28,38C118.11,46.46,104.72,59,103.42,56.81Z"/><path class="cls-3" d="M98.64,54.79s9.53-4.38,16.35-26.37c3.65-11.75,2.61-12.78,2.61-12.78S111,40.56,98.64,54.79Z"/><path class="cls-3" d="M100.65,66.07A71.83,71.83,0,0,1,109,80.36S107.42,71.29,100.65,66.07Z"/><path class="cls-3" d="M95.61,65.62S98.36,76.51,98.71,81l.34,4.54s.46-11.11-.92-15S95.61,65.62,95.61,65.62Z"/><path class="cls-3" d="M91.83,64s.45,13.38-2.64,18.6C89.19,82.63,91.94,67.21,91.83,64Z"/><path class="cls-3" d="M103.84,60s.57,0,.58,2.33v2.33a80.31,80.31,0,0,1-10.7-.78c-4.91-.77-5.87.38-8.13-.2A1.92,1.92,0,0,1,84.14,61a5.19,5.19,0,0,1,5-2.79C93,58.22,103.84,60,103.84,60Z"/><path class="cls-3" d="M90.07,55s1.41-19.53,1.19-31.12-.54-13.3-.54-13.3Z"/><path class="cls-3" d="M85.84,56.29s-6-12-9.23-19.32-5.1-20.81-5.1-20.81S78.78,37.83,80,41.48,85.84,56.29,85.84,56.29Z"/><path class="cls-3" d="M85.39,66.8a29,29,0,0,0-6.46,15.33S79,69.57,85.39,66.8Z"/><rect class="cls-4" x="16.22" y="35.94" width="4.97" height="42.27"/><path class="cls-2" d="M87.06.11s-17,37.61-36,54.4c-11.28,10-20.72,7.79-20.72,7.79a105.17,105.17,0,0,1,7.67,10.51c3.61,5.72,7.22,13.13,7.22,13.13L.06,85.76A104.3,104.3,0,0,1,4.39,71.58c2.34-5.48,8.35-10,8.35-10S3,59.77,0,54.27L.09,32.52.06.11Z"/><path class="cls-3" d="M29.38,56.81s12.24-2.34,21.68-17.19A93.28,93.28,0,0,0,63.66,7.89,147.35,147.35,0,0,1,49.24,38C44.07,46.46,30.69,59,29.38,56.81Z"/><path class="cls-3" d="M24.6,54.79S34.13,50.41,41,28.42c3.64-11.75,2.61-12.78,2.61-12.78S36.91,40.56,24.6,54.79Z"/><path class="cls-3" d="M26.62,66.07A72.05,72.05,0,0,1,35,80.36S33.38,71.29,26.62,66.07Z"/><path class="cls-3" d="M21.57,65.62S24.32,76.51,24.67,81L25,85.58s.46-11.11-.92-15S21.57,65.62,21.57,65.62Z"/><path class="cls-3" d="M17.79,64s.46,13.38-2.64,18.6C15.15,82.63,17.9,67.21,17.79,64Z"/><path class="cls-3" d="M29.81,60s.56,0,.57,2.33l0,2.33a80.22,80.22,0,0,1-10.7-.78c-4.91-.77-5.88.38-8.14-.2A1.93,1.93,0,0,1,10.1,61a5.19,5.19,0,0,1,5-2.79C18.91,58.22,29.81,60,29.81,60Z"/><path class="cls-3" d="M18.66,56.15S20.07,36.62,19.85,25s-.54-13.3-.54-13.3Z"/><path class="cls-3" d="M13.35,58.85s-5.24-10.56-8.11-17S.76,23.57.76,23.57,7.15,42.63,8.2,45.83,13.35,58.85,13.35,58.85Z"/><path class="cls-3" d="M11.35,66.8A29.13,29.13,0,0,0,4.89,82.13S4.91,69.57,11.35,66.8Z"/><rect class="cls-4" x="371.73" y="35.69" width="4.97" height="42.1" transform="translate(748.43 113.49) rotate(-180)"/><path class="cls-2" d="M305.86,0s17,37.46,36,54.19c11.28,9.94,20.72,7.75,20.72,7.75a106,106,0,0,0-7.67,10.47c-3.61,5.7-14.5,13.07-14.5,13.07h63.06s-12.56-8.85-14.9-14.3-8.35-10-8.35-10,11.39-3.84,14.87-8c6.64-7.92,8.42-9.67,13-21.5C413.29,18.35,420.74.19,420.74.19Z"/><path class="cls-3" d="M363.53,56.47s-12.23-2.32-21.68-17.12a92.72,92.72,0,0,1-12.59-31.6,146.24,146.24,0,0,0,14.41,30C348.85,46.17,362.23,58.61,363.53,56.47Z"/><path class="cls-3" d="M368.32,54.47S358.79,50.1,352,28.2c-3.64-11.7-2.61-12.73-2.61-12.73S356,40.29,368.32,54.47Z"/><path class="cls-3" d="M366.3,65.7a71.64,71.64,0,0,0-8.37,14.23S359.54,70.9,366.3,65.7Z"/><path class="cls-3" d="M371.35,65.25s-2.75,10.84-3.1,15.36l-.34,4.52s-.46-11.07.91-14.91S371.35,65.25,371.35,65.25Z"/><path class="cls-3" d="M375.13,63.67s-.46,13.33,2.64,18.52C377.77,82.19,375,66.83,375.13,63.67Z"/><path class="cls-3" d="M363.11,59.62s-.56,0-.57,2.32l0,2.32a81.34,81.34,0,0,0,10.7-.77c4.91-.77,5.88.38,8.14-.2a1.92,1.92,0,0,0,1.46-2.63,5.19,5.19,0,0,0-5-2.78C374,57.88,363.11,59.62,363.11,59.62Z"/><path class="cls-3" d="M376.89,54.67s-1.41-19.45-1.19-31,.54-13.25.54-13.25Z"/><path class="cls-3" d="M381.12,56s6-12,9.22-19.23S395.44,16,395.44,16,388.17,37.57,387,41.21,381.12,56,381.12,56Z"/><path class="cls-3" d="M381.57,66.43A29,29,0,0,1,388,81.7S388,69.19,381.57,66.43Z"/><rect class="cls-4" x="445.76" y="35.69" width="4.97" height="42.1" transform="translate(896.5 113.49) rotate(-180)"/><path class="cls-2" d="M379.9,0s17,37.46,36,54.19c11.28,9.94,20.72,7.75,20.72,7.75a106,106,0,0,0-7.67,10.47c-3.61,5.7-7.21,13.08-7.21,13.08l45.2-.18a103,103,0,0,0-4.32-14.12c-2.34-5.46-8.35-10-8.35-10S463.94,59.42,467,54l-.09-21.67,0-32.28Z"/><path class="cls-3" d="M437.57,56.47s-12.24-2.32-21.68-17.12A92.72,92.72,0,0,1,403.3,7.75a146.24,146.24,0,0,0,14.41,30C422.89,46.17,436.27,58.61,437.57,56.47Z"/><path class="cls-3" d="M442.36,54.47S432.82,50.1,426,28.2c-3.64-11.7-2.61-12.73-2.61-12.73S430,40.29,442.36,54.47Z"/><path class="cls-3" d="M440.34,65.7A71.11,71.11,0,0,0,432,79.93S433.57,70.9,440.34,65.7Z"/><path class="cls-3" d="M445.38,65.25s-2.75,10.84-3.09,15.36l-.35,4.52s-.45-11.07.92-14.91S445.38,65.25,445.38,65.25Z"/><path class="cls-3" d="M449.17,63.67s-.46,13.33,2.64,18.52C451.81,82.19,449.05,66.83,449.17,63.67Z"/><path class="cls-3" d="M437.15,59.62s-.56,0-.58,2.32v2.32a81.34,81.34,0,0,0,10.7-.77c4.91-.77,5.87.38,8.13-.2a1.92,1.92,0,0,0,1.47-2.63,5.21,5.21,0,0,0-5-2.78C448.05,57.88,437.15,59.62,437.15,59.62Z"/><path class="cls-3" d="M448.3,55.82s-1.41-19.45-1.2-31,.55-13.25.55-13.25Z"/><path class="cls-3" d="M453.6,58.51S458.85,48,461.71,41.6s4.49-18.23,4.49-18.23-6.4,19-7.45,22.17S453.6,58.51,453.6,58.51Z"/><path class="cls-3" d="M455.61,66.43a28.93,28.93,0,0,1,6.45,15.27S462,69.19,455.61,66.43Z"/><path class="cls-2" d="M132.11.11s42.64,23.45,91,0"/><path class="cls-2" d="M238.54.06s42.64,23.45,91.06,0"/><path class="cls-2" d="M209.05.07s21.17,23.45,45.2,0"/><path class="cls-3" d="M160.71,5.58S182.28,12,205.09,3.52C205.09,3.52,179.81,9.7,160.71,5.58Z"/><path class="cls-3" d="M258.42,3.57s20.77,8.71,44.35,2.66C302.77,6.23,277,9.69,258.42,3.57Z"/><path class="cls-3" d="M219.26,5a24.46,24.46,0,0,0,24.53,0S229.39,10,219.26,5Z"/></g></g></svg>