<?xml version="1.0" encoding="utf-8"?>
<!-- Generator: Adobe Illustrator 25.3.1, SVG Export Plug-In . SVG Version: 6.00 Build 0)  -->
<svg version="1.1" id="レイヤー_1" xmlns="http://www.w3.org/2000/svg" xmlns:xlink="http://www.w3.org/1999/xlink" x="0px"
	 y="0px" viewBox="0 0 83.6 83.6" style="enable-background:new 0 0 83.6 83.6;" xml:space="preserve">
<style type="text/css">
	.st0{fill:#EDD0CA;}
	.st1{fill:#6D3718;}
	.st2{fill:#F9E2D4;}
	.st3{fill:#CE7C7C;}
	.st4{fill:#DD9A97;}
	.st5{fill:#E81C52;}
</style>
<circle class="st0" cx="41.8" cy="41.8" r="41.8"/>
<path class="st1" d="M44.7,64.3c-0.3,1-0.5,2-0.6,3c0,1.2-0.1,1.6-0.1,2.1s-0.6,1.8,0.2,2.5s0.9,1,1.7,0.9s1.7-0.2,1.5-2.3
	s-0.7-2.4-0.7-4.2V64"/>
<path class="st1" d="M33.9,63.5c0,0,0.5,3.9-0.4,5.6s-1.3,2.2-1.3,3s0.2,1.3,1,1.1c1.3-0.1,2.4-0.8,2.9-2c0.5-0.9,0.8-1.9,0.8-2.9
	c0-0.7,0-4.8,0-4.8"/>
<path class="st2" d="M33.2,29c0.4-1.7,0.9-3.3,1.6-4.9c0.7-1.2,1.4-2.3,2.8-2.3s1.8,0.6,3.2,0.7s1,0.2,1.2-0.5s0.4-0.8,0.1-1.3
	s-1-0.9-1-1.8s-0.1-4.2,1.8-4.4s3.1,0.8,3.3,2.9c0.1,1.3-0.2,2.7-1,3.8c-0.5,1.1-0.7,2-0.2,2c1.3,0.2,2.5,0.6,3.7,1.2
	c1,0.6,1.7,1.2,1.8,3.2s0,5.2,0.1,5.7s1.7,4.2,1.8,5.4s0.2,3.7,0.2,3.7c0.3,1,0.4,2,0.4,3c-0.1,1.4-1,2.8-1.6,2.8s-0.5-0.4-0.4-1.4
	s0.1-1,0.1-2.4v-1.9c-0.2-1.7-0.7-3.3-1.6-4.9c-0.6-1.3-1-2.7-1.3-4c-0.4-1.1-0.6-2.3-0.6-3.5c0-1.2-0.4,2.4-0.4,2.9
	s0.2,2.2,0.2,2.2l-9.2,0.3c0.9-1.8,1-3.9,0.2-5.8c-0.4-0.9-0.6-2-0.6-3c0-0.7-1,1-1.7,2.9c-0.5,1.5-0.7,2.1-0.7,2.1
	c0.2,0.6,0.5,1.1,1,1.5c0.4,0.2,0.7,0.6,0.9,1c0,0,1.9-0.6,2.1-0.1s-0.8,1.8-2,2s-1.8,0.5-2.5-0.4c-0.7-0.8-1.3-1.6-1.8-2.5
	c-0.8-1.5-1.1-1.6-1.1-2.6S33.2,29,33.2,29z"/>
<path class="st3" d="M36.2,22.5c0.6,0.2,1.2,0.3,1.8,0.4c1.8,0.4,1.7,1.1,3.4,1.6c1.5,0.5,3.1,0.7,4.7,0.7c1-0.2,2.6,0,3.5-0.4
	c0.8,0.8,1.2,1.9,1.3,3c0,1.1,0.1,2.2,0.2,3.3l0.7,0.4c0,0-0.2,0.2-1.3,0.2s-0.3,0.2-1.5,0.2s-1.4-1.3-1.4-1.3s0.1,1.9,0.1,2.2
	S46.7,33,46.7,33l-8,0.2c0,0-2.2-2.7-2.1-5l-0.7,2.1c-0.5-0.4-1.1-0.6-1.7-0.7c-0.8,0-1.5,0.9-2.6,0.2s0.9-0.5,1.1-1.7s0.6-1,1-1.9
	S35.5,21.6,36.2,22.5z"/>
<path class="st4" d="M47.2,33l0.1,1.6c0,0,0.4-0.3,1,1.1c1.5,3.6,2.1,7.5,1.7,11.3c-0.4,6.2-1.8,11-1,15.2l0.8,4.2
	c0,0-2.7,0.3-4.7,0.3H38c-3.1,0-2.4,1.2-5.5,0.9s-3.6-1.2-3.6-1.2s2.5-3.7,2.7-7s3.2-9.9,3.7-13.8s3.1-9.3,3.2-10.3
	c0-0.6,0.1-1.2,0.3-1.8L47.2,33z"/>
<path class="st1" d="M47.1,24.4c1.3-0.6,2-0.2,1.6-1.7s-0.3,0.2-0.5-2.3s-0.1-4.7-1.8-5.5s-2.9-1.6-4.3-0.3c-1.3,1.3-2,3.1-1.9,5
	c0.1,1-0.6,2-1.5,2.4l3,1c0,0,0.9-1.3,0.6-2s-1.3-1.8-0.3-3.6s0.7-1.3,0.7-1.3l0.4,0.7c0.3,0.5,0.8,0.9,1.3,1.2
	c1.4-0.3,1.1,0.2,1.1,1.6s-0.1,0.9-0.4,1.9s-0.8,1.6,1,2.4c1,0.4,0.2-1.3,0,0.4"/>
<path class="st5" d="M43,20.3c0.4,0.3,0.9,0.3,1.3,0l0.2-0.1c0,0-0.5-0.4-0.5-0.4c-0.1,0-0.1,0.1-0.2,0.1l-0.2-0.1L43,20.3z"/>
<path class="st4" d="M59.2,11.7c0,0-1.3,3.2-3,2.9c1.8,0.9,2.9,2.9,2.8,4.9c0,0,0-4.6,2.4-4.8c-1.4-0.1-2.4-1.4-2.3-2.8
	C59.1,11.8,59.2,11.8,59.2,11.7z"/>
<path class="st4" d="M19,36.2c0,0-1.3,3.2-3,2.9c1.8,0.9,2.9,2.8,2.9,4.9c0,0,0-4.6,2.4-4.8c-1.4-0.1-2.5-1.4-2.3-2.8
	C19,36.3,19,36.3,19,36.2z"/>
<path class="st4" d="M60.7,41.3c0,0-1.3,3.2-3,2.9c1.8,1,2.9,2.9,2.8,4.9c0,0,0-4.6,2.4-4.8c-1.4-0.2-2.4-1.5-2.2-2.9
	C60.7,41.4,60.7,41.4,60.7,41.3z"/>
<path class="st4" d="M26.5,13.7c0,0-1.5,3.7-3.4,3.3c2.1,1.1,3.3,3.3,3.2,5.7c0,0,0-5.3,2.8-5.6C29.1,17.1,26.3,16.9,26.5,13.7z"/>
<polygon class="st1" points="42.2,16.3 42.8,18.1 45.6,18.3 43.7,15.2 42.2,15.6 "/>
</svg>
