<?xml version="1.0" encoding="utf-8"?>
<!-- Generator: Adobe Illustrator 25.3.1, SVG Export Plug-In . SVG Version: 6.00 Build 0)  -->
<svg version="1.1" id="レイヤー_1" xmlns="http://www.w3.org/2000/svg" xmlns:xlink="http://www.w3.org/1999/xlink" x="0px"
	 y="0px" viewBox="0 0 83.6 83.6" style="enable-background:new 0 0 83.6 83.6;" xml:space="preserve">
<style type="text/css">
	.st0{fill:#F5E7E3;}
	.st1{clip-path:url(#SVGID_2_);fill:#E8B1AC;}
	.st2{clip-path:url(#SVGID_2_);fill:#CE7C7C;}
	.st3{clip-path:url(#SVGID_2_);fill:#DAB398;}
	.st4{clip-path:url(#SVGID_2_);fill:#7C2F30;}
	.st5{clip-path:url(#SVGID_2_);fill:#EACCB7;}
	.st6{clip-path:url(#SVGID_2_);fill:#E81C52;}
	.st7{clip-path:url(#SVGID_2_);fill:#6D3718;}
	.st8{clip-path:url(#SVGID_2_);fill:#DDBBAF;}
</style>
<g id="レイヤー_2_1_">
	<g id="レイヤー_1-2">
		<circle class="st0" cx="41.8" cy="41.8" r="41.8"/>
		<g>
			<defs>
				<circle id="SVGID_1_" cx="41.8" cy="41.8" r="41.8"/>
			</defs>
			<clipPath id="SVGID_2_">
				<use xlink:href="#SVGID_1_"  style="overflow:visible;"/>
			</clipPath>
			<path class="st1" d="M23.6,11.9c0,0-2.2,45.7-6.9,46.8h52.9c0,0-5.8-39.6-5.5-47.1L23.6,11.9z"/>
			<polygon class="st2" points="43.9,73.6 5.9,73.6 16.5,58.6 69.4,58.6 81.6,72.2 			"/>
			<path class="st3" d="M44.5,55.3c0,0,1.4,11.4,0.6,15.4c-0.5,2.4-0.8,4.7-1,7.1c0,0,2.8,1.1,2.7-2c0.1-3,0.4-6,0.8-9
				c0.1-1,0.8-12.1,0.8-12.1"/>
			<path class="st3" d="M40.5,51.7c0,0-2.6,11.5-2.8,13.9c-0.2,2.4-1.1,8.7-1.5,10.6s-0.8,2.1-2.8,1.4s0.9-5.3,1.1-8.8
				s2-8.2,1.8-10.6s1.5-8.5,1.5-8.5"/>
			<path class="st4" d="M44.1,79.6c0,0,0.2-3.9,0.1-4.7s0.3,2.9,1.1,2.4c0.7-0.6,1.2-1.4,1.6-2.2c0,0,0.4,3.2-0.4,4.1
				s-1.5,1.3-1.9,1.1S44.1,79.6,44.1,79.6z"/>
			<path class="st4" d="M33.3,75.6l1.5,2.8l1-2.8c0,0,1,4,0,4.4c-0.9,0.5-2.1,0.2-2.6-0.7c-0.3-1.2-0.6-2.4-0.7-3.7l0.4-1.2
				L33.3,75.6z"/>
			<path class="st5" d="M51.9,35.8c-0.1-2.8,0.1-5.6,0.6-8.4c0.5-2.1-0.8-2.9-1.9-3.5c-1.3-0.6-2.6-1.1-4-1.3c-0.5,0-0.3-1,0.3-2.1
				c0.8-1.2,1.2-2.7,1-4.1c-0.1-2.3-1.5-3.4-3.6-3.2s-2,3.9-2,4.8s0.8,1.3,1.1,1.9s0,0.8-0.1,1.4s0.2,0.6-1.3,0.5s-2-0.8-3.5-0.8
				s-2.2,1.2-3,2.5s0.2,0.2,0.2,0.2c-0.2,1.2-0.4,2.4-0.4,3.7c-0.1,1.7,0,3.3,0.2,5c0.3,1.4,0.4,2.4,1.2,3.2c0.4,0.6,0.7,1.2,1,1.8
				c0,0,1,0.7,0.8,0.1s0.8,0.2,0.8,0.2c-0.2-0.4,0.4-0.7,0-1.5c-0.5-0.8-0.8-1.7-1.1-2.6c-0.3-1.3-0.5-2.7-0.5-4.1
				c0.5-3,1.1-3.8,1.1-3c-0.1,1.1,0.1,2.2,0.6,3.2c0.8,2,2.3,3.9,1.4,5.9l6.8-0.1c0,0,1.4-1.6,1.4-2.2s0.4-4.5,0.4-3.2
				c0,1.8,0.2,3.6,0.6,5.4L48.1,43c0,5.3,1.5,2.8,1.5,2.4c0.1-2.2,0.5-4.3,1.2-6.4C51.9,36.6,51.9,35.8,51.9,35.8z"/>
			<path class="st6" d="M37.3,21.3c1-0.1,2-0.1,2.9,0.2c1.9,0.4,1.1,2.1,2.9,2.7c1.8,0.6,3.7,0.9,5.6,0.9c1.1-0.2,1.2-0.6,2.2-1.1
				c0.8,0.9,1.6-0.3,2.3,3.3c0,1.2-0.2-1.2,0,0l-0.5,0.2c0,0,0.8,0.4-0.3,0.4s-0.2,0.5-1.4,0.5s-1.2,1.8-1.2,1.8s-0.6,4.1-0.6,4.4
				S47.7,36,47.7,36l-6.9-0.1c0,0-2.9-5.6-2.8-8l0.5-1.3c-0.4-1-1.1-0.2-1.4-1.1c-0.4-0.5,0.3,0.1-0.8-0.5s-2.6,4.2-2.4,2.9
				s0.7-1,1.1-2.1S36.5,20.4,37.3,21.3z"/>
			<path class="st7" d="M44.5,15.6c0.4,0.5,0.8,1,1.4,1.3c1.3,0.8,1.2,0.2,1.2,1.7s-0.1,1-0.4,2s-1.5,1.3-0.3,3.1s2.9,1.7,2.6,3.5
				s-3.2,0.8-3.2,0.8s3.9,2.1,4.4,1.3s2.2-1.7,1.9-3.5s-0.8-1.3-1.2-2.9c-0.3-0.7-0.5-1.5-0.7-2.3c0-0.3-0.1-0.7-0.1-1.2
				c-0.2-2.7-0.1-5.1-1.9-5.9S45,12,43.6,13.3s-2.4,2.5-3.8,3.7c-1.6,0.9-3.2,1.6-4.9,2.2c-0.8,0.3-10.6,2.4-10.2,4.2
				c0,0.2-3.1,4,0.9,4c5.2,0,5,2.3,6.4,1.9c0.7-0.2,2.8,2.1,3.3,1.3c0.3-0.5,0.1-5.5,0.4-6.2c0.2-0.5-0.3,0.1-0.3,0.1
				c0.4-0.9,0.5-1.4,0.8-2c0.2-0.6,0.8-1,1.4-1c0.7,0.1,1.2,0.5,1.9,0.6c1.2,0.2,2.4,0.2,3.6,0.1c0,0,0.9-1.4,0.7-2.2
				s-1.4-2-0.4-3.8s0.7-1.4,0.7-1.4L44.5,15.6z"/>
			<path class="st6" d="M39.2,36.1c-2.7,2.9-5,6.2-6.7,9.8c-1.7,3.8-3.7,7.5-5.9,11l-2.2,3.7l8.8,0.2c7.8,0.2,6.1,4.9,12.7,3.5
				c3.1-0.7,8.8-2.5,11.5-2.7c0,0-2-1-3.2-6.4s-3.8-10.9-4-13.8c-0.3-2-1.2-3.9-2.5-5.4l-7.7-2.3L39.2,36.1z"/>
			<polygon class="st8" points="23.7,13.9 18.4,13.9 18.4,14.8 23.8,14.8 			"/>
			<polygon class="st8" points="19.4,14.6 19.4,58.5 20,58.5 20,14.5 			"/>
			<polygon class="st8" points="69,13.4 63.7,13.4 63.7,14.3 69.1,14.3 			"/>
			<polygon class="st8" points="67.2,14.2 67.2,58.1 67.7,58.1 67.7,14.1 			"/>
			<path class="st6" d="M44.5,19.2c0.3,0.4,0.9,0.4,1.2,0.2l0.2-0.1c0,0-0.4-0.4-0.5-0.4c-0.1,0-0.1,0.1-0.2,0.1L45,18.9L44.5,19.2z
				"/>
		</g>
	</g>
</g>
</svg>
