<svg xmlns="http://www.w3.org/2000/svg" viewBox="0 0 329.95 84.05"><defs><style>.cls-1{fill:#f2ded3;}.cls-2{fill:#f9ece4;}.cls-3{fill:#dab398;}.cls-4{fill:#ecd0ca;}.cls-5{fill:#7c2f30;}.cls-6{fill:#6d3718;}.cls-7{fill:#b44e34;}.cls-8{fill:#ddada4;}.cls-9{fill:#eacbc1;}</style></defs><g id="レイヤー_2" data-name="レイヤー 2"><g id="レイヤー_1-2" data-name="レイヤー 1"><rect class="cls-1" width="329.95" height="84.05" rx="7.16"/><rect class="cls-2" x="7.79" y="36.02" width="9.88" height="42.45"/><rect class="cls-2" x="22.05" y="23.02" width="6.9" height="35.33"/><rect class="cls-2" x="298.52" y="29.56" width="13.4" height="48.68"/><rect class="cls-2" x="315.66" y="13.34" width="6.9" height="35.33"/><rect class="cls-2" x="142.11" y="59.96" width="10.82" height="23.35"/><path class="cls-3" d="M283.61,28.25s1-4.67,2-6.18,1.75-2.87,3.5-2.87,2.25.76,4,.91,1.31.22,1.47-.58.48-1,.16-1.66-1.27-1.11-1.27-2.22-.08-5.25,2.29-5.57,3.93,1,4.13,3.67-.56,3.41-1.19,4.75-.87,2.46-.32,2.46A16.69,16.69,0,0,1,303,22.47c1.27.71,2.15,1.5,2.22,4s0,6.49.08,7.13,2.07,5.22,2.3,6.81.32,4.68.32,4.68a11.13,11.13,0,0,1,.48,3.72c-.16,1.74-1.27,3.49-2.07,3.49s-.62-.56-.55-1.75.08-1.27.08-3V45.37a17.46,17.46,0,0,0-2-6.1c-1.11-2.15-1.19-4.05-1.58-5.08a14.26,14.26,0,0,1-.8-4.43c0-1.51-.47,2.94-.47,3.64s.31,2.77.31,2.77l-11.57.39a8.74,8.74,0,0,0,.24-7.28,7.48,7.48,0,0,1-.71-3.73c0-.86-1.31,1.31-2.07,3.59-.6,1.82-.86,2.67-.86,2.67a3.92,3.92,0,0,0,1.26,1.91,3.33,3.33,0,0,1,1.15,1.18s2.38-.71,2.62-.07-1,2.22-2.45,2.45-2.3.64-3.09-.47a21.54,21.54,0,0,1-2.3-3.09c-1.11-1.91-1.51-2-1.51-3.25S283.61,28.25,283.61,28.25Z"/><path class="cls-4" d="M287.39,20.12a15.76,15.76,0,0,0,2.19.49c2.22.45,2.19,1.37,4.32,2a17,17,0,0,0,5.93.83c1.27-.2,3.22.07,4.36-.52a5.88,5.88,0,0,1,1.58,3.8,28.36,28.36,0,0,0,.32,4.12l.87.55s-.23.23-1.58.23-.4.25-1.83.25-1.73-1.67-1.73-1.67.08,2.41.08,2.8-1.35.29-1.35.29l-10,.32s-2.79-3.42-2.68-6.24L287,30a4.74,4.74,0,0,0-2.15-.84c-1,0-1.87,1.1-3.22.3s1.14-.64,1.39-2.15.72-1.22,1.25-2.41S286.44,19,287.39,20.12Z"/><path class="cls-5" d="M301.18,33.23l.08,2s.54-.43,1.29,1.4a29.67,29.67,0,0,1,2.16,14.3c-.54,7.81-2.27,13.76-1.29,19.08l1,5.3s-3.36.33-5.84.33h-8.89c-3.93,0-3,1.52-6.94,1.09s-4.55-1.53-4.55-1.53,3.15-4.65,3.36-8.83S285.55,54,286.2,49s3.93-11.65,4-13a15,15,0,0,1,.37-2.31Z"/><path class="cls-6" d="M301,22.46c1.68-.71,2.47-.28,2-2.09s-.34.29-.63-2.85-.12-5.89-2.24-6.92-3.69-2-5.43-.38a8.28,8.28,0,0,0-2.44,6.24,3,3,0,0,1-1.91,2.95l3.74,1.29s1.1-1.66.79-2.53-1.62-2.31-.43-4.49.85-1.64.85-1.64l.5.89a4.36,4.36,0,0,0,1.66,1.56c1.8-.37,1.39.29,1.39,2s-.12,1.16-.47,2.37-1,2,1.31,3c1.29.53.21-1.69-.05.46"/><path class="cls-7" d="M295.93,17.37a1.15,1.15,0,0,0,1.58,0l.19-.15s-.57-.48-.69-.43a.84.84,0,0,0-.24.18l-.28-.12Z"/><path class="cls-3" d="M167.21,26.3a23.33,23.33,0,0,1,1.44-4.55c.69-1.12,1.29-2.12,2.58-2.12s1.66.56,2.94.68,1,.15,1.08-.43.35-.73.12-1.23-.94-.81-.94-1.63-.06-3.88,1.69-4.11,2.9.73,3,2.7a5.26,5.26,0,0,1-.88,3.51c-.46,1-.64,1.81-.24,1.81A12.65,12.65,0,0,1,181.5,22c.93.52,1.58,1.11,1.64,3s0,4.79.05,5.26,1.52,3.85,1.7,5,.23,3.45.23,3.45a8.2,8.2,0,0,1,.35,2.74c-.11,1.28-.93,2.57-1.52,2.57s-.46-.41-.4-1.29.06-.93.06-2.21V38.92a13.27,13.27,0,0,0-1.45-4.5A18.83,18.83,0,0,1,181,30.68a10.08,10.08,0,0,1-.58-3.26c0-1.12-.35,2.17-.35,2.68s.23,2,.23,2l-8.53.29a6.42,6.42,0,0,0,.17-5.37,5.62,5.62,0,0,1-.52-2.74c0-.64-1,1-1.53,2.64-.44,1.34-.63,2-.63,2a2.85,2.85,0,0,0,.93,1.4,2.56,2.56,0,0,1,.85.88s1.75-.53,1.93-.06-.72,1.64-1.81,1.81-1.69.47-2.28-.35a15.12,15.12,0,0,1-1.69-2.28c-.82-1.4-1.11-1.44-1.11-2.39S167.21,26.3,167.21,26.3Z"/><path class="cls-4" d="M170,20.31a11.73,11.73,0,0,0,1.62.36c1.64.33,1.61,1,3.18,1.47a12.49,12.49,0,0,0,4.38.61c.93-.15,2.37.05,3.21-.38a4.36,4.36,0,0,1,1.17,2.8,20.64,20.64,0,0,0,.23,3l.64.4s-.17.17-1.16.17-.3.19-1.35.19-1.28-1.24-1.28-1.24.07,1.78.07,2.07-1,.22-1,.22l-7.38.23s-2-2.52-2-4.6l-.62,2a3.55,3.55,0,0,0-1.59-.63c-.72,0-1.38.82-2.38.23s.84-.48,1-1.59.53-.89.92-1.78S169.29,19.49,170,20.31Z"/><path class="cls-5" d="M180.16,30l.06,1.45s.4-.32.95,1A21.85,21.85,0,0,1,182.77,43c-.4,5.75-1.68,10.13-1,14.06l.72,3.91s-2.47.24-4.3.24h-6.56c-2.89,0-2.23,1.12-5.11.8s-3.35-1.12-3.35-1.12,2.32-3.43,2.48-6.52,2.95-9.11,3.43-12.78S172,33,172.06,32a11.25,11.25,0,0,1,.27-1.71Z"/><path class="cls-6" d="M180,22c1.24-.53,1.82-.21,1.5-1.54s-.25.21-.47-2.11-.08-4.34-1.65-5.1-2.71-1.45-4-.28a6.15,6.15,0,0,0-1.8,4.6,2.16,2.16,0,0,1-1.4,2.17l2.75,1s.81-1.22.59-1.87-1.2-1.7-.32-3.31.63-1.21.63-1.21l.37.66a3.11,3.11,0,0,0,1.21,1.15c1.33-.28,1,.21,1,1.5s-.09.86-.35,1.75-.75,1.5,1,2.21c1,.39.15-1.24,0,.34"/><path class="cls-7" d="M176.29,18.29a.87.87,0,0,0,1.17,0l.14-.12s-.43-.35-.51-.32a.62.62,0,0,0-.18.14l-.21-.09Z"/><path class="cls-3" d="M33.93,26.76a23.53,23.53,0,0,1,1.47-4.64C36.1,21,36.72,20,38,20s1.69.57,3,.69,1,.16,1.1-.44.36-.73.12-1.24-1-.84-1-1.67-.06-3.95,1.72-4.18,3,.74,3.1,2.75a5.37,5.37,0,0,1-.89,3.57c-.47,1-.66,1.84-.25,1.84a12.66,12.66,0,0,1,3.51,1.14c1,.53,1.61,1.13,1.67,3s0,4.87.06,5.35,1.55,3.92,1.73,5.12.23,3.51.23,3.51a8.24,8.24,0,0,1,.36,2.79c-.12,1.31-1,2.62-1.55,2.62s-.47-.42-.41-1.31.06-.95.06-2.26V39.62A13.37,13.37,0,0,0,49.16,35,18.62,18.62,0,0,1,48,31.22a10.47,10.47,0,0,1-.6-3.32c0-1.14-.35,2.21-.35,2.73s.23,2.08.23,2.08l-8.68.3a6.57,6.57,0,0,0,.17-5.47,5.63,5.63,0,0,1-.53-2.8c0-.65-1,1-1.55,2.69-.45,1.37-.65,2-.65,2a3,3,0,0,0,1,1.43,2.53,2.53,0,0,1,.86.89s1.79-.54,2-.06-.74,1.67-1.84,1.85-1.73.48-2.33-.36a16.19,16.19,0,0,1-1.72-2.32c-.83-1.43-1.13-1.47-1.13-2.44S33.93,26.76,33.93,26.76Z"/><path class="cls-4" d="M36.77,20.66a12,12,0,0,0,1.64.37c1.67.34,1.64,1,3.24,1.49a13,13,0,0,0,4.46.63c1-.15,2.42.05,3.27-.39a4.41,4.41,0,0,1,1.19,2.85,19.91,19.91,0,0,0,.24,3.09l.65.42s-.17.17-1.18.17-.31.19-1.38.19-1.3-1.26-1.3-1.26.07,1.81.07,2.1-1,.23-1,.23l-7.51.23s-2.09-2.56-2-4.68l-.64,2a3.47,3.47,0,0,0-1.61-.63c-.74,0-1.41.82-2.42.23s.86-.49,1-1.62.55-.91.94-1.81S36.05,19.83,36.77,20.66Z"/><path class="cls-5" d="M47.12,30.5,47.18,32s.4-.33,1,1.05a22.18,22.18,0,0,1,1.62,10.74c-.4,5.86-1.7,10.32-1,14.32l.74,4s-2.52.24-4.39.24H38.48c-2.95,0-2.28,1.14-5.21.82S29.86,62,29.86,62s2.36-3.5,2.52-6.64,3-9.28,3.5-13,2.94-8.75,3-9.73a11.27,11.27,0,0,1,.28-1.74Z"/><path class="cls-6" d="M47,22.42c1.26-.53,1.85-.21,1.53-1.57s-.26.22-.48-2.14-.09-4.42-1.68-5.2-2.77-1.47-4.08-.28a6.27,6.27,0,0,0-1.83,4.68A2.23,2.23,0,0,1,39,20.13l2.8,1s.83-1.25.6-1.9-1.22-1.74-.32-3.37.64-1.23.64-1.23l.37.67a3.47,3.47,0,0,0,1.24,1.17c1.36-.28,1.05.21,1.05,1.53s-.09.87-.35,1.78-.77,1.52,1,2.25c1,.4.16-1.27,0,.35"/><path class="cls-7" d="M43.18,18.6a.87.87,0,0,0,1.19,0l.14-.11s-.43-.36-.52-.33a.62.62,0,0,0-.18.14l-.21-.09Z"/><path class="cls-3" d="M63.48,37.33a28.71,28.71,0,0,1,1.78-5.59c.85-1.37,1.58-2.6,3.17-2.6s2,.69,3.61.83,1.18.2,1.32-.52.44-.89.14-1.51-1.14-1-1.14-2-.07-4.75,2.07-5,3.55.89,3.74,3.32-.51,3.08-1.07,4.3-.8,2.22-.3,2.22A15.63,15.63,0,0,1,81,32.1c1.15.64,1.94,1.36,2,3.66s0,5.87.07,6.45,1.87,4.73,2.08,6.17.29,4.23.29,4.23A10.12,10.12,0,0,1,85.92,56c-.15,1.58-1.15,3.16-1.87,3.16s-.57-.51-.5-1.58.07-1.15.07-2.72v-2a15.76,15.76,0,0,0-1.78-5.52,24.1,24.1,0,0,1-1.43-4.6,12.73,12.73,0,0,1-.72-4c0-1.37-.43,2.67-.43,3.3s.29,2.51.29,2.51l-10.47.35a8,8,0,0,0,.21-6.6,6.73,6.73,0,0,1-.64-3.37c0-.78-1.19,1.19-1.88,3.25-.54,1.64-.78,2.42-.78,2.42a3.53,3.53,0,0,0,1.15,1.72,3.16,3.16,0,0,1,1,1.08s2.15-.65,2.37-.07-.89,2-2.22,2.22-2.08.58-2.8-.43a19,19,0,0,1-2.08-2.8c-1-1.72-1.36-1.78-1.36-2.94S63.48,37.33,63.48,37.33Z"/><path class="cls-4" d="M66.91,30a16.3,16.3,0,0,0,2,.44c2,.41,2,1.24,3.91,1.8a15.25,15.25,0,0,0,5.37.75c1.15-.18,2.91.06,4-.47a5.38,5.38,0,0,1,1.43,3.44,25.8,25.8,0,0,0,.28,3.73l.8.5s-.22.21-1.44.21-.36.22-1.65.22S80,39.09,80,39.09s.08,2.18.08,2.54-1.23.26-1.23.26l-9,.29s-2.52-3.1-2.43-5.65l-.76,2.39a4.34,4.34,0,0,0-2-.76c-.89,0-1.7,1-2.91.27s1-.58,1.25-1.94.66-1.11,1.14-2.19S66,29,66.91,30Z"/><path class="cls-5" d="M79.39,41.84l.07,1.78s.49-.39,1.17,1.27a26.79,26.79,0,0,1,2,12.94c-.49,7.07-2,12.45-1.17,17.27l.89,4.8s-3,.29-5.29.29H69c-3.56,0-2.75,1.38-6.28,1s-4.11-1.38-4.11-1.38,2.84-4.21,3-8,3.62-11.18,4.21-15.69,3.56-10.55,3.61-11.73a13.52,13.52,0,0,1,.34-2.1Z"/><path class="cls-6" d="M79.21,32.1c1.52-.65,2.23-.26,1.84-1.89s-.31.26-.58-2.59-.1-5.33-2-6.27-3.34-1.77-4.92-.33a7.52,7.52,0,0,0-2.2,5.64,2.68,2.68,0,0,1-1.73,2.67L73,30.5s1-1.5.72-2.29-1.47-2.09-.39-4.06.77-1.49.77-1.49l.46.81A4,4,0,0,0,76,24.88c1.63-.34,1.26.26,1.26,1.84s-.11,1.05-.43,2.16-.92,1.83,1.19,2.7c1.17.49.19-1.52,0,.42"/><path class="cls-7" d="M74.64,27.49a1,1,0,0,0,1.43,0l.17-.14s-.52-.43-.62-.4a.92.92,0,0,0-.22.17l-.26-.11Z"/><path class="cls-3" d="M98.46,17.75a19.72,19.72,0,0,1,1.23-3.86c.58-1,1.09-1.8,2.19-1.8s1.4.48,2.49.57.82.14.91-.36.31-.61.1-1-.79-.69-.79-1.38,0-3.29,1.43-3.48,2.46.61,2.59,2.29a4.38,4.38,0,0,1-.75,3c-.39.84-.54,1.53-.2,1.53a10.63,10.63,0,0,1,2.92,1A2.46,2.46,0,0,1,112,16.66c0,1.59,0,4.06,0,4.46s1.29,3.27,1.44,4.26.19,2.92.19,2.92a6.59,6.59,0,0,1,.3,2.33c-.09,1.09-.79,2.18-1.28,2.18s-.4-.35-.35-1.09.05-.79.05-1.88V28.45a10.92,10.92,0,0,0-1.23-3.81,16.7,16.7,0,0,1-1-3.18,8.68,8.68,0,0,1-.49-2.77c0-.94-.3,1.85-.3,2.28s.2,1.73.2,1.73l-7.24.25a5.46,5.46,0,0,0,.15-4.56,4.63,4.63,0,0,1-.44-2.32c0-.54-.82.81-1.3,2.24-.37,1.13-.54,1.67-.54,1.67a2.48,2.48,0,0,0,.8,1.19,2.1,2.1,0,0,1,.71.74s1.49-.45,1.64-.05-.61,1.39-1.53,1.54-1.44.4-1.94-.3a14.17,14.17,0,0,1-1.43-1.93c-.7-1.19-.94-1.23-.94-2S98.46,17.75,98.46,17.75Z"/><path class="cls-4" d="M100.83,12.67a11.72,11.72,0,0,0,1.37.3c1.38.29,1.36.86,2.7,1.25a10.79,10.79,0,0,0,3.71.52,10.14,10.14,0,0,0,2.72-.33,3.67,3.67,0,0,1,1,2.38,17,17,0,0,0,.2,2.57l.54.35s-.14.14-1,.14-.26.16-1.15.16S109.85,19,109.85,19s.05,1.51.05,1.75-.85.19-.85.19l-6.25.2s-1.74-2.14-1.67-3.9l-.53,1.65a2.89,2.89,0,0,0-1.35-.53c-.61,0-1.17.69-2,.19s.71-.41.87-1.34.45-.77.78-1.52S100.23,12,100.83,12.67Z"/><path class="cls-5" d="M109.45,20.86l0,1.23s.33-.27.81.88a18.59,18.59,0,0,1,1.35,8.94c-.34,4.88-1.42,8.6-.81,11.92l.61,3.32s-2.1.2-3.65.2h-5.56c-2.46,0-1.9.95-4.33.68s-2.85-1-2.85-1a13.16,13.16,0,0,0,2.1-5.52c.14-2.62,2.51-7.73,2.91-10.84s2.46-7.29,2.5-8.1a10.18,10.18,0,0,1,.23-1.45Z"/><path class="cls-6" d="M109.32,14.13c1.05-.44,1.55-.17,1.28-1.3s-.22.18-.4-1.79-.08-3.68-1.4-4.33-2.31-1.22-3.4-.23a5.2,5.2,0,0,0-1.52,3.9,1.84,1.84,0,0,1-1.19,1.84L105,13s.69-1,.5-1.58-1-1.44-.27-2.81.53-1,.53-1l.31.56a2.77,2.77,0,0,0,1,1c1.13-.23.87.18.87,1.27s-.08.73-.3,1.49-.64,1.26.82,1.87c.81.33.13-1,0,.29"/><path class="cls-7" d="M106.17,11a.73.73,0,0,0,1,0l.11-.1s-.36-.3-.43-.27a.83.83,0,0,0-.15.11l-.18-.07Z"/><path class="cls-8" d="M88.29,25.51l-.37,23.36s3.12,1.25,11.94,1.6c7.42.29,14.56-1.22,22.53-1,9.56.23,19.67,2.23,25,.76a35.43,35.43,0,0,1,11.81-1c1.36,0-2.16-23.74-2.16-23.74"/><ellipse class="cls-9" cx="122.91" cy="25.7" rx="34.4" ry="2.1"/><path class="cls-3" d="M126.53,43.82s1-4.67,2-6.18,1.74-2.87,3.49-2.87,2.25.76,4,.92,1.31.21,1.46-.58.49-1,.16-1.66-1.27-1.11-1.27-2.22-.07-5.26,2.29-5.57,3.93,1,4.14,3.66-.56,3.41-1.19,4.76-.87,2.45-.32,2.45A17.48,17.48,0,0,1,145.92,38c1.27.71,2.14,1.51,2.22,4s0,6.49.08,7.13,2.06,5.23,2.3,6.82.31,4.67.31,4.67a11,11,0,0,1,.48,3.73c-.15,1.73-1.26,3.48-2.06,3.48s-.63-.56-.55-1.75.08-1.26.08-3V60.94a17.54,17.54,0,0,0-2-6.1c-1.11-2.14-1.18-4.05-1.58-5.08a13.91,13.91,0,0,1-.79-4.43c0-1.51-.47,3-.47,3.65s.31,2.77.31,2.77l-11.57.39a8.8,8.8,0,0,0,.24-7.29,7.36,7.36,0,0,1-.71-3.72c0-.87-1.32,1.3-2.07,3.58-.6,1.82-.87,2.67-.87,2.67a4,4,0,0,0,1.27,1.91,3.45,3.45,0,0,1,1.15,1.19s2.37-.72,2.62-.08-1,2.22-2.45,2.46-2.3.63-3.1-.48a22.53,22.53,0,0,1-2.3-3.09c-1.11-1.91-1.5-2-1.5-3.25S126.53,43.82,126.53,43.82Z"/><path class="cls-4" d="M130.31,35.7a20,20,0,0,0,2.19.48c2.22.45,2.19,1.37,4.32,2a17.06,17.06,0,0,0,5.94.83c1.27-.2,3.21.07,4.36-.51a5.84,5.84,0,0,1,1.58,3.8A28.32,28.32,0,0,0,149,46.4l.88.55s-.24.24-1.58.24-.41.24-1.83.24-1.74-1.67-1.74-1.67.09,2.41.09,2.8-1.36.3-1.36.3l-10,.31s-2.79-3.42-2.69-6.24L130,45.58a4.73,4.73,0,0,0-2.15-.85c-1,0-1.88,1.1-3.22.31s1.14-.65,1.38-2.15.73-1.22,1.26-2.42S129.36,34.59,130.31,35.7Z"/><path class="cls-5" d="M144.1,48.8l.08,1.79s.54-.39,1.3,1.29A25,25,0,0,1,147.64,65c-.54,7.13-2.27,12.56-1.3,17.43l-8,.47h0c-3.93,0,3.9.39,0,0s-14.72-.51-14.72-.51.58.53.8-3.29,4-11.29,4.66-15.85,3.92-10.64,4-11.83a12.55,12.55,0,0,1,.38-2.12Z"/><path class="cls-6" d="M143.91,38c1.67-.72,2.46-.29,2-2.09s-.34.29-.64-2.86-.12-5.89-2.24-6.92-3.68-2-5.43-.37A8.28,8.28,0,0,0,135.2,32,3,3,0,0,1,133.29,35l3.73,1.3s1.1-1.66.8-2.54-1.62-2.31-.43-4.49.85-1.64.85-1.64l.5.9a4.49,4.49,0,0,0,1.65,1.56c1.81-.38,1.4.28,1.4,2s-.12,1.16-.48,2.38-1,2,1.32,3c1.28.53.2-1.69,0,.46"/><path class="cls-7" d="M138.86,33a1.17,1.17,0,0,0,1.58,0l.19-.15s-.58-.48-.69-.44a1.14,1.14,0,0,0-.25.18l-.28-.12Z"/><path class="cls-3" d="M214.39,27.29s1-4.67,2-6.18,1.75-2.87,3.5-2.87,2.25.76,4,.92,1.3.21,1.46-.58.48-1,.16-1.66-1.27-1.11-1.27-2.22-.08-5.26,2.29-5.57,3.93,1,4.14,3.66-.56,3.41-1.19,4.76S228.55,20,229.1,20a17.43,17.43,0,0,1,4.68,1.51c1.26.71,2.14,1.51,2.22,4s0,6.49.08,7.13,2.06,5.23,2.29,6.82.32,4.67.32,4.67a11.23,11.23,0,0,1,.48,3.73c-.16,1.73-1.27,3.48-2.06,3.48s-.63-.56-.55-1.75.08-1.26.08-3V44.41a17.75,17.75,0,0,0-2-6.1c-1.11-2.14-1.19-4.05-1.58-5.08a14.21,14.21,0,0,1-.8-4.43c0-1.51-.47,2.95-.47,3.65s.32,2.77.32,2.77l-11.57.39a8.76,8.76,0,0,0,.23-7.29,7.35,7.35,0,0,1-.7-3.72c0-.87-1.32,1.3-2.08,3.58-.6,1.82-.86,2.67-.86,2.67a3.87,3.87,0,0,0,1.27,1.91A3.45,3.45,0,0,1,219.58,34s2.37-.72,2.62-.08-1,2.22-2.46,2.46-2.3.63-3.09-.48a21,21,0,0,1-2.3-3.09c-1.11-1.91-1.5-2-1.5-3.25S214.39,27.29,214.39,27.29Z"/><path class="cls-4" d="M218.17,19.17a20,20,0,0,0,2.19.48c2.22.45,2.19,1.38,4.32,2a17.06,17.06,0,0,0,5.94.83c1.27-.2,3.21.07,4.36-.51a5.94,5.94,0,0,1,1.58,3.8,28.32,28.32,0,0,0,.31,4.11l.88.55s-.24.24-1.59.24-.4.24-1.82.24-1.74-1.67-1.74-1.67.09,2.41.09,2.8-1.36.3-1.36.3l-10,.31s-2.79-3.42-2.68-6.23l-.84,2.64a4.73,4.73,0,0,0-2.15-.85c-1,0-1.88,1.1-3.23.31s1.14-.65,1.39-2.15.73-1.22,1.26-2.42S217.22,18.06,218.17,19.17Z"/><path class="cls-5" d="M232,32.27l.08,2s.54-.43,1.3,1.41a29.77,29.77,0,0,1,2.16,14.3c-.54,7.81-2.27,13.75-1.3,19.07l1,5.31s-3.36.32-5.84.32h-8.89c-3.93,0-3,1.52-6.93,1.09S209,74.21,209,74.21s3.14-4.66,3.36-8.84S216.33,53,217,48s3.93-11.65,4-13a16.48,16.48,0,0,1,.37-2.32Z"/><path class="cls-6" d="M231.76,21.51c1.68-.72,2.47-.29,2-2.09s-.35.29-.64-2.86-.12-5.89-2.24-6.92-3.68-2-5.43-.37a8.29,8.29,0,0,0-2.44,6.23,2.94,2.94,0,0,1-1.9,2.95l3.73,1.3s1.1-1.66.79-2.54-1.62-2.31-.43-4.49.86-1.64.86-1.64l.5.9a4.42,4.42,0,0,0,1.65,1.56c1.8-.38,1.39.28,1.39,2s-.11,1.16-.47,2.38-1,2,1.31,3c1.29.53.21-1.69,0,.46"/><path class="cls-7" d="M226.71,16.42a1.16,1.16,0,0,0,1.58,0l.2-.15s-.58-.48-.7-.44a1.08,1.08,0,0,0-.24.18l-.28-.12Z"/><path class="cls-8" d="M195.12,41.13l-.58,35.76s4.75,1.93,18.11,2.46c11.26.44,22.08-1.88,34.17-1.58,14.49.35,29.82,3.42,38,1.16a53.33,53.33,0,0,1,17.92-1.46c2.06,0-3.27-36.34-3.27-36.34"/><ellipse class="cls-9" cx="247.28" cy="41.75" rx="52.16" ry="4.26"/><polygon class="cls-8" points="2.09 82.83 4.5 64.47 128.54 64.47 130.28 82.58 2.09 82.83"/><ellipse class="cls-9" cx="66.52" cy="64.47" rx="62.02" ry="3.49"/></g></g></svg>