<?xml version="1.0" encoding="utf-8"?>
<!-- Generator: Adobe Illustrator 25.3.1, SVG Export Plug-In . SVG Version: 6.00 Build 0)  -->
<svg version="1.1" id="レイヤー_1" xmlns="http://www.w3.org/2000/svg" xmlns:xlink="http://www.w3.org/1999/xlink" x="0px"
	 y="0px" viewBox="0 0 42.6 29.1" style="enable-background:new 0 0 42.6 29.1;" xml:space="preserve">
<style type="text/css">
	.st0{fill:#E81C52;}
	.st1{fill:#ECD0CA;}
</style>
<path class="st0" d="M25.9,12.3v1.2h-1v1h1V18h1.5v-3.6h0.9l0.1-1h-1v-0.6c0-0.3,0-0.4,0.3-0.4h0.7v-1.6h-1
	C26.4,10.9,25.9,11.4,25.9,12.3z"/>
<path class="st0" d="M21.5,1.5l-10.2,26h23.2l8.1-26L21.5,1.5z M27,20.6c-3.4,0-6.1-2.8-6.1-6.2c0-3.4,2.8-6.1,6.2-6.1
	c3.4,0,6.1,2.8,6.1,6.1C33.2,17.9,30.4,20.6,27,20.6z"/>
<circle class="st0" cx="6.4" cy="10.3" r="1"/>
<circle class="st1" cx="40.2" cy="1.6" r="1.6"/>
<circle class="st0" cx="0.9" cy="28.2" r="0.9"/>
</svg>
