<?xml version="1.0" encoding="utf-8"?>
<!-- Generator: Adobe Illustrator 25.3.1, SVG Export Plug-In . SVG Version: 6.00 Build 0)  -->
<svg version="1.1" id="レイヤー_1" xmlns="http://www.w3.org/2000/svg" xmlns:xlink="http://www.w3.org/1999/xlink" x="0px"
	 y="0px" viewBox="0 0 39.3 31.8" style="enable-background:new 0 0 39.3 31.8;" xml:space="preserve">
<style type="text/css">
	.st0{fill:#E81C52;}
	.st1{fill:#FFFFFF;}
</style>
<g id="レイヤー_2_1_">
	<g id="レイヤー_1-2">
		<path class="st0" d="M25.7,12.9c-0.6,0-0.7,0-2.1,0s-1.6,0-2.1,0c-1.1-0.1-2.1,0.7-2.1,1.8c0,0.1,0,0.2,0,0.3c0,0.6,0,0.7,0,2.1
			s0,1.6,0,2.1c-0.1,1.1,0.7,2.1,1.8,2.1c0.1,0,0.2,0,0.3,0c0.5,0,0.7,0,2.1,0s1.6,0,2.1,0c1.1,0.1,2.1-0.7,2.1-1.8
			c0-0.1,0-0.2,0-0.3c0-0.6,0-0.7,0-2.1s0-1.6,0-2.1C28,14,27.1,13,26,12.9C25.9,12.9,25.8,12.9,25.7,12.9z M23.6,19.9
			c-1.5,0-2.7-1.2-2.7-2.7c0-1.5,1.2-2.7,2.7-2.7c1.5,0,2.7,1.2,2.7,2.7C26.3,18.7,25.1,19.9,23.6,19.9L23.6,19.9z M26.4,15
			c-0.3,0-0.6-0.3-0.6-0.6c0-0.3,0.2-0.7,0.5-0.7c0.3,0,0.7,0.2,0.7,0.5c0,0.1,0,0.1,0,0.2C27,14.7,26.8,15,26.4,15z"/>
		<circle class="st0" cx="23.6" cy="17.2" r="1.7"/>
		<path class="st0" d="M18.1,4.2L8,30.2h23.1l8.1-26L18.1,4.2z M28.8,19.3c0.1,1.6-1.2,2.9-2.8,3c-0.1,0-0.2,0-0.2,0
			c-0.6,0-0.7,0-2.2,0s-1.6,0-2.2,0c-1.6,0.1-2.9-1.2-3-2.8c0-0.1,0-0.2,0-0.2c0-0.6,0-0.7,0-2.2s0-1.6,0-2.2
			c-0.1-1.6,1.2-2.9,2.8-3c0.1,0,0.1,0,0.2,0c0.6,0,0.7,0,2.2,0s1.6,0,2.2,0c1.6-0.1,2.9,1.2,3,2.8c0,0.1,0,0.2,0,0.2
			c0,0.6,0,0.7,0,2.2S28.9,18.8,28.8,19.3z"/>
		<circle class="st0" cx="11.6" cy="1.7" r="1.7"/>
		<circle class="st0" cx="7" cy="24.5" r="1.4"/>
		<circle class="st0" cx="6.8" cy="10.5" r="0.6"/>
		<circle class="st1" cx="35.2" cy="7.7" r="2.2"/>
		<line class="st0" x1="0" y1="30.4" x2="1.6" y2="30.4"/>
		<line class="st0" x1="0.7" y1="29.2" x2="0.7" y2="31.8"/>
	</g>
</g>
</svg>
