<?xml version="1.0" encoding="utf-8"?>
<!-- Generator: Adobe Illustrator 25.3.1, SVG Export Plug-In . SVG Version: 6.00 Build 0)  -->
<svg version="1.1" id="レイヤー_1" xmlns="http://www.w3.org/2000/svg" xmlns:xlink="http://www.w3.org/1999/xlink" x="0px"
	 y="0px" viewBox="0 0 140.1 81.5" style="enable-background:new 0 0 140.1 81.5;" xml:space="preserve">
<style type="text/css">
	.st0{fill:#ECD0CA;}
	.st1{fill:#FFFFFF;}
	.st2{fill:#CEA080;}
	.st3{fill:#FFD8CC;}
	.st4{fill:#F45687;}
	.st5{fill:#8C5F46;}
	.st6{fill:#E8C2AC;}
	.st7{fill:#E81C52;}
	.st8{fill:none;stroke:#7F5421;stroke-width:0.25;stroke-miterlimit:10;}
	.st9{fill:#DABFA7;}
	.st10{fill:#EF5081;}
	.st11{fill:#C43360;}
	.st12{fill:#FBFBFB;}
	.st13{fill:none;stroke:#D3A792;stroke-width:0.1;stroke-miterlimit:10;}
	.st14{fill:#C19A7C;}
	.st15{fill:#E8B1A3;}
	.st16{fill:#E84680;}
	.st17{fill:#544130;}
	.st18{fill:#F1E8E1;}
	.st19{fill:#EADCD3;}
	.st20{enable-background:new    ;}
	.st21{fill:#FFE8DD;}
</style>
<polygon class="st0" points="139.6,81.3 0,81.3 0,31.9 0,0 139.6,0 "/>
<polygon class="st1" points="50.2,0.4 28.7,38.1 59.8,73.3 68.6,79.5 139.5,80 140,0 "/>
<path class="st2" d="M103.2,49.7l21.4,4.1c0,0-2.1-5.5-3-8.4c-1.4-4.5-1.6-21.4-4.6-28.7c-1.7-4.2-6.6-6.6-12.8-6.1
	s-8.8,5.4-10.7,10s-0.8,14.6-1.1,20.9s2.1,6.3,4.8,8s3.1,0,3.1,0L103.2,49.7z"/>
<path class="st3" d="M97,24.5c0.7,2.6,1.5,5.2,2.5,7.7c1.3,3.2,5.4,4.9,6.9,4.2s5.1-2.8,5.6-6.2c0.3-2.4,0.9-4.8,1.5-7.1
	c0.5-1.7-5.3-7.4-8.8-7.4c-1.5,0.1-3,0.9-4,2C98.7,19.6,97,22.5,97,24.5z"/>
<path class="st2" d="M99.1,15.4c0,0,2,7.1,3.6,8.4c3,2.5,5.4,2,5.4,2l0,0c1.5-0.1,2.9-0.1,4.4,0c0.6,0.2,0.3,0,1.5,0h3.2
	c0,0-1.4-6.5-3.8-9.8S99.1,15.4,99.1,15.4z"/>
<path class="st3" d="M98.5,29.2c0,0-2.5-1.1-2.5-3.4s2.8-0.7,2.8-0.7"/>
<path class="st2" d="M100.6,16.7c0,0-0.3,5.9-1.4,7.5S94.8,25,94.8,25l3.7-8.3H100.6z"/>
<path class="st4" d="M89.2,73.7c-3.8,1.1-11.1-6.3-2.1-31.2c1.7-4.8,2.8-3.7,3.3-3.5c3.5,1.5,29.2,1.5,29.2,1.5s-0.2-1.2,2.6-1.2
	s4.5,19.9,4.3,22.8s-3,11.7-3,11.7L89.2,73.7z"/>
<path class="st3" d="M102.3,35.7c0,0,1.4,3.5-1.4,3.8s-6.6-0.5-9.7-0.3s2,2.2,2,2.2l11.5,2.2c0,0,13.9-0.3,14.9-1.5
	c0.6-0.7,0.8-1.6,0.6-2.4l-11.6-0.6v-5.7"/>
<ellipse class="st5" cx="103.8" cy="33.6" rx="1.4" ry="1.3"/>
<circle class="st0" cx="73" cy="18.7" r="15.3"/>
<path class="st0" d="M76.9,32.8c0,0,4.7,1.8,8.2,1.7c0,0-2.8-2.7-2.5-5.2"/>
<polygon class="st6" points="49.3,61.7 140.1,62.4 140.1,80.1 65.1,79.8 "/>
<polygon class="st0" points="75.2,71.8 72.4,72.5 69.8,71.8 69.8,54.5 72.3,54.9 75.2,54.5 "/>
<polygon class="st7" points="74.5,54.6 72.3,55.4 70.3,54.6 70.3,49.3 74.5,49.3 "/>
<path class="st3" d="M79.3,43.6c-2.2-1.3-4.4-2.4-6.7-3.3c-3.3-1.3-1.5-5.8,3.8-2.6s5.4,3.7,5.4,3.7s-0.2-3,1.1-2.5s0.7,3.4,0.2,5
	S79.3,43.6,79.3,43.6z"/>
<path class="st3" d="M82.4,42.2L89.7,62h-6.9c0,0-1.2-15.9-4.1-18.8"/>
<path class="st2" d="M110.1,20.5c0,0,1.1,13.8,5.2,17.2s-0.8-15.2-0.8-15.2"/>
<path class="st5" d="M95.9,19.4c0,0,3.8-7.3,10.6-6s7.6,6,7.6,6c-0.6-2.5-2.1-4.7-4.3-6C106.4,11.5,98.4,10.9,95.9,19.4z"/>
<path class="st5" d="M113.6,30.3c0.5-2.1,0.8-4.2,1-6.3c0-1.9,2.1-0.1,2.1,1.5s-0.5,4.5-1.8,5.2S113.6,30.3,113.6,30.3z"/>
<path class="st5" d="M96.9,30.5c0,0-1.8,0.4-2-2.5s-0.6-5.8,0.9-5.5s1.7,6.2,1.8,7.2S96.9,30.5,96.9,30.5z"/>
<rect x="95.6" y="21.8" class="st5" width="0.6" height="1.4"/>
<rect x="114.6" y="22.3" transform="matrix(0.9964 -8.523963e-02 8.523963e-02 0.9964 -1.5426 9.878)" class="st5" width="0.6" height="1.4"/>
<path class="st8" d="M96.4,28.7c0,0,0.4,4.2,1.7,4.7c1.6,0.4,3.4,0.4,5-0.1"/>
<path class="st9" d="M67.2,64.6L67,67.7c-1.3,0.8-2.9,0.7-4.1-0.2l0.2-3C63.1,64.5,63.9,63.8,67.2,64.6z"/>
<path class="st0" d="M63.2,64.5c1,0.9,2.6,1,3.7,0.2l0.3-4.5c-1.1,0.8-2.7,0.8-3.8-0.1L63.2,64.5z"/>
<ellipse transform="matrix(5.721334e-02 -0.9984 0.9984 5.721334e-02 1.6909 121.9625)" class="st9" cx="65.4" cy="60.1" rx="0.8" ry="1.9"/>
<path class="st10" d="M64.1,60.5c0-1.3,0-2.5,0.2-3.8c0.2-0.6,2-1.8,2.5-1.5l-0.4,5.6C66.4,60.8,64.7,61.2,64.1,60.5z"/>
<path class="st11" d="M64.7,57.1c0,0,1.6-0.8,1.9-1.4s-0.2-0.4-0.6-0.3S63.7,56.8,64.7,57.1z"/>
<polygon class="st12" points="140,81.4 66.4,81.4 52.5,65.1 139.9,64.8 "/>
<circle class="st7" cx="89.6" cy="72" r="6.1"/>
<circle class="st7" cx="109.3" cy="71.8" r="6.1"/>
<path class="st1" d="M87.3,69.7c-0.4,0.3-0.5,1.2-0.3,1.9c0.2,0.7,0.5,1.4,0.8,2c0.4,0.6,0.9,1.1,1.5,1.6c0.6,0.4,1.4,0.7,1.8,0.4
	c0.2-0.2,0.4-0.4,0.6-0.6l-0.2-0.4l-0.6-1c0-0.1-0.3,0-0.5,0.1S90.1,74,90,74.1s-0.2,0-0.5-0.1c-0.7-0.5-1.2-1.3-1.4-2.2
	c0-0.3,0-0.4,0.1-0.5c0.2,0,0.4-0.1,0.6-0.2c0.1-0.1,0.3-0.3,0.3-0.4l-0.6-1L88,69.4C87.8,69.5,87.5,69.6,87.3,69.7z"/>
<path class="st1" d="M90.9,70.5c0.3-1.1-0.3-2.2-1.4-2.5l0,0l0.1-0.3c1.2,0.4,1.9,1.6,1.6,2.9L90.9,70.5z"/>
<path class="st1" d="M90.2,70.3c0.2-0.7-0.2-1.4-0.9-1.6l0.1-0.3c0.8,0.3,1.3,1.1,1.1,2L90.2,70.3z"/>
<path class="st1" d="M89.5,70.1c0-0.3-0.1-0.6-0.4-0.7l0.1-0.3c0.5,0.2,0.7,0.6,0.6,1.1L89.5,70.1z"/>
<path class="st1" d="M111.9,69.4c-1.3-1.3-3.4-1.3-4.7,0c-0.6,0.6-1,1.5-1,2.3c0,1.6,1.1,3,2.7,3.3v0.9c0,0.1,0.1,0.2,0.2,0.3
	c0.1,0.1,0.2,0.1,0.3,0l2.2-1.8l0,0c0.4-0.3,0.7-0.7,0.9-1.1c0.2-0.4,0.3-0.9,0.3-1.4C112.9,70.9,112.5,70,111.9,69.4z M112,72.9
	c-0.2,0.4-0.4,0.7-0.7,0.9l0,0l-1.7,1.4v-0.5c0-0.2-0.1-0.3-0.3-0.3c-1.5-0.1-2.6-1.4-2.5-2.9c0.1-0.6,0.3-1.2,0.8-1.7
	c1.1-1,2.8-1,3.8,0.1C112.2,70.7,112.4,71.9,112,72.9L112,72.9z"/>
<path class="st1" d="M108,71.3c-0.2,0-0.4,0.2-0.4,0.4c0,0.2,0.2,0.4,0.4,0.4c0.2,0,0.4-0.2,0.4-0.4S108.2,71.3,108,71.3L108,71.3z"
	/>
<path class="st1" d="M109.6,71.3c-0.2,0-0.4,0.2-0.4,0.4c0,0.2,0.2,0.4,0.4,0.4c0.2,0,0.4-0.2,0.4-0.4S109.8,71.3,109.6,71.3
	L109.6,71.3z"/>
<path class="st1" d="M111.1,71.3c-0.2,0-0.4,0.2-0.4,0.4c0,0.2,0.2,0.4,0.4,0.4c0.2,0,0.4-0.2,0.4-0.4S111.3,71.3,111.1,71.3
	L111.1,71.3z"/>
<polyline class="st13" points="72.9,13.8 70.7,9.7 64.6,9.7 "/>
<rect x="64.7" y="8.4" class="st14" width="0.6" height="0.9"/>
<rect x="65.4" y="8.4" class="st14" width="0.6" height="0.9"/>
<rect x="66.2" y="8.4" class="st14" width="0.6" height="0.9"/>
<rect x="67" y="8.4" class="st14" width="0.6" height="0.9"/>
<rect x="67.7" y="8.4" class="st14" width="0.6" height="0.9"/>
<rect x="68.5" y="8.4" class="st14" width="0.6" height="0.9"/>
<rect x="69.2" y="8.4" class="st14" width="0.6" height="0.9"/>
<rect x="70" y="8.4" class="st14" width="0.6" height="0.9"/>
<path class="st10" d="M75.5,24.4l-0.8,4.8c-2.1,1-4.7,0.6-6.3-1.2l0.8-4.6C69.2,23.4,70.6,22.5,75.5,24.4z"/>
<path class="st3" d="M69.4,23.4c0,0,2.6,2.9,5.8,1l1.3-6.9c0,0-3.3,2-5.8-0.9L69.4,23.4z"/>
<ellipse transform="matrix(0.1754 -0.9845 0.9845 0.1754 44.0222 86.5417)" class="st15" cx="73.7" cy="17" rx="1.3" ry="3"/>
<path class="st4" d="M71.6,17.4c0.2-2,0.5-3.9,1-5.8c0.4-0.9,3.4-2.5,4.1-1.9l-1.6,8.6C75.1,18.3,72.4,18.5,71.6,17.4z"/>
<path class="st16" d="M73,12.1c0,0,2.7-1,3.3-1.9S76,9.6,75.5,9.8S71.5,11.6,73,12.1z"/>
<polyline class="st13" points="73.3,27.7 76.4,24.6 83.5,24.6 "/>
<rect x="77.2" y="23.1" class="st14" width="0.6" height="0.9"/>
<rect x="77.9" y="23.1" class="st14" width="0.6" height="0.9"/>
<rect x="78.7" y="23.1" class="st14" width="0.6" height="0.9"/>
<rect x="79.4" y="23.1" class="st14" width="0.6" height="0.9"/>
<rect x="80.2" y="23.1" class="st14" width="0.6" height="0.9"/>
<rect x="81" y="23.1" class="st14" width="0.6" height="0.9"/>
<rect x="81.7" y="23.1" class="st14" width="0.6" height="0.9"/>
<rect x="82.5" y="23.1" class="st14" width="0.6" height="0.9"/>
<polyline class="st13" points="72.5,21.6 68.8,17.1 62.5,17.1 "/>
<rect x="62.6" y="16" class="st14" width="0.6" height="0.9"/>
<rect x="63.4" y="16" class="st14" width="0.6" height="0.9"/>
<rect x="64.1" y="16" class="st14" width="0.6" height="0.9"/>
<rect x="64.9" y="16" class="st14" width="0.6" height="0.9"/>
<rect x="65.7" y="16" class="st14" width="0.6" height="0.9"/>
<rect x="66.4" y="16" class="st14" width="0.6" height="0.9"/>
<rect x="67.2" y="16" class="st14" width="0.6" height="0.9"/>
<rect x="67.9" y="16" class="st14" width="0.6" height="0.9"/>
<polygon class="st11" points="74.4,54.7 72.3,55.5 72.3,55.5 72.4,49.3 74.4,49.3 "/>
<path class="st17" d="M25.1,8.3l28.8,8.3c1.2,0.3,1.8,1.5,1.5,2.7L40.2,71.7c-0.3,1.2-1.5,1.8-2.7,1.5L8.7,64.9
	c-1.2-0.3-1.8-1.5-1.5-2.7L22.4,9.8C22.7,8.7,23.9,8,25.1,8.3z"/>
<rect x="5.5" y="26.4" transform="matrix(0.2778 -0.9606 0.9606 0.2778 -17.1541 59.8658)" class="st12" width="51.5" height="29.8"/>
<path class="st18" d="M36.3,18.8c0,0,2.1,0.8,1,4.8c-1,3.6-2.7,3.7-2.7,3.7s1.6,1.6,0,5.1c-0.5,1.3-1.7,2.3-3.1,2.4
	c0,0-0.1,2.7-1.4,3.8c-2.5,2.1-3.2-0.5-3.2-0.5s-1,2.7-2.6,2.4c-0.9-0.1-1.6-0.6-2-1.4c0,0,0.1,1.4-1.5,0.9l-4.6-1.4L24,12.4
	l14.3,4.2C38.4,16.7,37.8,18.7,36.3,18.8z"/>
<path class="st10" d="M35.9,35.5l-3.1,4.2c-2.5,0-4.8-1.7-5.5-4.1l3-4C30.2,31.6,32.1,31.3,35.9,35.5z"/>
<path class="st3" d="M30.5,31.7c0,0,1.1,4,5,3.7l4.6-5.9c0,0-4.1,0.3-5.1-3.7L30.5,31.7z"/>
<ellipse transform="matrix(0.5968 -0.8024 0.8024 0.5968 -6.9148 41.275)" class="st15" cx="37.6" cy="27.5" rx="1.4" ry="3.2"/>
<path class="st4" d="M35.5,26.9c1.1-1.8,2.4-3.5,3.8-5.1c0.8-0.6,4.5-0.7,4.9,0.1l-5.7,7.5C38.4,29.5,35.7,28.4,35.5,26.9z"/>
<path class="st16" d="M39.3,22.6c0,0,3.1,0.4,4-0.2s0.1-0.8-0.5-0.9S38.2,21.4,39.3,22.6z"/>
<path class="st1" d="M32.8,20c0,0-0.5,0.8-1.2,0.5c0.4,0.4,0.5,1,0.3,1.5c0,0,0.5-1,1.2-0.8C32.8,20.9,32.7,20.4,32.8,20z"/>
<path class="st9" d="M31,24.6c0,0-0.8,1.2-1.8,0.8c0.6,0.6,0.8,1.5,0.5,2.3c0,0,0.7-1.6,1.9-1.3C31,26,30.8,25.3,31,24.6z"/>
<path class="st14" d="M46.1,23.2c0,0-0.6,1.6-2,1.3c0.8,0.6,1.2,1.6,1,2.6c0,0,0.5-2,1.9-1.9C46.4,24.8,46,24,46.1,23.2z"/>
<path class="st19" d="M39.5,32.4c0,0-0.4,0.7-1,0.5c0.3,0.3,0.5,0.8,0.3,1.3c0,0,0.4-0.9,1-0.7C39.6,33.2,39.4,32.8,39.5,32.4z"/>
<path class="st9" d="M27.1,17.6c0,0-0.6,0.9-1.3,0.6c0.4,0.4,0.6,1.1,0.4,1.7c0,0,0.5-1.2,1.4-0.9C27.1,18.6,26.9,18.1,27.1,17.6z"
	/>
<path class="st14" d="M25.1,28.5c0,0-0.9,1.5-2.1,1c0.7,0.7,0.9,1.8,0.6,2.7c0,0,0.9-1.9,2.2-1.5C25.1,30.2,24.9,29.3,25.1,28.5z"/>
<path class="st19" d="M45,29.6c0,0-0.5,0.9-1.3,0.6c0.4,0.4,0.6,1.1,0.3,1.7c0,0,0.5-1.1,1.3-0.9C45,30.6,44.9,30.1,45,29.6z"/>
<rect x="15.1" y="39.2" transform="matrix(0.2778 -0.9606 0.9606 0.2778 -32.2651 65.5767)" class="st0" width="24.7" height="30"/>
<path class="st4" d="M19.1,38l24.6,7c0.4,0.1,0.6,0.5,0.5,0.8l-1.7,6.1c-0.1,0.4-0.5,0.6-0.8,0.5l-24.7-7c-0.4-0.1-0.6-0.5-0.5-0.8
	l1.7-6.1C18.3,38.1,18.7,37.9,19.1,38z"/>
<g class="st20">
	<path class="st1" d="M23.4,45c-0.6-0.2-0.5-1-0.4-1.3c0.1-0.4,0.4-1.2,1-1c0.3,0.1,0.4,0.3,0.4,0.5c0.1,0.3,0,0.6-0.1,0.9
		C24.3,44.3,24,45.2,23.4,45z M23.9,43c-0.2-0.1-0.4,0.1-0.5,0.8c-0.2,0.7-0.1,0.9,0.1,0.9c0.2,0.1,0.4-0.1,0.6-0.8
		C24.2,43.2,24.1,43,23.9,43z"/>
	<path class="st1" d="M24.9,45.4c-0.6-0.2-0.5-1-0.4-1.3c0.1-0.4,0.4-1.2,1-1c0.3,0.1,0.4,0.3,0.4,0.5c0.1,0.3,0,0.6-0.1,0.9
		C25.9,44.7,25.6,45.6,24.9,45.4z M25.5,43.4c-0.2-0.1-0.4,0.1-0.5,0.8c-0.2,0.7-0.1,0.9,0.1,0.9c0.2,0.1,0.4-0.1,0.6-0.8
		C25.8,43.6,25.6,43.5,25.5,43.4z"/>
	<path class="st1" d="M26.4,45.9c-0.6-0.2-0.5-1-0.4-1.3c0.1-0.4,0.4-1.2,1-1c0.3,0.1,0.4,0.3,0.4,0.5c0.1,0.3,0,0.6-0.1,0.9
		C27.4,45.2,27.1,46.1,26.4,45.9z M27,43.8c-0.2-0.1-0.4,0.1-0.5,0.8c-0.2,0.7-0.1,0.9,0.1,0.9c0.2,0.1,0.4-0.1,0.6-0.8
		C27.3,44.1,27.2,43.9,27,43.8z"/>
	<path class="st1" d="M27.5,45.4l0.1-0.4l0.7,0.2l-0.1,0.4L27.5,45.4z"/>
	<path class="st1" d="M28.9,46.5c-0.6-0.2-0.5-1-0.4-1.3c0.1-0.4,0.4-1.2,1-1c0.3,0.1,0.4,0.3,0.4,0.5c0.1,0.3,0,0.6-0.1,0.9
		C29.8,45.8,29.5,46.7,28.9,46.5z M29.4,44.5c-0.2-0.1-0.4,0.1-0.5,0.8c-0.2,0.7-0.1,0.9,0.1,0.9c0.2,0.1,0.4-0.1,0.6-0.8
		C29.7,44.7,29.6,44.6,29.4,44.5z"/>
	<path class="st1" d="M30.4,47c-0.6-0.2-0.5-1-0.4-1.3c0.1-0.4,0.4-1.2,1-1c0.3,0.1,0.4,0.3,0.4,0.5c0.1,0.3,0,0.6-0.1,0.9
		C31.4,46.3,31.1,47.1,30.4,47z M31,44.9c-0.2-0.1-0.4,0.1-0.5,0.8c-0.2,0.7-0.1,0.9,0.1,0.9c0.2,0.1,0.4-0.1,0.6-0.8
		C31.2,45.1,31.1,45,31,44.9z"/>
	<path class="st1" d="M31.9,47.4c-0.6-0.2-0.5-1-0.4-1.3c0.1-0.4,0.4-1.2,1-1c0.3,0.1,0.4,0.3,0.4,0.5c0.1,0.3,0,0.6-0.1,0.9
		C32.9,46.7,32.6,47.6,31.9,47.4z M32.5,45.4c-0.2-0.1-0.4,0.1-0.5,0.8C31.7,46.8,31.9,47,32,47c0.2,0.1,0.4-0.1,0.6-0.8
		C32.8,45.6,32.7,45.4,32.5,45.4z"/>
	<path class="st1" d="M33.5,47.8c-0.6-0.2-0.5-1-0.4-1.3c0.1-0.4,0.4-1.2,1-1c0.3,0.1,0.4,0.3,0.4,0.5c0.1,0.3,0,0.6-0.1,0.9
		C34.4,47.1,34.1,48,33.5,47.8z M34,45.8c-0.2-0.1-0.4,0.1-0.5,0.8c-0.2,0.7-0.1,0.9,0.1,0.9c0.2,0.1,0.4-0.1,0.6-0.8
		C34.3,46,34.2,45.8,34,45.8z"/>
	<path class="st1" d="M34.5,47.3l0.1-0.4l0.7,0.2l-0.1,0.4L34.5,47.3z"/>
	<path class="st1" d="M35.9,48.5c-0.6-0.2-0.5-1-0.4-1.3c0.1-0.4,0.4-1.2,1-1c0.3,0.1,0.4,0.3,0.4,0.5c0.1,0.3,0,0.6-0.1,0.9
		C36.9,47.8,36.6,48.7,35.9,48.5z M36.5,46.4c-0.2-0.1-0.4,0.1-0.5,0.8c-0.2,0.7-0.1,0.9,0.1,0.9c0.2,0.1,0.4-0.1,0.6-0.8
		C36.7,46.7,36.6,46.5,36.5,46.4z"/>
	<path class="st1" d="M37.4,48.9c-0.6-0.2-0.5-1-0.4-1.3c0.1-0.4,0.4-1.2,1-1c0.3,0.1,0.4,0.3,0.4,0.5c0.1,0.3,0,0.6-0.1,0.9
		C38.4,48.2,38.1,49.1,37.4,48.9z M38,46.9c-0.2-0.1-0.4,0.1-0.5,0.8c-0.2,0.7-0.1,0.9,0.1,0.9c0.2,0.1,0.4-0.1,0.6-0.8
		C38.3,47.1,38.2,46.9,38,46.9z"/>
	<path class="st1" d="M39,49.3c-0.6-0.2-0.5-1-0.4-1.3c0.1-0.4,0.4-1.2,1-1c0.3,0.1,0.4,0.3,0.4,0.5c0.1,0.3,0,0.6-0.1,0.9
		C39.9,48.6,39.6,49.5,39,49.3z M39.5,47.3c-0.2-0.1-0.4,0.1-0.5,0.8c-0.2,0.7-0.1,0.9,0.1,0.9c0.2,0.1,0.4-0.1,0.6-0.8
		C39.8,47.5,39.7,47.3,39.5,47.3z"/>
	<path class="st1" d="M40.5,49.7c-0.6-0.2-0.5-1-0.4-1.3c0.1-0.4,0.4-1.2,1-1c0.3,0.1,0.4,0.3,0.4,0.5c0.1,0.3,0,0.6-0.1,0.9
		C41.5,49,41.2,49.9,40.5,49.7z M41.1,47.7c-0.2-0.1-0.4,0.1-0.5,0.8c-0.2,0.7-0.1,0.9,0.1,0.9c0.2,0.1,0.4-0.1,0.6-0.8
		C41.4,47.9,41.3,47.8,41.1,47.7z"/>
</g>
<path class="st1" d="M18.9,42.2"/>
<path class="st1" d="M19.2,42.1"/>
<path class="st1" d="M22.2,42.4c0-0.1-0.1-0.2-0.1-0.2l0,0c-0.1-0.2-0.3-0.3-0.5-0.4c-0.2-0.2-0.5-0.3-0.8-0.4h-0.1
	c-0.3-0.1-0.6-0.1-0.8-0.1c-0.2,0-0.4,0-0.6,0.1l0,0c-0.1,0-0.2,0.1-0.2,0.1c-0.1,0-0.1,0.1-0.1,0.2c0,0.1,0,0.2,0,0.3
	s0,0.1,0.1,0.2l0,0c0,0.1,0.1,0.1,0.2,0.2h0.1l-0.3,0.3c-0.1,0.1-0.2,0.3-0.2,0.4v0.1c-0.1,0.2,0,0.4,0.3,0.5l0,0l1,0.3l1,0.3
	c0.2,0.1,0.5-0.1,0.5-0.3v-0.1c0-0.2,0-0.3,0-0.5V43l0,0h0.1h0.1c0.1,0,0.2,0,0.2,0l0,0l0.2-0.2c0.1,0,0.1-0.1,0.2-0.2
	C22.2,42.6,22.2,42.5,22.2,42.4z M21.7,42.9L21.7,42.9l-0.4-0.2l0,0l0,0v-0.1l0,0l0,0c0,0,0-0.1,0-0.2l-0.1-0.1l0,0h-0.1
	c-0.2-0.1-0.3-0.2-0.5-0.2l0,0c-0.1,0-0.3-0.1-0.4-0.1H20h-0.1l-0.1,0.1l0,0l0,0v0.1l0,0h-0.5l0,0L19,41.9l0,0v-0.1
	c0,0,0-0.1,0.1-0.1s0.1-0.1,0.2-0.1l0,0c0.2-0.1,0.4-0.1,0.6-0.1c0.3,0,0.5,0,0.8,0.1h0.1c0.3,0.1,0.5,0.2,0.7,0.3s0.3,0.2,0.5,0.4
	l0,0c0,0.1,0.1,0.1,0.1,0.2v0.1c0,0,0,0.1-0.1,0.1l0,0L21.7,42.9L21.7,42.9L21.7,42.9z M18.9,43.1c0-0.1,0.1-0.3,0.2-0.4l0.3-0.3
	l0.1-0.1h0.1h0.1l0.1-0.1l0,0v-0.1l0,0l0,0l0,0H20h0.2c0.1,0,0.2,0,0.3,0.1l0,0c0.1,0,0.3,0.1,0.4,0.2l0.1,0.1l0,0h0.1l0,0l0,0l0,0
	l0,0v0.1l0,0c0,0,0,0.1,0,0.2l0.1,0.1l0.1,0.1v0l0.1,0.5c0,0.1,0,0.3,0,0.4V44c0,0.1-0.2,0.2-0.3,0.2l-1-0.3l-1-0.3
	c-0.1,0-0.1-0.1-0.1-0.1c0-0.1,0-0.1,0-0.2L18.9,43.1L18.9,43.1z"/>
<rect x="19.6" y="43.2" transform="matrix(0.2787 -0.9604 0.9604 0.2787 -27.3515 50.2787)" class="st1" width="0.3" height="0.3"/>
<rect x="19.7" y="42.8" transform="matrix(0.2787 -0.9604 0.9604 0.2787 -26.9601 50.0699)" class="st1" width="0.3" height="0.3"/>
<rect x="19.9" y="42.5" transform="matrix(0.2787 -0.9604 0.9604 0.2787 -26.5279 49.9772)" class="st1" width="0.3" height="0.3"/>
<rect x="20" y="43.3" transform="matrix(0.2787 -0.9604 0.9604 0.2787 -27.161 50.7109)" class="st1" width="0.3" height="0.3"/>
<rect x="20.1" y="42.9" transform="matrix(0.2787 -0.9604 0.9604 0.2787 -26.7697 50.502)" class="st1" width="0.3" height="0.3"/>
<rect x="20.2" y="42.6" transform="matrix(0.2787 -0.9604 0.9604 0.2787 -26.3498 50.4016)" class="st1" width="0.3" height="0.3"/>
<rect x="20.4" y="43.4" transform="matrix(0.2787 -0.9604 0.9604 0.2787 -26.9906 51.1474)" class="st1" width="0.3" height="0.3"/>
<rect x="20.6" y="43.1" transform="matrix(0.2787 -0.9604 0.9604 0.2787 -26.5568 51.0511)" class="st1" width="0.3" height="0.3"/>
<rect x="20.6" y="42.7" transform="matrix(0.2787 -0.9604 0.9604 0.2787 -26.1794 50.8382)" class="st1" width="0.3" height="0.3"/>
<path class="st21" d="M10.5,81.5c0.5-0.3,20.9-0.4,21.3-0.8l4-4c1.5-1.9,1.6-4.5,0.3-6.5l-6.7-10.1c-0.2-0.3-0.2-0.8,0.1-1.1
	l5.8-7.7c1.7-2.2,1-3.8-0.5-4.9s-4.2-0.1-5.4,1.5L23,56.3l-1.5,2l-5,6.5c-0.4,0.5-0.9,0.8-1.6,0.8c-0.6,0-1.1-0.3-1.4-0.8l-3.2-5.2
	c-0.3-0.5-0.9-0.8-1.4-0.8c-0.6,0-1.2,0.3-1.6,0.8l-0.2,0.2c-1.2,1.5-1.5,3.4-1,5.2l4.2,15.8"/>
</svg>
