<?xml version="1.0" encoding="utf-8"?>
<!-- Generator: Adobe Illustrator 25.3.1, SVG Export Plug-In . SVG Version: 6.00 Build 0)  -->
<svg version="1.1" id="_x32_" xmlns="http://www.w3.org/2000/svg" xmlns:xlink="http://www.w3.org/1999/xlink" x="0px" y="0px"
	 viewBox="0 0 512 512" style="enable-background:new 0 0 512 512;" xml:space="preserve">
<style type="text/css">
	.st0{fill:#E81C52;}
</style>
<g>
	<path class="st0" d="M507.3,126.7l-369-29.2l-5.6-31.9C127.6,36.6,104.4,14,75.2,9.7L9.7,0l-5,33.7l65.5,9.7
		c14.7,2.2,26.3,13.5,28.9,28.1l53,300.1c5,28.2,29.4,48.7,58,48.7h229.7l6.8-34.1H210.1c-12,0-22.4-8.7-24.5-20.5l-7.4-42h283.6
		L507.3,126.7z"/>
	<path class="st0" d="M223.1,438.7c-20.3,0-36.7,16.4-36.7,36.7c0,20.3,16.4,36.7,36.7,36.7c20.3,0,36.7-16.4,36.7-36.7
		C259.8,455.1,243.4,438.7,223.1,438.7z"/>
	<path class="st0" d="M386.1,438.7c-20.3,0-36.7,16.4-36.7,36.7c0,20.3,16.4,36.7,36.7,36.7c20.3,0,36.7-16.4,36.7-36.7
		C422.7,455.1,406.3,438.7,386.1,438.7z"/>
</g>
</svg>
