<?xml version="1.0" encoding="utf-8"?>
<!-- Generator: Adobe Illustrator 25.3.1, SVG Export Plug-In . SVG Version: 6.00 Build 0)  -->
<svg version="1.1" id="_x32_" xmlns="http://www.w3.org/2000/svg" xmlns:xlink="http://www.w3.org/1999/xlink" x="0px" y="0px"
	 viewBox="0 0 512 512" style="enable-background:new 0 0 512 512;" xml:space="preserve">
<style type="text/css">
	.st0{fill:#E81C52;}
</style>
<g>
	<path class="st0" d="M156.2,109.6c0.8,18.2,8.7,35.6,22,48.1l41.7,39.1c9,8.4,15.2,19.3,18.2,31.2c0,9.8,8,17.8,17.8,17.8
		c9.8,0,17.8-8,17.8-17.8c3-11.8,9.2-22.7,18.2-31.2l41.7-39.1c13.3-12.5,21.2-29.9,22-48.1H156.2z"/>
	<path class="st0" d="M256,270.6c-6.4,0-11.7,5.2-11.7,11.7c0,6.4,5.2,11.7,11.7,11.7c6.5,0,11.7-5.2,11.7-11.7
		C267.7,275.8,262.5,270.6,256,270.6z"/>
	<path class="st0" d="M256,333.7c-6.4,0-11.7,5.2-11.7,11.7c0,6.4,5.2,11.7,11.7,11.7c6.5,0,11.7-5.2,11.7-11.7
		C267.7,339,262.5,333.7,256,333.7z"/>
	<path class="st0" d="M413.8,0H98.2v63.1h10.6c0,0.6-0.1,1.2-0.1,1.8v46c0,32.5,13.4,63.5,37.1,85.7l41.7,39.1
		c3.4,3.2,5.3,7.5,5.3,12.2v18.9c0,4.6-1.9,9-5.3,12.2l-41.7,39.1c-23.7,22.2-37.1,53.2-37.1,85.7v45H98.2V512h315.6v-63.1h-10.5
		v-45c0-32.5-13.4-63.5-37.1-85.7L324.4,279c-3.4-3.2-5.3-7.6-5.3-12.2V248c0-4.6,1.9-9,5.3-12.2l41.8-39.1
		c23.7-22.2,37.1-53.2,37.1-85.7V65c0-0.6-0.1-1.2-0.1-1.8h10.6L413.8,0L413.8,0z M292.8,248v18.9c0,11.9,4.9,23.2,13.6,31.4
		l41.7,39.1c18.4,17.2,28.8,41.3,28.8,66.6v45h-40.4l-64.7-64.7c-8.7-8.7-22.9-8.7-31.6,0l-64.7,64.7H135v-45
		c0-25.2,10.4-49.3,28.8-66.6l41.7-39.2c8.7-8.1,13.6-19.5,13.6-31.4V248c0-11.9-4.9-23.2-13.6-31.4l-41.7-39.1
		c-18.4-17.2-28.8-41.3-28.8-66.5V65c0-0.6,0.1-1.2,0.2-1.8h241.6c0.1,0.6,0.2,1.2,0.2,1.8v46c0,25.2-10.4,49.3-28.8,66.5
		l-41.7,39.1C297.7,224.7,292.8,236.1,292.8,248z"/>
</g>
</svg>
