<?xml version="1.0" encoding="utf-8"?>
<!-- Generator: Adobe Illustrator 25.3.1, SVG Export Plug-In . SVG Version: 6.00 Build 0)  -->
<svg version="1.1" id="_x32_" xmlns="http://www.w3.org/2000/svg" xmlns:xlink="http://www.w3.org/1999/xlink" x="0px" y="0px"
	 viewBox="0 0 512 512" style="enable-background:new 0 0 512 512;" xml:space="preserve">
<style type="text/css">
	.st0{fill:#E81C52;}
</style>
<g>
	<path class="st0" d="M163.3,123.4V6.9L29.2,141h116.6C158.3,141,163.3,136.1,163.3,123.4z"/>
	<path class="st0" d="M485.3,180.2l-30.9-30.9c-5.4-5.4-14.1-5.4-19.5,0l-20.1,20.1l50.5,50.5l20.1-20.1
		C490.7,194.3,490.7,185.6,485.3,180.2z"/>
	<path class="st0" d="M192.6,457.3c-4.3,1.1-8.8-0.2-11.9-3.3s-4.4-7.7-3.3-11.9l29-114.2l158.5-158.5l12.7-12.7l28.1-28.1l4.3-4.2
		c1.5-1.5,3.2-2.7,4.8-3.9V22.7C414.7,10.2,404.5,0,392,0H189.2v139.1c0,15.3-12.5,27.8-27.8,27.8H22.6v322.4
		c0,12.5,10.2,22.7,22.7,22.7H392c12.5,0,22.7-10.2,22.7-22.7v-169L306.8,428.2L192.6,457.3z"/>
	<path class="st0" d="M238.3,345.9l-17.2,67.6l67.6-17.2L456.1,229l-50.4-50.5L238.3,345.9z M269.9,357.4l-11.5-11.5l145.9-145.9
		l11.5,11.5L269.9,357.4z"/>
</g>
</svg>
