<?xml version="1.0" encoding="utf-8"?>
<!-- Generator: Adobe Illustrator 25.3.1, SVG Export Plug-In . SVG Version: 6.00 Build 0)  -->
<svg version="1.1" id="レイヤー_1" xmlns="http://www.w3.org/2000/svg" xmlns:xlink="http://www.w3.org/1999/xlink" x="0px"
	 y="0px" viewBox="0 0 140 81.2" style="enable-background:new 0 0 140 81.2;" xml:space="preserve">
<style type="text/css">
	.st0{fill:#FDFDFD;}
	.st1{fill:#59371E;}
	.st2{fill:#FFE8DD;}
	.st3{fill:#ECD0CA;}
	.st4{fill:#E8C2AC;}
	.st5{fill:#FBFBFB;}
	.st6{fill:#C19A7C;}
	.st7{fill:#E27A9A;}
	.st8{fill:#E81C52;}
	.st9{fill:#F2DDD6;}
	.st10{fill:#E5E5E6;}
	.st11{fill:#AF8162;}
	.st12{fill:#B58D71;}
	.st13{fill:none;stroke:#AA7F63;stroke-width:0.25;stroke-miterlimit:10;}
	.st14{font-family:'HiraKakuProN-W3-83pv-RKSJ-H';}
	.st15{font-size:7.36px;}
	.st16{letter-spacing:1;}
</style>
<polygon class="st0" points="140,81.2 0,81.2 0,31.8 0,0 140,0 "/>
<path class="st1" d="M24.1,29l0.5-1c0,0,2.6-0.8,3.2-2c1-2,2.2-3,0.9-6.2s-2.9-2.8-5.6-2.6s-4.1,2.6-4.3,4.8
	c-0.2,2.3-0.3,3.5,2.1,4.7c1.7,0.9,0.9-0.3,2.1,0.5s0.3,1,0.3,1L24.1,29z"/>
<path class="st2" d="M19.8,23.3c0.3,1.2,0.7,2.3,1.2,3.4c0.6,1.4,2.6,2.2,3.3,1.9s2.5-1.2,2.7-2.7c0.2-1.1,0.4-2.1,0.8-3.1
	c0.2-0.7-2.6-3.3-4.3-3.3c-0.7,0.1-1.4,0.4-1.9,0.9C20.6,21.1,20,22.1,19.8,23.3z"/>
<path class="st1" d="M20.9,19.5c0.3,1,0.7,1.8,1.4,2.6c1,0.7,1.4,1,1.4,1c0.6,0.2,1.2,0.4,1.8,0.6c0.8,0.1,1.2,0.1,1.5,0.1
	s0,0,0.5,0h1.4c-0.3-1.5-0.9-3-1.7-4.3C26.1,18.1,20.9,19.5,20.9,19.5z"/>
<path class="st1" d="M21.6,19.8c0,1.1-0.2,2.2-0.6,3.3c-0.5,0.6-1.1,1-1.8,1.4l1.5-4.6L21.6,19.8z"/>
<path class="st3" d="M17.4,43.6c0,0-1.1-11.3-0.9-12.6c0.3-2,1.1-1.5,1.3-1.4c1.4,0.6,11.5,0.3,11.5,0.3c0.4-0.1,0.9-0.2,1.3-0.2
	c1.1,0,1.4,2.4,1.3,3.6s-0.8,10.4-0.8,10.4L17.4,43.6z"/>
<path class="st2" d="M22.7,28.4c0,0,0.6,1.4-0.6,1.6c-0.3,0.1-0.7,0.1-1,0.1c-1.2,0.1,0.6,1.5,0.6,1.5l2.8,1
	c0.6-0.2,1.2-0.5,1.7-0.9c0.3-0.5,0.5-1.1,0.5-1.7l-1.4-0.2v-2.3"/>
<polygon class="st4" points="10.9,40.1 36.2,40.1 34.5,47.7 12.6,47.7 "/>
<rect x="12.8" y="48.5" class="st4" width="21.7" height="26"/>
<path class="st5" d="M99.3,76.5c0,0,2.4-21,4.4-21.2s13.8,0,14.3,0.7s4.1,21,4.1,21L99.3,76.5z"/>
<path class="st3" d="M57.5,75.2c0,0,2.4-20.6,4.4-20.8s13.8,0,14.3,0.7s4.2,23.2,4.2,23.2L57.5,75.2z"/>
<path class="st6" d="M68.2,43.5c0,0,4.9,0.5,4.8,4c-0.1,2.8-0.6,5.4,0.5,7.5s-2,0.4-2.1,1.5s-1.1,0.9-2.4,0.9
	c-0.9-0.1-1.8-0.4-2.6-0.9c0,0-1.2,0.6-1.9-1.4c-0.5-1.1-0.8-2.3-1-3.5c-0.5-2.1-0.4-4.2,0.5-6.2C64.8,43.8,68.2,43.5,68.2,43.5z"/>
<path class="st7" d="M78.7,76.6c0,0,2.4-21,4.4-21.2s13.8,0,14.3,0.7s4.2,21,4.2,21L78.7,76.6z"/>
<path class="st3" d="M36.3,75.6c0,0,2.4-21,4.4-21.2s13.8,0,14.3,0.7s4.1,21,4.1,21L36.3,75.6z"/>
<path class="st1" d="M47.1,44.1c0,0-4.1,0-4.7,3.5s0.6,7.1-0.5,9.8s1-0.4,1.1,1.1s1.6,0.6,3,0.6s3.5-0.3,3.5-0.3l3.2-1.6
	c0.7-2.6-1.4-0.6-0.9-3.6s0.7-6.4-0.8-7.9C49.8,44.8,48.5,44.2,47.1,44.1z"/>
<path class="st7" d="M110,81.1c0,0,2.8-12.4,4.8-12.6s13.8,0,14.3,0.4s4.6,12.2,4.6,12.2H110z"/>
<path class="st8" d="M67.9,81.1c0,0,3-12.9,5-13.1s13.8,0,14.3,0.4s5.5,12.7,5.5,12.7L67.9,81.1z"/>
<path class="st3" d="M89.5,81.2c0,0,2.7-12.5,4.8-12.6s13.8,0,14.3,0.4s4.4,12.1,4.4,12.1L89.5,81.2z"/>
<path class="st1" d="M100.6,57.6c0,0,3.9,0,4.5,3.4s-0.6,7,0.5,9.7s-1.8-1.1-1.9,0.4s0.6,1.5-0.6,1.5s-2.8-1.5-2.8-1.5s-2,2.5-2.6,0
	s-0.8-1.7-1.3-4.7s-1-6.5,0.5-8C97.8,57.6,99.2,57.2,100.6,57.6z"/>
<path class="st7" d="M47.4,81.2c0,0,2.4-13,4.4-13.1s13.8,0,14.3,0.4s4.4,12.7,4.4,12.7L47.4,81.2z"/>
<path class="st7" d="M11.2,79.4c0,0,2.4-22.2,4.4-22.5s13.8,0,14.3,0.7S34,79.9,34,79.9L11.2,79.4z"/>
<path class="st6" d="M22.4,46.2c0,0-2.9-1.3-4.8,2.7c-1.2,2.5,0.6,5.4-0.5,7.5s-0.1,4,0,5.2s1.8-0.4,3.1-0.4s7-0.3,7-0.3
	s-2.4-2.2-1.7-4.2s0.9-1.3,1.4-3.6s1.1-5-0.5-6.2C25.2,46.1,23.8,45.9,22.4,46.2z"/>
<path class="st8" d="M25,81.1c0,0,3.1-13.2,5.1-13.4s13.8,0,14.3,0.4s4.6,13,4.6,13L25,81.1z"/>
<path class="st3" d="M5.2,81.2c0,0,0.8-13.7,2.8-13.8s13.8,0,14.3,0.4s4.5,13.4,4.5,13.4L5.2,81.2z"/>
<path class="st1" d="M15,57.6c0,0-4.1,0-4.8,3.4c-0.6,3.4,0.6,7-0.5,9.7s1.7-1.3,1.8,0.2s0.7,0.6,2,0.6c0.9,0,1.8-0.1,2.7-0.3
	c0,0,1.1,2.6,1.8,0s0.9-1.7,1.3-4.7s1.1-6.5-0.5-8C17.8,57.6,16.4,57.3,15,57.6z"/>
<rect x="38.7" y="9" class="st9" width="87.1" height="31.2"/>
<rect x="37.6" y="8.3" class="st4" width="89.4" height="1.9"/>
<rect x="37.6" y="39.2" class="st4" width="89.4" height="2"/>
<polygon class="st5" points="22.4,29.7 20.2,30 24.4,37.5 27.8,30.1 25.2,29.8 24.4,32.7 "/>
<polygon class="st10" points="22.4,29.4 24.4,32.7 21.2,32 "/>
<polygon class="st10" points="25.3,29.6 24.4,32.7 27,31.8 "/>
<path class="st1" d="M23.1,17.8c-0.4-0.7-0.4-1.5-0.2-2.3c0.5-2.1,3.7-1.8,3.9-0.6s0.6,2.2-0.7,2.8C25.1,18.1,24.1,18.1,23.1,17.8z"
	/>
<rect x="87.6" y="52.4" class="st2" width="4.2" height="3.4"/>
<path class="st11" d="M89.2,43.8c0,0,4,0,4.5,3.5s1.2,2.2,0.5,5c-0.7,2.6-0.8,1.4-2,2.3c-1.5,1.1-0.9,0.3-2.2,0.3s-1.7,0.4-1.7,0.4
	c-1-0.3-1.8-0.8-2.5-1.6c-1.2-1.3-0.6,0.2-1.1-2.8s-0.9-4.8,0.6-6.3C86.4,43.8,87.8,43.5,89.2,43.8z"/>
<rect x="108.2" y="52.2" class="st2" width="4.2" height="3.4"/>
<path class="st6" d="M110.4,44.3c0,0,3.9,0,4.4,2.7s1,2.7-0.1,4.8c-1.3,2.7-3.1,2-3.2,3.2s0.3-0.7-1-0.7S110,55,110,55
	c-1.1,0.4-2.3,0-2.9-1c-0.9-1.2-1-0.2-1.5-2.5s-0.3-4.8,1.2-6C107.9,44.8,109.1,44.4,110.4,44.3z"/>
<path class="st12" d="M109,46.6c0,0,2.5-0.9,3.6,0.6c1.5,2.5,2.1,5.5,1.5,8.3c-0.8,3-2.2,4.7-1.4,7.1c0.5,1.4,0.1,3-0.9,4.1l-2,0.4
	c0,0,1.8-0.9,1.4-2.6s-2.4-1.8-2.3-4.5s0.7-4,0.6-6S106,46.7,109,46.6z"/>
<path class="st6" d="M32.3,60.3c-0.5,2.3,0.6,4.7-0.4,6.5s-2,3.5-1.9,4.5s1.8,6,3,6s8.3-0.1,8.3-0.1s-1.1-6.3-0.4-8s-0.5-3.3,0-5.2
	s0.8-3.1,0.1-4.7c-0.4-0.8-1-2.3-4.5-2.4C33,56.8,32.6,59.1,32.3,60.3z"/>
<path class="st13" d="M35.2,59.6c0,0-0.3,1.3-0.5,2.4c-0.2,1.2-0.1,2.5,0.5,3.6c0.6,1.1-1.2,3.7-1.2,5.5c0.1,1.3,0.3,2.6,0.6,3.9
	c0.1,1.1,1.5,2.1,1.5,2.1"/>
<path class="st13" d="M37.3,60c0,1.3,0.1,2.7,0.3,4c0.4,2.3-0.9,3.6-0.8,5.8s-0.3,3.5,0.5,4.8c0.6,0.7,1.1,1.5,1.5,2.4"/>
<path class="st13" d="M33.6,77c0,0-2.4-3.8-2.2-5.9s2.2-4.1,2.1-5.4s-0.9-4.3-0.6-5.3l0.3-1"/>
<path class="st13" d="M39.6,60.7c0,0,0,2.4,0,4.5s-1.2,3.2-1,5.4s1.1,5.6,1.8,6.5"/>
<rect x="120" y="65.6" class="st2" width="4.2" height="3.4"/>
<path class="st11" d="M121.9,56.9c0,0,4,0,4.6,3.6s1.2,2.2,0.5,5.1c-0.7,2.7-0.8,1.5-2,2.4c-1.5,1.1-1,0.3-2.3,0.3s-1.7,0.4-1.7,0.4
	c-1-0.3-1.9-0.8-2.5-1.6c-1.2-1.3-0.6,0.2-1.1-2.9s-0.9-4.9,0.6-6.4C119.1,56.9,120.5,56.5,121.9,56.9z"/>
<rect x="56" y="65" class="st2" width="4.2" height="3.4"/>
<path class="st6" d="M57.8,55c0,0,4.1,0,4.7,2.9s1,3-0.1,5.2c-1.4,2.9-3.3,2.2-3.4,3.4s0.3-0.7-1-0.7s-0.6,0.8-0.6,0.8
	c-1.1,0.4-2.4,0-3.1-1.1c-1-1.3-1.1-0.2-1.6-2.7s-0.3-5.2,1.3-6.5C55.1,55.6,56.4,55.1,57.8,55z"/>
<path class="st12" d="M56.3,57.8c0,0,2.7-1,3.9,0.6c1.7,2.6,2.2,5.8,1.5,8.9c-0.8,3.3-2.4,5-1.5,7.6c0.5,1.5,0.1,3.2-1,4.3l-2.2,0.4
	c0,0,2-1,1.5-2.8s-2.5-1.9-2.4-4.8s0.8-4.3,0.6-6.4S53.1,57.9,56.3,57.8z"/>
<path class="st11" d="M79.2,57c0,0-4.1,0-4.7,3.5s0.6,7.1-0.5,9.9s1-0.4,1.1,1.1s1.7,0.6,3,0.6s4.2,0.2,4.2,0.2l3-0.8
	c1.6-2.5-1.8-2-1.4-4.9s0.7-6.5-0.8-8C81.9,57.7,80.6,57.1,79.2,57z"/>
<text transform="matrix(1 0 0 1 53.01 28)" class="st6 st14 st15 st16">Presentation</text>
<path class="st2" d="M36.4,31c0.9-0.5,1.8-0.9,2.7-1.3c1.3-0.5,0.6-2.3-1.5-1.1s-2.2,1.5-2.2,1.5s0.1-1.2-0.5-1s-0.3,1.4-0.1,2
	S36.4,31,36.4,31z"/>
<path class="st2" d="M35.2,30.5l-3,7.9H35c0,0,0.5-6.4,1.7-7.6"/>
<polyline class="st3" points="34.5,40 36.5,33.9 33.5,32.9 31.2,37.5 28.3,40 "/>
</svg>
