<?xml version="1.0" encoding="utf-8"?>
<!-- Generator: Adobe Illustrator 25.3.1, SVG Export Plug-In . SVG Version: 6.00 Build 0)  -->
<svg version="1.1" id="レイヤー_1" xmlns="http://www.w3.org/2000/svg" xmlns:xlink="http://www.w3.org/1999/xlink" x="0px"
	 y="0px" viewBox="0 0 140.4 80.5" style="enable-background:new 0 0 140.4 80.5;" xml:space="preserve">
<style type="text/css">
	.st0{fill:#FFFFFF;}
	.st1{fill:#EADCD3;}
	.st2{fill:#ECD0CA;}
	.st3{fill:#C19A7C;}
	.st4{fill:#DABFA7;}
	.st5{fill:none;stroke:#E8DAD2;stroke-width:0.2;stroke-miterlimit:10;}
	.st6{fill:#F1E8E1;}
	.st7{fill:#E81C52;}
	.st8{fill:#B19C89;}
	.st9{fill:#F4EEEA;}
	.st10{fill:none;}
	.st11{fill:none;stroke:#E8DAD2;stroke-width:0.5;stroke-miterlimit:10;}
	.st12{fill:none;stroke:#D3A888;stroke-width:0.5;stroke-miterlimit:10;}
	.st13{fill:#CEA586;}
	.st14{fill:#EA6896;}
	.st15{fill:#EF8FAD;}
	.st16{fill:#BC264D;}
</style>
<path class="st0" d="M86.2,30.8l2.7-7.9c1.2-0.3,2.5,0.1,3.3,1l-3,7.9c0,0.6,0.3,1.1,0.8,1.5c0.7,0.6,1.8,3.2-0.1,4.1
	s-2.3,1-3.7,0.5s-4.1-2-3.4-4.1S85.1,30.7,86.2,30.8z"/>
<path class="st1" d="M127.2,52.3c0.8,0.6,1.7,1.2,2.6,1.7"/>
<polygon class="st2" points="140.4,80.4 0,80.4 0,31.7 0,0.2 140.4,0.2 "/>
<path class="st0" d="M35.7,2.1c0,0-0.5,4.2-3.9,4.5c2.4,0.9,4,3,4.2,5.6c0,0-0.1-5.1,3.3-5.7C39.4,6.4,36.7,5.8,35.7,2.1z"/>
<path class="st0" d="M25.3,26c0,0-0.3,2.3-2.1,2.4c1.3,0.5,2.2,1.6,2.3,3c0,0,0-2.8,1.8-3.1C26.2,28,25.4,27.1,25.3,26z"/>
<path class="st3" d="M10.9,4.7c0,0-0.3,2.8-2.5,2.9c1.6,0.6,2.6,2,2.8,3.7c0,0,0-3.4,2.2-3.8C12.1,7.1,11.2,6,10.9,4.7z"/>
<polygon class="st0" points="101.3,5 101.3,47.2 134.6,47.2 134.6,5.5 "/>
<polygon class="st0" points="101.1,49.3 101.1,80.3 134.4,80.3 134.4,49.7 "/>
<path class="st4" d="M126,23.2c0,4.4-3.5,7.9-7.9,7.9c-4.4,0-7.9-3.5-7.9-7.9c0-4.4,3.5-7.9,7.9-7.9c1.4,0,2.8,0.4,4,1.1l-4,6.8
	l6.8-4C125.6,20.4,126,21.8,126,23.2z"/>
<rect x="104" y="9.1" class="st1" width="1.2" height="1.9"/>
<rect x="105.5" y="9.1" class="st1" width="1.2" height="1.9"/>
<rect x="107" y="9.1" class="st1" width="1.2" height="1.9"/>
<rect x="108.6" y="9.1" class="st1" width="1.2" height="1.9"/>
<rect x="110.1" y="9.1" class="st1" width="1.2" height="1.9"/>
<rect x="111.7" y="9.1" class="st1" width="1.2" height="1.9"/>
<rect x="113.2" y="9.1" class="st1" width="1.2" height="1.9"/>
<rect x="114.7" y="9.1" class="st1" width="1.2" height="1.9"/>
<polyline class="st5" points="112.1,20.9 110,17.1 104.4,17.1 "/>
<polyline class="st5" points="123.1,19 126,16.1 132.5,16.1 "/>
<rect x="104.5" y="15.9" class="st6" width="0.6" height="0.8"/>
<rect x="105.2" y="15.9" class="st6" width="0.6" height="0.8"/>
<rect x="105.9" y="15.9" class="st6" width="0.6" height="0.8"/>
<rect x="106.6" y="15.9" class="st6" width="0.6" height="0.8"/>
<rect x="107.3" y="15.9" class="st6" width="0.6" height="0.8"/>
<rect x="108" y="15.9" class="st6" width="0.6" height="0.8"/>
<rect x="108.7" y="15.9" class="st6" width="0.6" height="0.8"/>
<rect x="109.4" y="15.9" class="st6" width="0.6" height="0.8"/>
<rect x="126.8" y="14.7" class="st6" width="0.6" height="0.8"/>
<rect x="127.5" y="14.7" class="st6" width="0.6" height="0.8"/>
<rect x="128.2" y="14.7" class="st6" width="0.6" height="0.8"/>
<rect x="128.9" y="14.7" class="st6" width="0.6" height="0.8"/>
<rect x="129.6" y="14.7" class="st6" width="0.6" height="0.8"/>
<rect x="130.3" y="14.7" class="st6" width="0.6" height="0.8"/>
<rect x="131" y="14.7" class="st6" width="0.6" height="0.8"/>
<rect x="131.7" y="14.7" class="st6" width="0.6" height="0.8"/>
<path class="st0" d="M12.6,67.1c0,0-0.4,3.3-3,3.5c1.9,0.7,3.2,2.4,3.3,4.4c0,0,0-4,2.6-4.5C15.5,70.5,13.4,70,12.6,67.1z"/>
<path class="st1" d="M52.6,63.8c0,0-0.5,4.2-3.9,4.5c2.4,0.9,4,3,4.2,5.6c0,0,0-5.1,3.3-5.7C56.3,68.1,53.6,67.5,52.6,63.8z"/>
<path class="st7" d="M11.4,25.1c0,0-0.4,2.8-2.5,2.9c1.6,0.6,2.6,2,2.8,3.7c0,0,0-3.4,2.2-3.8C12.5,27.5,11.6,26.4,11.4,25.1z"/>
<rect x="101.3" y="5" class="st8" width="33.4" height="1.6"/>
<rect x="101.1" y="49.4" class="st8" width="33.4" height="1.6"/>
<polygon class="st0" points="62.8,29 62.8,73.8 96,73.8 96,29.5 "/>
<rect x="62.7" y="29" class="st8" width="33.4" height="1.6"/>
<polygon class="st0" points="62.8,75.3 62.8,80.5 96,80.5 96,75.4 "/>
<rect x="62.7" y="75.4" class="st8" width="33.4" height="1.6"/>
<polygon class="st0" points="62.3,0 62.3,26.9 95.6,26.9 95.5,0.2 "/>
<rect x="119.9" y="40.7" class="st3" width="8.1" height="4"/>
<rect x="119.9" y="36.8" class="st1" width="8.1" height="4"/>
<rect x="119.9" y="32.8" class="st9" width="8.1" height="4"/>
<rect x="107.2" y="43.5" class="st3" width="8.1" height="1.1"/>
<rect x="107.2" y="39.1" class="st1" width="8.1" height="4.5"/>
<rect x="107.2" y="36.3" class="st9" width="8.1" height="2.8"/>
<line class="st10" x1="115.8" y1="43.3" x2="119.5" y2="41"/>
<line class="st10" x1="115.7" y1="39.1" x2="119.4" y2="37"/>
<line class="st10" x1="115.3" y1="36.3" x2="119.9" y2="32.8"/>
<path class="st0" d="M50.1,18.8c0,0-0.5,4.2-3.9,4.5c2.4,0.9,4,3.1,4.2,5.6c0,0,0-5.1,3.3-5.7C53.8,23.1,51.1,22.5,50.1,18.8z"/>
<rect x="69.9" y="10.6" class="st1" width="1.2" height="12.3"/>
<rect x="71.9" y="12.8" class="st1" width="1.2" height="10.1"/>
<rect x="74" y="15.9" class="st1" width="1.2" height="7"/>
<rect x="76.3" y="13.1" class="st1" width="1.2" height="9.8"/>
<rect x="78.4" y="14.2" class="st1" width="1.2" height="8.7"/>
<rect x="80.7" y="12.8" class="st1" width="1.2" height="10.1"/>
<rect x="82.8" y="15.9" class="st1" width="1.2" height="7"/>
<rect x="85.1" y="13.1" class="st1" width="1.2" height="9.8"/>
<rect x="87.2" y="14.2" class="st1" width="1.2" height="8.7"/>
<polyline class="st11" points="67.8,9.7 67.9,24.1 91.4,24 "/>
<rect x="123.6" y="54.6" class="st6" width="8.6" height="2.6"/>
<rect x="123.5" y="58.6" class="st6" width="8.6" height="2.6"/>
<rect x="103.9" y="62.7" class="st6" width="28" height="2.6"/>
<rect x="103.8" y="66.8" class="st6" width="28" height="2.6"/>
<rect x="103.8" y="71.1" class="st6" width="28" height="2.6"/>
<rect x="103.6" y="75.2" class="st6" width="28" height="2.6"/>
<rect x="103.9" y="54.7" class="st4" width="18.8" height="6.5"/>
<rect x="84.7" y="33.2" class="st6" width="8.6" height="2.6"/>
<rect x="84.6" y="37.3" class="st6" width="8.6" height="2.6"/>
<rect x="65" y="41.4" class="st6" width="28" height="2.6"/>
<rect x="64.9" y="45.5" class="st6" width="28" height="2.6"/>
<rect x="64.9" y="49.8" class="st6" width="28" height="2.6"/>
<rect x="64.7" y="53.9" class="st6" width="28" height="2.6"/>
<rect x="65" y="33.4" class="st4" width="18.8" height="6.5"/>
<rect x="84.4" y="58.5" class="st6" width="8.6" height="2.6"/>
<rect x="84.4" y="62.6" class="st6" width="8.6" height="2.6"/>
<rect x="64.8" y="66.6" class="st6" width="28" height="2.6"/>
<rect x="64.7" y="58.6" class="st4" width="18.8" height="6.5"/>
<rect x="65.6" y="1" class="st6" width="28" height="2.6"/>
<rect x="65.4" y="5.1" class="st6" width="28" height="2.6"/>
<path class="st7" d="M46.8,38c0,0-0.2,2-1.8,2.1c1.1,0.4,1.9,1.5,2,2.7c0,0,0-2.5,1.6-2.7C47.7,39.8,47,39,46.8,38z"/>
<path class="st7" d="M21.6,8.2c0,0-0.2,2-1.8,2.1c1.1,0.4,1.9,1.5,2,2.7c0,0,0-2.4,1.6-2.7C22.4,10,21.8,9.2,21.6,8.2z"/>
<path class="st0" d="M7.8,50.1c0,0-0.5,4.2-3.8,4.5c2.4,0.9,4,3.1,4.2,5.6c0,0,0-5.1,3.4-5.7C11.5,54.5,8.8,53.9,7.8,50.1z"/>
<path class="st7" d="M44,5.1c0,0-0.4,2.7-2.5,2.9c1.5,0.5,2.6,1.9,2.7,3.5c0,0,0-3.2,2.1-3.6C45.1,7.5,44.2,6.4,44,5.1z"/>
<polyline class="st12" points="33.3,29.6 27.3,18.7 8.3,18.7 "/>
<rect x="8.5" y="15.2" class="st13" width="1.6" height="2.3"/>
<rect x="10.5" y="15.2" class="st13" width="1.6" height="2.3"/>
<rect x="12.5" y="15.2" class="st13" width="1.6" height="2.3"/>
<rect x="14.5" y="15.2" class="st13" width="1.6" height="2.3"/>
<rect x="16.5" y="15.2" class="st13" width="1.6" height="2.3"/>
<rect x="18.6" y="15.2" class="st13" width="1.6" height="2.3"/>
<rect x="20.5" y="15.2" class="st13" width="1.6" height="2.3"/>
<rect x="22.6" y="15.2" class="st13" width="1.6" height="2.3"/>
<path class="st14" d="M40.2,57.5l-2.3,12.7c-5.6,2.8-12.4,1.5-16.7-3L23.4,55C23.4,55,27.1,52.5,40.2,57.5z"/>
<path class="st15" d="M24.1,55c0,0,6.9,7.6,15.2,2.7l3.5-18.2c0,0-8.8,5.2-15.5-2.4L24.1,55z"/>
<ellipse transform="matrix(0.1754 -0.9845 0.9845 0.1754 -8.3084 65.9555)" class="st14" cx="35.2" cy="37.9" rx="3.5" ry="7.9"/>
<path class="st7" d="M29.8,39.1c0,0,1.6-13.1,2.7-15.4c1.1-2.3,9.1-6.6,10.9-5.1l-4.3,22.9C39.1,41.5,31.9,42.1,29.8,39.1z"/>
<path class="st16" d="M33.6,25.2c0,0,7.2-2.6,8.7-5s-0.7-1.8-2.1-1.4S29.6,23.8,33.6,25.2z"/>
<polyline class="st12" points="34.3,66.5 42.7,58.1 61.4,58.1 "/>
<rect x="45.5" y="54.9" class="st13" width="1.6" height="2.3"/>
<rect x="47.5" y="54.9" class="st13" width="1.6" height="2.3"/>
<rect x="49.5" y="54.9" class="st13" width="1.6" height="2.3"/>
<rect x="51.5" y="54.9" class="st13" width="1.6" height="2.3"/>
<rect x="53.6" y="54.9" class="st13" width="1.6" height="2.3"/>
<rect x="55.6" y="54.9" class="st13" width="1.6" height="2.3"/>
<rect x="57.6" y="54.9" class="st13" width="1.6" height="2.3"/>
<rect x="59.6" y="54.9" class="st13" width="1.6" height="2.3"/>
<polyline class="st12" points="32.1,50.1 22.4,38.5 4,38.3 "/>
<rect x="4.4" y="35.4" class="st13" width="1.6" height="2.3"/>
<rect x="6.4" y="35.4" class="st13" width="1.6" height="2.3"/>
<rect x="8.4" y="35.4" class="st13" width="1.6" height="2.3"/>
<rect x="10.4" y="35.4" class="st13" width="1.6" height="2.3"/>
<rect x="12.4" y="35.4" class="st13" width="1.6" height="2.3"/>
<rect x="14.4" y="35.4" class="st13" width="1.6" height="2.3"/>
<rect x="16.4" y="35.4" class="st13" width="1.6" height="2.3"/>
<rect x="18.4" y="35.4" class="st13" width="1.6" height="2.3"/>
<path class="st0" d="M50.9,63.3c0,0-0.4,3.3-3,3.5c1.9,0.7,3.2,2.4,3.3,4.4c0,0,0-4,2.6-4.5C53.7,66.7,51.6,66.2,50.9,63.3z"/>
</svg>
