<?xml version="1.0" encoding="utf-8"?>
<!-- Generator: Adobe Illustrator 25.3.1, SVG Export Plug-In . SVG Version: 6.00 Build 0)  -->
<svg version="1.1" id="レイヤー_1" xmlns="http://www.w3.org/2000/svg" xmlns:xlink="http://www.w3.org/1999/xlink" x="0px"
	 y="0px" viewBox="0 0 347.8 162.2" style="enable-background:new 0 0 347.8 162.2;" xml:space="preserve">
<style type="text/css">
	.st0{fill:#D53755;}
	.st1{fill:#F2DDD6;}
	.st2{fill:#E8C2AC;}
	.st3{fill:none;stroke:#FFFFFF;stroke-width:0.85;stroke-miterlimit:10;}
	.st4{fill:#E86275;}
	.st5{fill:#E75263;}
	.st6{fill:none;stroke:#D53755;stroke-width:0.25;stroke-miterlimit:10;}
	.st7{fill:#D53755;stroke:#D53755;stroke-width:4.000000e-02;stroke-miterlimit:10;}
	.st8{fill:#FFFFFF;}
	.st9{fill:#DFB69A;}
	.st10{fill:#100F13;}
	.st11{fill:#0C0C11;}
	.st12{fill:#B44E34;}
	.st13{fill:#060304;}
	.st14{fill:#201E1F;}
	.st15{fill:#643E14;}
	.st16{fill:#DAB398;}
	.st17{fill:#121115;}
	.st18{fill:#ECD0CA;}
	.st19{fill:#050307;}
	.st20{fill:none;stroke:#D53755;stroke-width:0.28;stroke-miterlimit:10;}
	.st21{fill:none;stroke:#D53755;stroke-width:0.57;stroke-miterlimit:10;}
</style>
<g id="レイヤー_2_1_">
	<g id="レイヤー_1-2">
		<circle class="st0" cx="346" cy="1.8" r="1.8"/>
		<rect y="85.1" class="st1" width="43.6" height="36.7"/>
		<polygon class="st1" points="95.6,95.7 144.1,85.5 144.1,110.4 95.6,110.4 		"/>
		<polygon class="st1" points="47.2,85.3 93.3,95.6 93.3,108.9 47.2,108.9 		"/>
		<polygon class="st2" points="95.5,95.7 144.1,97.6 144.1,85.5 95.5,109.7 		"/>
		<polygon class="st1" points="147.8,99.4 194.3,86.9 194.3,108.6 147.8,108.6 		"/>
		<polygon class="st0" points="197.8,101.9 242.4,100.2 242.4,121.5 197.8,121.5 		"/>
		<polygon class="st1" points="197.8,83.3 242.4,95.1 242.4,101.4 197.8,102.7 		"/>
		<path class="st3" d="M265.2,85.1c-1.6,1.8-2.1-0.6-2.1-0.6"/>
		<polygon class="st1" points="302.3,85.5 316.1,92.6 347,96.2 347,107.4 302.3,107.4 		"/>
		
			<rect x="313.9" y="70.6" transform="matrix(0.9817 -0.1903 0.1903 0.9817 -8.5692 62.6639)" class="st0" width="16.2" height="10.7"/>
		<path class="st4" d="M313.6,73.8l16-3l0,0c0.4,2.3-1.1,4.6-3.4,5l-7.5,1.4C316.3,77.6,314.1,76.1,313.6,73.8L313.6,73.8
			L313.6,73.8z"/>
		<path class="st0" d="M332.4,75.5c1-0.3,2-0.5,3-0.6c0.1,0.3,0.1,0.6,0,0.9l0.2,0.3c0,0,0.6,6.6,0.5,7.3c0.2,1.6,0.4,3.1,0.7,4.6
			c0,0.2,0,0.4,0,0.6l0.1,0.6c0,0-1.5,0.2-2,0.2l-0.9,0.1l0.1-0.8c0,0-0.5-5.5-0.5-6s-0.3-3.7-0.4-4.4s-0.3-1.7-0.3-1.7v-0.3
			L332.4,75.5z"/>
		<path class="st5" d="M335.2,75.9l0.1-0.1c0.1-0.3,0.1-0.6,0-0.9c-1,0.1-2,0.3-3,0.6l0.5,0.8L335.2,75.9"/>
		<path class="st0" d="M339.4,76.5c0.2,0.2,0.5,0.4,0.7,0.5c0.3,0.2,0.7,0.3,1,0.4l-0.2,0.2c0,0-4.2,5.2-4.7,5.7
			c-1,1.2-1.9,2.5-2.7,3.8c-0.1,0.2-0.2,0.3-0.4,0.5l-0.3,0.5c0,0-1.2-0.9-1.6-1.2l-0.7-0.6l0.6-0.5c0,0,3.5-4.3,3.8-4.6
			s2.4-2.9,2.8-3.4s0.9-1.5,0.9-1.5l0.2-0.3L339.4,76.5z"/>
		<path class="st5" d="M333,87.3l-1.9-1.7l-0.6,0.5l0.7,0.6c0.4,0.3,1.6,1.2,1.6,1.2l0.3-0.5L333,87.3"/>
		<circle class="st5" cx="339.1" cy="74.5" r="0.2"/>
		<circle class="st5" cx="341.1" cy="73.4" r="0.2"/>
		<circle class="st5" cx="340.6" cy="75.2" r="0.1"/>
		<circle class="st5" cx="342.8" cy="74.8" r="0.2"/>
		<circle class="st5" cx="341.9" cy="76.4" r="0.1"/>
		<circle class="st5" cx="340.2" cy="76.3" r="0.1"/>
		<circle class="st5" cx="345.6" cy="74.8" r="0.2"/>
		<circle class="st5" cx="343.6" cy="73.1" r="0.1"/>
		<circle class="st5" cx="340.1" cy="71.2" r="0.2"/>
		<path class="st0" d="M315.3,67.5c0,0,0,1.7-1.4,1.6c0.9,0.4,1.5,1.2,1.5,2.2c0,0,0.2-2.5,1.9-2.3C317.3,69,315.4,69,315.3,67.5z"
			/>
		<path class="st0" d="M332.5,68.2c0,0-0.2,1.8-1.5,1.6c0.8,0.5,1.2,1.5,1,2.5c0,0,0.5-2.6,2.1-2.3C334.2,70,332.4,69.8,332.5,68.2z
			"/>
		<path class="st0" d="M313.8,84.1c0,0,0.1,1.3-1,1.3c0.7,0.2,1.2,0.8,1.3,1.6c0,0,0-1.9,1.4-1.9C315.5,85.1,313.9,85.2,313.8,84.1z
			"/>
		<path class="st5" d="M336.6,88.6l-2.5,0.1l-0.1,0.8l1-0.1c0.5,0,2-0.2,2-0.2l-0.1-0.6L336.6,88.6"/>
		<polyline class="st6" points="47.1,125 47.1,130 194.2,130 194.2,125.4 		"/>
		<path class="st0" d="M78.4,140.2c-0.3,0.1-0.6,0.1-0.8,0.1c-0.8,0-1.5,0-2.3-0.1c-0.3-0.1-0.6-0.4-0.6-0.7c0-0.4-0.1-1.7-0.1-1.9
			v-0.9c0-0.8-0.2-0.9-0.4-1v-0.1h0.2c0.2,0,0.5,0.1,0.7,0.2c0.1,0.1,0.2,0.2,0.2,0.2c0,0.1-0.1,0.2-0.1,0.3c0,0.5-0.1,1.1-0.1,1.6
			c0.6-0.1,1.2-0.4,1.8-0.8c0.6-0.4,0.6-0.5,0.6-0.6s0-0.1,0-0.2h0.1c0.2,0,0.3,0.1,0.5,0.3c0.3,0.3,0.3,0.4,0.3,0.4s0,0.1-0.3,0.1
			c-0.1,0-0.1,0-0.2,0.1c-0.2,0.1-1,0.5-1.2,0.5c-0.5,0.2-1,0.3-1.5,0.4c0,0.1,0,0.2,0,0.3c0,0.3,0,0.7,0,1c0.1,0.4,0.8,0.4,1.1,0.4
			c0.5,0,0.9-0.1,1.4-0.1h0.4C78.3,139.7,78.5,139.9,78.4,140.2L78.4,140.2z"/>
		<path class="st0" d="M84.9,140.4l-0.4-0.1c-0.3-0.1-0.6-0.1-0.9-0.1c-0.8,0-1.5,0.1-2.3,0.3l-0.5,0.2c-0.2,0-0.3-0.1-0.4-0.2
			c-0.1-0.1-0.1-0.2-0.1-0.3h0.1c0.1,0.1,0.2,0.1,0.4,0.1c0.1,0,1-0.1,1.2-0.2l1.2-0.1c0.1-0.7,0.2-1.3,0.3-2
			c-0.4,0-0.8,0.1-1.1,0.1c-0.1,0.1-0.3,0.1-0.5,0.1c-0.1,0-0.4-0.2-0.5-0.6l0,0c0.1,0.1,0.3,0.2,0.5,0.2c0.5,0,0.9-0.1,1.4-0.2
			c0.1-0.1,0.1-0.1,0.2-0.1c0.2,0.1,0.4,0.2,0.5,0.4v0.1v0.1l-0.2,0.1c-0.1,0.4-0.2,1.2-0.4,1.8l1-0.1h0.2c0,0,0.1,0,0.3,0.1
			S85,140.4,84.9,140.4C85,140.5,85,140.4,84.9,140.4z"/>
		<path class="st0" d="M91.4,138.2h-0.2c-0.4,0-0.9-0.1-1.3-0.1c-0.6,0-2.2,0.1-2.3,0.1c-0.1,0-0.3,0.1-0.4,0.1
			c-0.3-0.2-0.5-0.5-0.5-0.8h0.1c0.2,0.2,0.4,0.4,0.7,0.4l2.9-0.1c0.1,0,0.5-0.1,0.6-0.1c0.3,0,0.7,0.2,0.7,0.4
			S91.6,138.2,91.4,138.2z"/>
		<path class="st0" d="M98.4,137c-0.1,0-0.2,0.1-0.2,0.1c-0.6,0.6-1.2,1.2-1.8,1.7c0.2,0.2,0.3,0.5,0.3,0.8c0,0.1,0,0.4-0.2,0.4
			s-0.3-0.2-0.4-0.4c-0.2-0.7-0.7-1.3-1.4-1.6v-0.1c0.6,0.1,1.1,0.4,1.5,0.8c0.3-0.3,0.6-0.6,0.9-1c0.3-0.3,0.5-0.6,0.6-1
			c-1.2,0-2.3,0.2-3.5,0.6l-0.3,0.1h-0.1c-0.2,0-0.5-0.4-0.6-0.9h0.1c0.1,0.2,0.4,0.3,0.6,0.3c0.3,0,2.6-0.3,3.1-0.4
			c0.2,0,0.4,0,0.7-0.1c0.1,0,0.2-0.1,0.3-0.2l0,0c0.2,0,0.7,0.5,0.7,0.8S98.7,137,98.4,137z"/>
		<path class="st0" d="M102.9,139.2l-1.1,0.8c-0.1,0.1-0.2,0.2-0.2,0.3s-0.1,0.1-0.1,0.1c-0.2-0.1-0.4-0.2-0.5-0.3
			c-0.1-0.2-0.2-0.3-0.3-0.5h0.1c0.1,0.1,0.2,0.1,0.4,0.1c0.2,0,0.4-0.1,1.1-0.6c0.8-0.5,1.5-1.2,2.1-1.9l0.7-0.8v-0.1h0.1
			C104.6,137.4,103.9,138.4,102.9,139.2z M101.9,137c-0.2,0-0.2-0.2-0.3-0.4c-0.1-0.3-0.3-0.5-0.5-0.7l-0.3-0.2h-0.1l0,0
			c0-0.1,0.1-0.1,0.1-0.1c0.4,0,0.7,0.2,1,0.4c0.2,0.2,0.3,0.4,0.3,0.6C102.1,136.7,102.1,137,101.9,137z"/>
		<path class="st0" d="M112.5,137.1c-0.1,0-0.2,0.1-0.4,0.4c-0.2,0.2-0.4,0.6-0.6,0.7c-0.1,0.2-0.3,0.3-0.5,0.4l0,0
			c0.3-0.4,0.6-0.9,0.7-1.4c-0.6,0.2-1.2,0.4-1.8,0.6v1.2c0,0.7,0.1,0.9,0.8,0.9c0.2,0,1.4-0.1,1.5-0.1s0.4,0.1,0.4,0.3
			s-0.1,0.2-0.2,0.2h-2.1c-0.4,0-0.7-0.2-0.8-0.6c0-0.3,0-0.6,0-0.9V138c-0.4,0.1-0.7,0.2-1,0.4c-0.1,0.1-0.1,0.1-0.2,0.1
			c-0.3-0.2-0.5-0.4-0.6-0.7l0,0c0.1,0.1,0.2,0.1,0.4,0.1c0.5-0.1,0.9-0.2,1.4-0.4v-1c0-0.5,0-0.6-0.2-0.8l-0.2-0.2v-0.1h0.2
			c0.3,0,0.9,0.2,0.9,0.5s-0.1,0.2-0.1,0.4c-0.1,0.4-0.1,0.7-0.1,1.1c0.6-0.1,1.1-0.3,1.6-0.5c0.1-0.1,0.2-0.2,0.3-0.3
			c0.1-0.1,0.1-0.1,0.2-0.1c0.2,0.1,0.4,0.2,0.6,0.3c0.1,0,0.1,0.1,0.1,0.2C112.8,137,112.8,137,112.5,137.1z"/>
		<path class="st0" d="M116.5,136.4c0,0.1,0,0.2,0,0.3c0.1,0.8-0.1,1.6-0.5,2.3c-0.4,0.6-0.9,1.1-1.6,1.3v-0.1
			c1.1-0.7,1.8-2,1.7-3.4c0-0.4,0-0.8-0.3-1v-0.1c0.2,0,0.4,0.1,0.6,0.2c0.2,0.1,0.3,0.1,0.3,0.2S116.6,136.3,116.5,136.4z
			 M118.8,139.2c-0.1,0.1-0.9,0.4-0.9,0.5c-0.1,0.1-0.1,0.1-0.2,0.2l-0.1,0.1c0,0-0.1-0.1-0.2-0.2l-0.3-0.4c0,0,0-0.1-0.1-0.1
			c0-0.1,0-0.1,0.1-0.3c0.1-0.8,0.1-1.7,0.1-2.6c0-0.2-0.1-0.5-0.3-0.6v-0.1c0.2,0,0.4,0,0.5,0.1c0.2,0.1,0.4,0.3,0.4,0.3
			c0,0.1-0.1,0.1-0.1,0.2c-0.1,0.1-0.1,0.3-0.1,0.4l-0.1,2.4c0.5,0,1-0.2,1.4-0.5s0.9-0.6,1.3-0.9v0.1
			C120,138.4,119.4,138.8,118.8,139.2z"/>
		<path class="st0" d="M126.4,136.4c-0.1,0.1-0.2,0.2-0.3,0.4c-0.2,0.8-0.6,1.5-1.1,2.1s-1.1,1-1.8,1.3c-0.3,0.1-0.6,0.2-0.8,0.2
			v-0.1c0.8-0.2,1.6-0.7,2.1-1.4c0.6-0.7,0.9-1.6,1.1-2.5h-0.3c-0.9,0-1.7,0.2-2.6,0.4c-0.1,0.1-0.1,0.1-0.1,0.1
			c-0.3-0.1-0.6-0.4-0.7-0.7V136c0.2,0.1,0.3,0.2,0.9,0.2c0.3,0,2.5-0.2,2.6-0.2s0.1,0,0.3-0.2l0.1-0.1c0.1,0,0.1,0,0.1,0.1
			c0.1,0.1,0.4,0.3,0.4,0.4S126.5,136.4,126.4,136.4z"/>
		<path class="st0" d="M132.7,136.6c-0.2,0.1-0.2,0.1-0.3,0.5c-0.2,0.9-0.7,1.8-1.4,2.5c-0.6,0.6-1.4,0.9-2.2,1v-0.1
			c1.8-0.6,3-2.2,3.2-4c-1,0-1.9,0.2-2.9,0.5c0,0-0.1,0-0.1,0.1c-0.2,0-0.5-0.2-0.7-0.8l0,0c0.2,0.2,0.4,0.3,0.7,0.2l2.3-0.2
			c0.6,0,0.7,0,0.8-0.1c0-0.1,0.1-0.2,0.2-0.2c0.1,0,0.6,0.4,0.6,0.5S132.8,136.6,132.7,136.6z M133.4,136.2c-0.4,0-0.7-0.3-0.7-0.7
			s0.3-0.7,0.7-0.7s0.7,0.3,0.7,0.7S133.8,136.2,133.4,136.2L133.4,136.2z M133.4,134.9c-0.3,0-0.5,0.2-0.5,0.5s0.2,0.5,0.5,0.5
			s0.5-0.2,0.5-0.5C133.9,135.2,133.7,135,133.4,134.9L133.4,134.9z"/>
		<path class="st0" d="M140.1,136.7c-0.1,0-0.2,0.1-0.2,0.2c0,0.1-0.4,1.8-0.5,2.1c0.1,0.1,0.4,0.2,0.4,0.3s-0.1,0.1-0.2,0.1H139
			c-0.8,0-1.6,0-2.4,0.2c0,0.1,0,0.4-0.1,0.4s-0.2-0.2-0.3-0.3s-0.1-0.3-0.1-0.4v-0.2c0-0.5-0.1-1.4-0.1-1.9s-0.1-0.7-0.4-1v-0.1
			c0.3,0,0.5,0.2,0.7,0.3s0.4,0.1,0.6,0.1c0.8,0,1.6-0.2,2.4-0.3l0.2-0.1h0.1c0.1,0,0.1,0,0.2,0.1l0.4,0.3l0.1,0.1
			C140.2,136.7,140.1,136.7,140.1,136.7z M137.2,136.8h-0.4c-0.2-0.1-0.3-0.2-0.5-0.2c0.1,0.4,0.2,0.9,0.2,1.4s0,0.9,0.1,1.4
			c0.3,0,2-0.2,2.4-0.2c0.1-0.5,0.1-1,0.3-1.4c0.1-0.4,0.1-0.8,0.1-1.1C138.2,136.6,137.7,136.7,137.2,136.8L137.2,136.8z"/>
		<path class="st0" d="M147.1,137.5c-0.1,0-0.5-0.1-0.5-0.1c-0.2,0-0.5,0-0.8,0s-0.6,0-0.9,0.1l0.2,0.1c0,0,0.1,0,0.1,0.1l0,0
			c-0.1,0.1-0.1,0.2-0.2,0.3c0,0.2-0.1,0.4-0.1,0.5c-0.2,1.2-1.1,2.1-2.3,2.3l0,0c0.5-0.2,0.9-0.5,1.2-0.9c0.4-0.5,0.6-1.2,0.7-1.9
			c0-0.2-0.1-0.3-0.3-0.3l0,0h-0.1c-0.4,0-0.8,0.1-1.1,0.2c-0.1,0.1-0.2,0.1-0.4,0.1c-0.1,0-0.2,0-0.3-0.1s-0.3-0.3-0.4-0.4h0.1
			l0.3,0.1h0.2c0.6-0.1,1.7-0.2,2.2-0.2s1-0.1,1.5-0.1c0.1,0,0.2-0.1,0.2-0.1s0.8,0.2,0.8,0.4C147.3,137.5,147.2,137.5,147.1,137.5z
			 M146.1,136.1h-0.5c-0.6,0-1.1,0-1.7,0.1c-0.1,0-0.4,0.1-0.4,0.1c-0.1,0-0.2-0.1-0.3-0.2c-0.1-0.1-0.2-0.3-0.3-0.4h0.1
			c0.1,0.1,0.2,0.1,0.3,0.2c0.1,0,0.3,0,0.4,0c0,0,1.3-0.1,1.4-0.1s0.4-0.1,0.6-0.2s0.7,0.3,0.7,0.4S146.2,136.1,146.1,136.1
			L146.1,136.1z M147.4,136.3c-0.1,0-0.2-0.2-0.3-0.3c-0.1-0.3-0.3-0.5-0.6-0.7l0,0c0.3,0,0.6,0.1,0.8,0.3c0.1,0.1,0.2,0.3,0.2,0.5
			C147.4,136.2,147.5,136.3,147.4,136.3L147.4,136.3z M147.8,135.7c-0.1,0-0.1,0-0.2-0.2c-0.2-0.3-0.5-0.5-0.8-0.7l0,0
			c0.5,0.1,1.1,0.2,1.1,0.8C148,135.7,147.9,135.7,147.8,135.7L147.8,135.7z"/>
		<path class="st0" d="M153.9,140.4l-0.4-0.1c-0.3-0.1-0.6-0.1-0.9-0.1c-0.8,0-1.5,0.1-2.3,0.3c-0.2,0.1-0.3,0.1-0.5,0.2
			c-0.2,0-0.3-0.1-0.4-0.2c-0.1-0.1-0.1-0.2-0.1-0.3h0.1c0.1,0.1,0.2,0.1,0.4,0.1c0.1,0,1-0.1,1.1-0.2l1.1-0.1
			c0.1-0.7,0.2-1.3,0.3-2c-0.4,0-0.8,0.1-1.1,0.1c-0.1,0.1-0.3,0.1-0.5,0.1c-0.1,0-0.4-0.2-0.5-0.6h0.1c0.1,0.1,0.3,0.2,0.5,0.2
			c0.5,0,0.9-0.1,1.4-0.2c0.1-0.1,0.1-0.1,0.2-0.1c0.2,0.1,0.4,0.2,0.5,0.4v0.1v0.1l-0.1,0.1c-0.1,0.4-0.2,1.2-0.4,1.8l1-0.1h0.2
			c0.1,0,0.2,0.1,0.3,0.1c0.2,0.1,0.2,0.2,0.2,0.3S154,140.4,153.9,140.4z"/>
		<path class="st0" d="M160.5,138.2h-0.2c-0.4,0-0.9-0.1-1.3-0.1c-0.6,0-2.2,0.1-2.3,0.1s-0.3,0.1-0.4,0.1c-0.2,0-0.4-0.4-0.5-0.8
			h0.1c0.2,0.2,0.4,0.4,0.7,0.4l2.9-0.1c0.1,0,0.5-0.1,0.6-0.1c0.3,0,0.7,0.2,0.7,0.4S160.6,138.2,160.5,138.2z"/>
		<path class="st0" d="M166.7,140.2c-0.1,0-0.1,0-0.3-0.4c-0.3-0.6-0.7-1.1-1.2-1.4c-0.7,1-1.8,1.6-3,1.9v-0.1
			c1.7-0.7,3.1-2.1,3.6-3.9c-0.7,0.1-1.3,0.2-2,0.4c-0.1,0-0.2,0.1-0.3,0.1c-0.2,0-0.4-0.3-0.5-0.7h0.1c0.1,0.2,0.3,0.2,0.5,0.3
			l2-0.3c0.1,0,0.2-0.1,0.3-0.1c0.1-0.1,0.1-0.1,0.2-0.1s0.1,0,0.3,0.2s0.2,0.3,0.2,0.3s-0.1,0.1-0.2,0.2s-0.1,0.1-0.2,0.2
			s-0.2,0.4-0.2,0.5c-0.2,0.4-0.4,0.7-0.6,1.1l0.8,0.5c0.4,0.3,0.7,0.7,0.8,1.2C166.9,140.1,166.8,140.2,166.7,140.2z"/>
		<polyline class="st6" points="198,125.2 198,129.9 346,129.9 346,125.6 		"/>
		<polyline class="st6" points="46.9,147.9 46.9,151.5 346.4,151.5 346.4,148.2 		"/>
		<path class="st0" d="M188.1,158.7c-0.1,0-0.5-0.1-0.6-0.1c-0.3,0-0.7-0.1-1-0.1c0,0.8-0.1,1.7-0.6,2.4c-0.4,0.6-1,1-1.6,1.2V162
			c0.8-0.4,1.4-1.1,1.6-2c0.1-0.5,0.2-1.1,0.2-1.6c-0.5,0-0.9,0.1-1.4,0.1v1.2c0,0.2,0,0.5-0.2,0.5s-0.3-0.4-0.3-0.6v-0.3
			c0-0.2,0-0.4,0-0.7c-0.3,0-0.6,0.1-0.8,0.2c-0.1,0.1-0.2,0.1-0.3,0.1c-0.2-0.2-0.4-0.4-0.6-0.7h0.1c0.1,0.1,0.3,0.2,0.5,0.2
			c0.1,0,0.9-0.1,1.1-0.1c0-0.4-0.1-0.7-0.1-1.1c0-0.1-0.1-0.1-0.2-0.3l0,0c0.4,0,0.9,0.2,0.9,0.4c0,0.1-0.1,0.2-0.1,0.2v0.8
			c0.5,0,0.8-0.1,1.4-0.1c0-0.4,0-0.8-0.1-1.3c-0.1-0.1-0.1-0.2-0.2-0.4v-0.1c0.4,0,0.9,0.2,0.9,0.4s-0.1,0.2-0.1,0.2s0,0.7,0,1
			c0.3,0,0.5,0,0.8-0.1l0.2-0.1C187.8,158.2,188.2,158.5,188.1,158.7C188.2,158.7,188.2,158.7,188.1,158.7z"/>
		<path class="st0" d="M195.3,158.6c-0.1,0-0.6-0.1-0.7-0.1h-1.4v2.8c0,0.1-0.1,0.6-0.3,0.6s-0.2-0.1-0.2-0.3s-0.1-0.2-0.3-0.4
			c-0.2-0.1-0.3-0.2-0.4-0.4l0,0c0.2,0.1,0.4,0.1,0.6,0.1c0.1,0,0.2-0.1,0.2-0.1c0-0.3,0.1-0.5,0.1-0.8v-1.6c-0.5,0-1.1,0.1-1.6,0.3
			c-0.1,0-0.2,0.1-0.2,0.1c-0.3-0.1-0.6-0.4-0.6-0.7l0,0c0.2,0.1,0.5,0.2,0.8,0.2c0.1,0,0.5-0.1,0.8-0.1l0.9-0.1v-0.6
			c0-0.3,0-0.6-0.1-0.9c-0.1-0.1-0.2-0.1-0.2-0.2v-0.1h0.2c0.4,0,0.9,0.3,0.9,0.5c0,0.1-0.1,0.2-0.1,0.2c-0.1,0.3-0.2,0.7-0.2,1h1.1
			l0.5-0.1c0.1,0,0.2,0,0.3,0.1C195.2,158.5,195.3,158.5,195.3,158.6C195.3,158.7,195.3,158.6,195.3,158.6z M190.6,161.2
			c-0.2,0-0.3-0.1-0.3-0.3s0.1-0.2,0.4-0.4c0.4-0.2,0.6-0.6,0.8-1h0.1C191.6,160.8,190.9,161.2,190.6,161.2z M195.1,161.2
			c-0.2,0-0.2-0.1-0.3-0.4c-0.2-0.5-0.5-0.9-1-1.1l0,0c0.4,0.1,0.8,0.3,1.1,0.6c0.2,0.2,0.4,0.4,0.4,0.7
			C195.3,161,195.2,161.1,195.1,161.2L195.1,161.2z"/>
		<path class="st0" d="M202.8,159.5h-0.2c-0.4,0-0.9-0.1-1.3-0.1c-0.6,0-2.2,0.1-2.3,0.1s-0.3,0.1-0.4,0.1c-0.3-0.2-0.5-0.5-0.5-0.8
			h0.1c0.2,0.2,0.4,0.4,0.7,0.4l2.9-0.1c0.1,0,0.5-0.1,0.6-0.1c0.3,0,0.7,0.2,0.7,0.4S202.9,159.5,202.8,159.5z"/>
		<path class="st0" d="M208.2,160c-0.1,0-0.1,0-0.2-0.2c-0.3-0.5-0.8-0.9-1.3-1.1v1.6c0,0.3,0,0.6,0,0.8v0.5c0,0.2-0.1,0.3-0.2,0.3
			c-0.2,0-0.5-0.7-0.5-0.8s0.1-0.2,0.1-0.3s0-0.2,0.1-0.3c0-0.4,0.1-1.5,0.1-1.7v-1.9c0-0.1-0.1-0.2-0.1-0.3l-0.2-0.2v-0.1
			c0.2,0,0.4,0,0.6,0.1c0.2,0.1,0.3,0.2,0.3,0.3s0,0.2-0.1,0.3c-0.1,0.2-0.1,0.5-0.1,0.8c0,0.2,0,0.4,0,0.6c0.7,0.2,1.7,0.4,1.7,1.2
			C208.4,159.9,208.3,160,208.2,160z"/>
		<path class="st7" d="M57.8,98.6c0.1,0,0.2,0,0.2-0.1c0.1,0,0.2,0,0.3,0.1l0.1,0.1c0,0.1-0.1,0.1-0.1,0.1h-0.1c-0.2,0-0.3,0-0.5,0
			c-0.3,0-0.7,0-1,0.1v0.7c0,0.4,0,0.4,0.3,0.4c0.2,0,0.4,0,0.6-0.1h0.2c0.1,0,0.2,0,0.3,0.1c0.1,0,0.1,0.1,0.1,0.1l0,0
			c0,0,0,0.1-0.1,0.1c-0.2,0-0.4,0-0.7,0c-0.4,0-0.7,0-0.8-0.3c0-0.3,0-0.7,0-1c-0.3,0-0.7,0.1-1,0.3l0,0c-0.1,0-0.3-0.2-0.3-0.4
			v-0.1c0.1,0.1,0.2,0.2,0.4,0.2H56l0.8-0.1v-0.4c0-0.2,0-0.4-0.1-0.4s-0.3,0-0.4,0.1h-0.1C56.1,98.1,56,98,56,98
			c-0.1-0.1-0.1-0.2-0.1-0.3c0.1,0.1,0.2,0.2,0.4,0.2c0.5,0,0.9-0.1,1.4-0.2l0.2-0.1c0.1,0,0.2,0,0.3,0.1c0,0,0.1,0,0.1,0.1
			s-0.1,0.1-0.2,0.1c-0.4,0-0.7,0-1.1,0.1c0.1,0,0.2,0.1,0.2,0.2s-0.1,0.1-0.1,0.2s0,0.1,0,0.2v0.3h0.2L57.8,98.6z"/>
		<path class="st7" d="M60.4,100.5c0.3-0.2,0.6-0.6,0.8-0.9s0.3-0.6,0.3-1c0-0.1,0-0.1-0.1-0.2c-0.3,0-0.7,0.1-1,0.2
			c-0.1,0.1-0.1,0.1-0.2,0.1c-0.2-0.1-0.3-0.2-0.3-0.4l0-0.1c0.2,0.2,0.3,0.3,0.4,0.3l0.4,0c0.4-0.1,0.5-0.1,1.8-0.2l0.2,0
			c0,0,0.4,0.1,0.4,0.2c0,0.1,0,0.1-0.1,0.1l-0.3,0c-0.2,0-0.3,0-0.5,0l-0.7,0l0.2,0.2l0,0l-0.1,0.1l0,0
			C61.5,99.6,61.1,100.2,60.4,100.5L60.4,100.5z M62.2,97.6c-0.3,0-0.7,0-1,0.1l-0.2,0c-0.2,0-0.3-0.1-0.3-0.3l0,0l0,0
			c0.1,0.1,0.3,0.1,0.5,0.1l0.6,0l0.3-0.1l0.1,0c0.1,0,0.2,0,0.3,0l0.1,0.1C62.5,97.6,62.4,97.6,62.2,97.6L62.2,97.6z M63.4,97.9
			C63.4,98,63.4,98,63.4,97.9c-0.2,0.1-0.2,0-0.3-0.1s-0.3-0.3-0.4-0.3C63,97.5,63.4,97.7,63.4,97.9z M63.7,97.6
			C63.7,97.6,63.7,97.7,63.7,97.6c-0.2,0.1-0.2,0.1-0.3-0.1c-0.1-0.2-0.3-0.3-0.5-0.4C63.3,97.2,63.7,97.4,63.7,97.6z"/>
		<path class="st7" d="M64.4,100.2c0.2-0.2,0.4-0.5,0.6-0.8c0.2-0.4,0.2-0.8,0.2-1.2c0-0.3,0-0.4-0.3-0.4c0.1-0.1,0.1-0.1,0.2-0.1
			c0.1,0,0.4,0.1,0.4,0.2l0,0.6c0,0.5-0.2,1-0.5,1.3C64.9,100,64.7,100.2,64.4,100.2L64.4,100.2z M67.8,98.3
			c-0.3,0.6-0.7,1.1-1.2,1.4c-0.1,0.1-0.2,0.1-0.3,0.2c0,0-0.1,0.2-0.2,0.2c-0.1-0.1-0.2-0.2-0.2-0.3l0-0.2c0-0.3,0-0.6,0-0.9l0-1
			c0-0.2,0-0.2-0.3-0.2c0.1,0,0.1-0.1,0.2-0.1c0.1,0,0.3,0.1,0.4,0.2l0,0.1l0,0.1c0,0.1,0,0.2,0,0.3l0,1.6
			C66.8,99.3,67.3,98.8,67.8,98.3L67.8,98.3z"/>
		<path class="st7" d="M211.9,96.8c-0.1,0-0.1,0-0.2-0.2c-0.1-0.2-0.2-0.3-0.3-0.4v1.9c0,0.1,0,0.2-0.1,0.2l0,0l0,0
			c-0.1,0-0.1,0-0.1-0.1v-1.8c-0.2,0.3-0.5,0.5-0.8,0.7l0,0c0.5-0.5,0.9-1,1.3-1.6H211c-0.2,0-0.4,0-0.5,0l-0.1-0.2h0.8
			c0-0.3,0-0.5-0.1-0.8l0.4,0.1l0,0c0,0.1,0,0.1-0.1,0.1c0,0.2,0,0.3,0,0.5h0.2l0.1-0.1h0.1l0.1,0.1l0,0c0,0.1,0,0.1-0.2,0.1
			c-0.1,0.2-0.3,0.4-0.4,0.6c0.1,0.1,0.3,0.1,0.4,0.2c0.2,0,0.3,0.2,0.3,0.3S212,96.8,211.9,96.8z M214.1,98.1h-2.3l-0.1-0.2h1.1V96
			h-0.2c-0.2,0-0.4,0-0.5,0l-0.1-0.1h0.9V95c0-0.2,0-0.3-0.1-0.5l0.4,0.1c0,0,0.1,0,0.1,0.1s-0.1,0.1-0.2,0.1c0,0.4,0,0.7,0,1.1h0.5
			l0.1-0.2v-0.1h0.1l0.2,0.2v0.1c0,0.1,0,0-0.1,0h-1v1.9h0.5l0.2-0.2c0,0,0,0,0.1,0h0.1l0.2,0.2v0.1C214,98,214.1,98.1,214.1,98.1
			L214.1,98.1z"/>
		<path class="st7" d="M218.1,95.5v2.2c0,0.3,0,0.5-0.4,0.6c0-0.2-0.1-0.2-0.5-0.4h0.5c0.2,0,0.2,0,0.2-0.3v-2.2h-1.3
			c0,0.2-0.1,0.5-0.2,0.7c0.3,0.1,0.5,0.2,0.8,0.4c0.1,0.1,0.3,0.2,0.3,0.5c0,0.1-0.1,0.1-0.1,0.1l0,0c-0.1,0-0.1-0.1-0.2-0.2
			c-0.2-0.3-0.4-0.6-0.8-0.8c-0.2,0.5-0.6,0.9-1.1,1.1l0,0c0.4-0.3,0.7-0.6,0.9-1c0.1-0.2,0.2-0.5,0.2-0.8h-1.2V98v0.1
			c0,0.1-0.1,0.1-0.2,0.1c-0.1,0-0.1-0.1-0.1-0.1v-1.9c0-0.4,0-0.8-0.1-1.2l0.4,0.2h1.1c0-0.1,0-0.2,0-0.3c0-0.2,0-0.4-0.1-0.5
			l0.4,0.1h0.1l0,0c0,0.1-0.1,0.1-0.1,0.1v0.5h1.2l0.1-0.1h0.1l0.2,0.1l0,0C218.2,95.4,218.2,95.4,218.1,95.5z"/>
		<path class="st7" d="M222.6,95.2h-1.9c-0.1,0.1-0.4,0.4-0.5,0.5l1.6-0.1c-0.1-0.1-0.3-0.2-0.4-0.2l0,0c0.1,0,1.1,0.2,1.1,0.6
			c0,0.1-0.1,0.1-0.1,0.1l0,0l0,0c-0.1,0-0.1,0-0.2-0.2c-0.1-0.1-0.2-0.2-0.3-0.2c-0.4,0.1-0.9,0.1-1.1,0.2l-1.3,0.2
			c0,0,0,0-0.1,0.1h-0.1c-0.1,0,0,0-0.1-0.1l-0.1-0.3c0.1,0,0.2,0,0.4,0h0.5c0.1-0.2,0.2-0.4,0.3-0.5h-0.7c-0.2,0-0.4,0-0.5,0v-0.2
			h1.7c0-0.2,0-0.4-0.1-0.6l0.4,0.1c0.1,0,0.1,0,0.1,0.1l0,0l-0.1,0.1V95h1.2l0.2-0.2c0,0,0-0.1,0.1-0.1s0.1,0,0.1,0l0.2,0.2
			c0,0,0,0,0,0.1C222.6,95,222.6,95.2,222.6,95.2z M221.9,96.4L221.9,96.4l-0.1,1.6c0,0.1,0,0.2-0.1,0.3c-0.1,0.1-0.2,0.1-0.3,0.2
			c0-0.1,0-0.1-0.1-0.2s-0.2-0.1-0.3-0.2h0.4c0.1,0,0.2,0,0.2-0.1v-0.5H220v0.7c0,0.1-0.1,0.2-0.2,0.2c-0.1,0-0.1-0.1-0.1-0.1v-1.6
			c0-0.2,0-0.3,0-0.5l0.3,0.2h1.4l0.1-0.1c0,0,0-0.1,0.1-0.1c0,0,0,0,0.1,0L221.9,96.4L221.9,96.4C221.9,96.3,221.9,96.3,221.9,96.4
			z M221.6,96.4H220v0.4h1.6V96.4z M221.6,96.9H220v0.5h1.6V96.9z"/>
		<path class="st7" d="M226.8,98.2c-0.1,0-0.2,0-0.3-0.1c-0.3-0.1-0.6-0.4-0.8-0.7l-0.1,0.1c-0.4,0.4-0.9,0.7-1.4,0.8l0,0
			c0.5-0.2,1-0.5,1.4-1c-0.3-0.6-0.4-1.2-0.4-1.8H224v0.7h0.7v-0.1h0.1l0.2,0.1c0,0,0,0,0,0.1l-0.1,0.1c-0.1,0.1,0,0.6,0,0.7
			c0,0.3,0,0.6-0.5,0.7c0-0.2-0.1-0.2-0.3-0.3h0.4c0.1,0,0.2-0.1,0.2-0.4s0-0.5,0-0.8H224V97c0,0.5-0.2,1-0.6,1.3l0,0
			c0.3-0.5,0.5-1.2,0.4-1.8c0-0.4,0-0.8-0.1-1.3l0.3,0.2h1.2c0-0.1,0-0.3-0.1-0.4c0-0.1,0-0.3-0.1-0.4l0.4,0.1c0,0,0.1,0,0.1,0.1
			s-0.1,0.1-0.1,0.1s0,0.3,0,0.6h1l0.2-0.2c0,0,0,0,0.1,0s0.1,0,0.1,0l0.2,0.2v0.1c0,0.1,0,0-0.1,0h-1.5c0,0.6,0.1,1.1,0.4,1.6
			c0.2-0.3,0.3-0.6,0.4-1c0-0.1,0-0.1,0-0.2l0.4,0.2h0.1l0,0c0,0.1-0.1,0.1-0.2,0.1c-0.1,0.4-0.3,0.7-0.5,1c0.1,0.1,0.4,0.6,0.6,0.6
			c0.1,0,0.1,0,0.1-0.1l0,0c0.1-0.1,0.1-0.2,0.3-0.6l0,0v0.7c0,0,0,0.1,0,0.2C226.8,98.1,226.8,98.1,226.8,98.2
			C226.8,98.2,226.9,98.2,226.8,98.2z M226,95.2c-0.1,0-0.1,0-0.2-0.2c-0.1-0.1-0.1-0.2-0.2-0.3l0,0c0.3,0,0.5,0.2,0.5,0.3
			C226.1,95.1,226.1,95.2,226,95.2z"/>
		<path class="st8" d="M206.2,115c1-0.5,1.7-1.4,1.9-2.5c-0.6,0-1.1,0.1-1.7,0.2c-0.1,0-0.1,0-0.2,0.1h-0.1c0,0-0.1,0-0.1-0.1
			s-0.2-0.2-0.2-0.3v-0.1c0.1,0.2,0.2,0.2,0.4,0.2l1.5-0.1c0.1,0,0.3,0,0.4-0.1h0.1l0.2,0.2l0,0l-0.1,0.1c-0.1,0.1-0.1,0.1-0.2,0.3
			c-0.2,0.6-0.5,1.1-0.9,1.5C207,114.6,206.6,114.9,206.2,115L206.2,115z M209,112.4c0,0,0,0.1-0.1,0.1s-0.1,0-0.1-0.1
			c-0.1-0.2-0.3-0.3-0.5-0.4C208.6,111.9,209,112.1,209,112.4z M209.1,111.8c0.1,0,0.2,0.2,0.2,0.3c0,0.1,0,0.1-0.1,0.1s0,0-0.1-0.1
			c-0.1-0.2-0.3-0.3-0.5-0.4C208.9,111.7,209,111.7,209.1,111.8z"/>
		<path class="st8" d="M210.6,115.1c0.9-0.4,1.5-1.2,1.8-2.1c-0.6,0-1.1,0.1-1.7,0.3c-0.1,0.1-0.1,0.1-0.1,0.1
			c-0.2-0.1-0.4-0.2-0.4-0.5v-0.1c0.1,0.2,0.3,0.3,0.4,0.3c0.1,0,1.6-0.1,1.7-0.1s0.1,0,0.2-0.1h0.1c0,0,0.3,0.2,0.3,0.3
			s0,0-0.1,0.1s-0.1,0.1-0.1,0.2c-0.2,0.5-0.6,1-1,1.4C211.3,114.9,210.9,115.1,210.6,115.1L210.6,115.1z M211,112.1
			c0.3,0,0.7,0,1-0.1c0.1,0,0.1-0.1,0.2-0.1s0.3,0,0.3,0.1s-0.1,0.1-0.4,0.1H211c-0.2,0.1-0.4,0-0.4-0.3
			C210.6,112.1,210.8,112.2,211,112.1z"/>
		<path class="st8" d="M215.3,112.5c0,0.1-0.1,0.1-0.1,0.1c-0.1,0-0.1,0-0.2-0.2c-0.2-0.2-0.4-0.3-0.7-0.4
			C214.8,112,215.3,112.3,215.3,112.5z M217.1,112.5c-0.3,0.6-0.8,1.1-1.3,1.5c-0.2,0.2-0.4,0.3-0.6,0.4c-0.1,0.1-0.2,0.2-0.3,0.3
			l-0.1,0.1c-0.1,0-0.4-0.3-0.4-0.5c0-0.1,0-0.1,0.1-0.2c0.1,0.2,0.2,0.3,0.3,0.3c0.2-0.1,0.5-0.2,0.7-0.4
			C216,113.5,216.6,113,217.1,112.5L217.1,112.5z"/>
		<path class="st8" d="M218.5,115.1c0.3-0.2,0.6-0.6,0.8-0.9s0.3-0.6,0.3-0.9c0-0.1,0-0.1-0.1-0.2c-0.3,0-0.7,0.1-1,0.2
			c-0.1,0-0.1,0.1-0.2,0.1c-0.2-0.1-0.3-0.2-0.3-0.4v-0.1c0.2,0.3,0.3,0.3,0.4,0.3h0.4c0.4-0.1,0.5-0.1,1.8-0.2h0.1h0.1
			c0,0,0.4,0.1,0.4,0.2s0,0.1-0.1,0.1h-0.3c-0.2,0-0.3,0-0.5,0h-0.6l0.2,0.2l0,0c0,0,0,0.1-0.1,0.1v0.1c-0.1,0.7-0.6,1.4-1.3,1.7
			L218.5,115.1L218.5,115.1z M220.2,112.2c-0.3,0-0.7,0-1,0.1H219c-0.2,0-0.3-0.1-0.3-0.3l0,0l0,0c0.1,0.1,0.3,0.1,0.5,0.1h0.6
			l0.3-0.1h0.1c0.1,0,0.2,0,0.3,0.1c0,0,0.1,0,0.1,0.1l0,0C220.5,112.3,220.4,112.3,220.2,112.2L220.2,112.2z M221.4,112.5
			c0,0.1,0,0.1-0.1,0.1s-0.1-0.1-0.2-0.2c-0.1-0.1-0.3-0.3-0.4-0.3C221,112.1,221.4,112.3,221.4,112.5L221.4,112.5z M221.7,112.2
			c0,0,0,0.1-0.1,0.1s-0.1,0-0.2-0.2c-0.1-0.2-0.3-0.3-0.5-0.4C221.3,111.8,221.8,112,221.7,112.2L221.7,112.2z"/>
		<path class="st8" d="M222.7,114.1c0.7-0.4,1.3-1,1.8-1.6c0,0,0-0.1-0.2-0.2h0.2c0.1,0,0.2,0,0.3,0.2s0.1,0.1,0.1,0.1s0,0-0.1,0.1
			l-0.2,0.1c-0.1,0.1-0.4,0.4-0.5,0.5c0.1,0.1,0.2,0.1,0.2,0.1v1.6c0,0.1,0,0.1-0.1,0.1s-0.1-0.1-0.1-0.2s0-0.1,0-0.2V114
			c0-0.2,0-0.4,0-0.6l0,0C223.6,113.7,223.2,114,222.7,114.1L222.7,114.1z"/>
		<path class="st8" d="M227.2,112.5c0,0.1-0.1,0.1-0.1,0.1c-0.1,0-0.1,0-0.2-0.2c-0.2-0.2-0.4-0.3-0.7-0.4
			C226.7,112,227.2,112.3,227.2,112.5z M229,112.5c-0.3,0.6-0.8,1.1-1.3,1.5l-0.6,0.4c-0.1,0.1-0.2,0.2-0.3,0.3l-0.1,0.1
			c-0.1,0-0.4-0.3-0.4-0.5c0-0.1,0-0.1,0-0.2c0.1,0.2,0.2,0.3,0.3,0.3c0.2-0.1,0.5-0.2,0.7-0.4C227.9,113.5,228.4,113,229,112.5
			L229,112.5z"/>
		<path class="st8" d="M230,115.1c0.5-0.2,1-0.6,1.3-1s0.6-0.9,0.8-1.4l0,0l-0.7,0.1c-0.1,0-0.2,0-0.2-0.1c-0.3,0.4-0.7,0.8-1.1,1
			l0,0c0.5-0.4,0.9-0.9,1.1-1.5c0-0.1-0.2-0.2-0.2-0.2c0.1,0,0.1,0,0.2,0c0.1,0,0.4,0.2,0.4,0.3s0,0-0.1,0.1l-0.2,0.3h0.2
			c0.3,0,0.5,0,0.8-0.1l0.1-0.1l0,0c0.1,0,0.2,0.1,0.2,0.2c0.1,0,0.1,0.1,0.1,0.1l-0.1,0.1c0,0-0.1,0.1-0.1,0.2
			c-0.4,1-1.3,1.8-2.3,2.2L230,115.1z M232.9,112.3c0,0.1,0,0.1-0.1,0.1s-0.1,0-0.2-0.2c-0.1-0.1-0.3-0.3-0.4-0.4
			C232.4,111.9,232.9,112.1,232.9,112.3z M233.3,112.1C233.3,112.2,233.3,112.2,233.3,112.1c-0.1,0.1-0.2,0-0.2,0
			c-0.2-0.1-0.3-0.3-0.5-0.4C232.7,111.7,233.3,111.7,233.3,112.1z"/>
		<path class="st7" d="M314.3,100.9c0.9-0.4,1.5-1.2,1.8-2.1c-0.6,0-1.2,0.1-1.7,0.3c-0.1,0.1-0.1,0.1-0.1,0.1
			c-0.2-0.1-0.4-0.3-0.4-0.5v-0.1c0.1,0.2,0.3,0.3,0.5,0.3s1.5-0.1,1.7-0.1c0.1,0,0.1-0.1,0.2-0.1h0.1c0,0,0.3,0.2,0.3,0.3
			s0,0-0.1,0.1s-0.1,0-0.1,0.2c-0.2,0.5-0.6,1-1,1.4C315,100.8,314.7,100.9,314.3,100.9L314.3,100.9z M314.8,98c0.3,0,0.7-0.1,1-0.1
			c0.1,0,0.1,0,0.2-0.1c0.1,0,0.3,0,0.3,0.1s-0.1,0.1-0.4,0.1l-1.2,0.1c-0.1,0-0.3-0.1-0.3-0.4C314.4,97.9,314.6,98,314.8,98z"/>
		<path class="st7" d="M317,99.8c0.8-0.5,1.5-1.2,2.1-1.9c0,0,0.1-0.1,0.1-0.2c0,0,0-0.1-0.1-0.1l-0.1-0.1h0.1
			c0.2,0,0.3,0.1,0.4,0.2l0.1,0.1c0,0,0,0.1-0.1,0.1s-0.1,0-0.2,0.2c-0.5,0.4-0.5,0.5-0.7,0.7c0.1,0,0.2,0.1,0.2,0.2v0.1
			c0,0.1,0,0.2,0,0.2v1.4c0,0.2,0,0.2-0.1,0.2s-0.2-0.2-0.2-0.3v-0.2c0-0.3,0.1-0.5,0.1-0.8V99v-0.1C318.1,99.3,317.6,99.7,317,99.8
			L317,99.8z"/>
		<path class="st7" d="M320.6,100.9c1-0.5,1.7-1.4,1.9-2.5c-0.6,0-1.1,0.1-1.7,0.2c-0.1,0-0.1,0-0.2,0.1h-0.1l-0.1-0.1
			c-0.1-0.1-0.2-0.2-0.2-0.3v-0.1c0.1,0.2,0.2,0.2,0.4,0.2l1.5-0.1c0.1,0,0.3,0,0.4-0.1l0.1-0.1h0.1l0.2,0.2l0,0l-0.1,0.1
			c-0.1,0.1-0.2,0.2-0.2,0.3c-0.2,0.6-0.5,1.1-0.9,1.5C321.3,100.5,320.9,100.7,320.6,100.9L320.6,100.9z M323.4,98.2
			c0,0,0,0.1-0.1,0.1s0,0-0.1-0.2s-0.3-0.3-0.5-0.4C322.9,97.8,323.4,98,323.4,98.2z M323.5,97.7c0.1,0,0.2,0.2,0.2,0.3
			c0,0.1,0,0.1-0.1,0.1s0,0-0.1-0.1c-0.1-0.2-0.3-0.3-0.5-0.4C323.2,97.5,323.3,97.6,323.5,97.7z"/>
		<path class="st7" d="M326.5,100.2c0,0.1-0.1,0.1-0.1,0.1h-0.5c-0.4,0-0.9,0-1.3,0.1c-0.1,0-0.1,0.1-0.2,0.1c0,0-0.3-0.3-0.3-0.4
			V100c0.1,0.2,0.2,0.3,0.4,0.3l1.6-0.1c0.1-0.8,0.2-1.4,0.2-1.6s0,0,0,0s-1.4,0.1-1.7,0.2l-0.1,0.1c-0.1,0-0.3-0.2-0.3-0.4
			c0-0.1,0-0.1,0-0.2c0,0.1,0.1,0.2,0.2,0.2c0.1,0.1,0.1,0.1,0.2,0.1c0.2,0,1.5-0.1,1.7-0.1c0.1,0,0.1,0,0.2-0.1l0,0l0.2,0.2
			l0.1,0.1c0,0,0,0.1-0.1,0.1l-0.1,0.1C326.6,99.1,326.5,99.5,326.5,100.2C326.4,100,326.5,100.1,326.5,100.2z"/>
		<path class="st7" d="M329.7,100.4c0,0,0,0.2-0.1,0.2s-0.1,0-0.2-0.3c-0.2-0.3-0.4-0.5-0.7-0.7c-0.1-0.1-0.2-0.2-0.4-0.3
			c0.3,0.1,0.6,0.2,0.9,0.4c0.4-0.4,0.8-0.8,1.1-1.3h-0.8c-1.2,0.1-1.5,0.2-1.6,0.3s-0.1,0-0.1,0c-0.2-0.1-0.4-0.3-0.4-0.5v-0.1
			c0.1,0.2,0.2,0.3,0.4,0.2l2.3-0.2c0.1,0,0.2,0,0.3-0.1h0.1c0.1,0.1,0.2,0.1,0.2,0.2c0.1,0.1,0.1,0.1,0.1,0.1s0,0-0.1,0.1
			s-0.1,0-0.3,0.2c-0.3,0.4-0.7,0.7-1.1,1C329.5,99.9,329.7,100.1,329.7,100.4z"/>
		<path class="st7" d="M331.8,99.1c0.2,0,0.3,0,0.5,0h2c0,0,0.4,0,0.4,0.2s-0.1,0.1-0.2,0.1h-2.2c-0.1,0-0.2,0-0.3,0h-0.1
			c0,0,0,0-0.1-0.1s-0.1-0.2-0.1-0.3c0-0.1,0-0.1,0-0.2C331.5,99,331.6,99.1,331.8,99.1z"/>
		<path class="st7" d="M335,100.5c1.1-0.5,1.9-1.3,2.4-2.4c-0.4,0-0.8,0.1-1.2,0.2c-0.1,0-0.1,0.1-0.1,0.1c-0.1-0.1-0.2-0.2-0.2-0.3
			c0-0.1,0-0.1,0-0.2c0.1,0.2,0.1,0.2,0.3,0.2c0.4,0,0.9-0.1,1.3-0.1c0.1,0,0.1-0.1,0.2-0.1c0,0,0.3,0.2,0.3,0.3s0,0-0.1,0.1
			s0,0-0.1,0.1c-0.2,0.4-0.3,0.7-0.6,1c0.4,0.2,0.8,0.5,1.1,0.8c0.1,0.1,0.1,0.2,0.1,0.3c0,0.1,0,0.2-0.1,0.2s-0.1,0-0.2-0.2
			c-0.3-0.4-0.6-0.7-1-1c-0.5,0.6-1.1,1.1-1.9,1.2v-0.2H335z M338,97.6c0.1,0,0.2,0.2,0.2,0.3c0,0.1,0,0.1-0.1,0.1s-0.1,0-0.2-0.2
			c-0.1-0.1-0.3-0.2-0.4-0.3C337.7,97.4,337.8,97.5,338,97.6z M338.4,97.4c0.1,0,0.2,0.2,0.2,0.3c0,0,0,0.1-0.1,0.1s-0.1,0-0.2-0.2
			c-0.1-0.1-0.3-0.3-0.5-0.3C338.1,97.2,338.3,97.3,338.4,97.4L338.4,97.4z"/>
		<path class="st7" d="M14.3,105.2h-1.7v1.3c0,0.3-0.3,0.3-0.4,0.3s-0.1,0-0.1-0.1v-1.5h-1.4c-0.2,0.8-1,1.3-2.2,1.6v-0.1
			c0.8-0.2,1.4-0.8,1.7-1.5H8.5L8.4,105h1.9c0-0.1,0-0.3,0-0.4v-0.4l0.6,0.1c0.1,0,0.2,0,0.2,0.1s-0.2,0.1-0.2,0.1
			c0,0.2,0,0.4-0.1,0.6h1.3v-0.9l0.6,0.1c0.1,0,0.1,0,0.1,0.1s-0.1,0.1-0.1,0.1h-0.1v0.7h0.9l0.3-0.4l0.1-0.1c0,0,0.1,0,0.1,0.1
			L14.3,105.2c0.1,0,0.1,0.1,0.2,0.1C14.5,105.2,14.4,105.2,14.3,105.2z M9.3,101.8c-0.1,0-0.1-0.1-0.3-0.4
			c-0.1-0.2-0.2-0.4-0.4-0.5v-0.1c0.2,0.1,0.4,0.2,0.5,0.3c0.1,0.1,0.3,0.2,0.3,0.4c0,0.1,0,0.2,0,0.2
			C9.4,101.8,9.4,101.8,9.3,101.8L9.3,101.8z M11.4,102.2v1.5c0,0.3-0.1,0.4-0.5,0.4c0-0.2,0-0.2-0.2-0.3c-0.1-0.1-0.2-0.1-0.3-0.1
			v-0.1c0.2,0,0.4,0,0.5,0.1c0.1,0,0.1,0,0.1-0.2v-1.4h-0.8v0.3c0.3,0.1,0.6,0.4,0.6,0.7c0,0,0,0.2-0.1,0.2s-0.1-0.1-0.2-0.4
			c0-0.2-0.1-0.4-0.2-0.5v1.5v0.1c-0.1,0.1-0.2,0.1-0.3,0.1s-0.1,0-0.1-0.1v-1.4H9.8c-0.1,0.3-0.2,0.5-0.4,0.7
			c-0.1,0.1-0.1,0.2-0.2,0.2l0,0c0.2-0.4,0.3-0.8,0.3-1.2l0.4,0.1l0,0v-0.5H9.1v2c0,0.1-0.1,0.2-0.3,0.2s-0.1,0-0.1-0.1v-2.6
			l0.4,0.3h0.7v-1.2l0.6,0.1c0,0,0.1,0,0.1,0.1s-0.1,0.1-0.2,0.1v1h0.6l0.3-0.2h0.1l0.2,0.2c0,0,0,0.1,0.1,0.1
			C11.5,102.2,11.5,102.2,11.4,102.2L11.4,102.2z M11.5,101.2h-0.2c-0.2,0.2-0.5,0.4-0.8,0.5l0,0c0.2-0.3,0.4-0.5,0.6-0.8l0.5,0.2
			c0,0,0.1,0,0.1,0.1l0,0C11.7,101.2,11.7,101.2,11.5,101.2L11.5,101.2z M13.8,104.2c-0.4-0.2-0.7-0.4-0.9-0.8
			c-0.4,0.4-1,0.7-1.5,0.8l0,0c0.5-0.2,1-0.6,1.4-1c-0.3-0.4-0.4-0.8-0.5-1.2c-0.2,0.2-0.4,0.5-0.6,0.6h-0.1
			c0.4-0.6,0.7-1.2,0.8-1.9L13,101c0,0,0.1,0,0.1,0.1s-0.2,0.1-0.2,0.1c-0.1,0.3-0.2,0.5-0.4,0.7h1.3l0.2-0.3c0-0.1,0.1-0.1,0.1-0.1
			s0.1,0,0.1,0.1l0.3,0.3v0.1c0,0.1-0.1,0.1-0.1,0.1h-0.9l0.5,0.1c0,0,0.1,0,0.1,0.1s-0.2,0.1-0.3,0.1c-0.2,0.4-0.4,0.7-0.6,1
			c0.4,0.3,0.9,0.5,1.4,0.7v0.1C14.2,104,14.1,104,13.8,104.2L13.8,104.2z M12.3,101.9L12.3,101.9c0.1,0.4,0.3,0.8,0.6,1.1
			c0.2-0.3,0.4-0.7,0.5-1.1H12.3z"/>
		<path class="st7" d="M18.4,104.6c-0.2,0-0.2-0.1-0.3-0.4c-0.1-0.3-0.3-0.5-0.6-0.7v2.8c0,0.1,0,0.1,0,0.2s-0.2,0.2-0.4,0.2
			s-0.1,0-0.1-0.2v-2.7c-0.3,0.3-0.7,0.6-1.1,0.9l0,0c0.8-0.7,1.4-1.5,2-2.4H16l-0.1-0.2h1v-1.5l0.6,0.1c0,0,0.2,0,0.2,0.1
			s-0.1,0.1-0.2,0.2v1.1h0.3l0.2-0.2l0.1-0.1c0.1,0,0.1,0,0.1,0.1l0.3,0.3l0.1,0.1c0,0-0.1,0.1-0.3,0.1s-0.4,0.4-0.8,0.9v0.1
			c0.5,0.1,1.1,0.6,1.1,0.9C18.5,104.4,18.5,104.6,18.4,104.6z M21.9,106.3h-3.7l-0.1-0.2h1.6v-3.3h-1.1l-0.1-0.2h1.2v-2h0.5
			c0,0,0.3,0,0.3,0.1s0,0.1-0.2,0.2v1.7h0.6l0.2-0.3l0.1-0.1c0.1,0,0.1,0,0.2,0.1l0.3,0.2l0.1,0.1l-0.1,0.1h-1.4v3.3H21l0.2-0.3
			c0-0.1,0.1-0.1,0.1-0.1s0.1,0.1,0.2,0.1l0.3,0.3l0.1,0.1L21.9,106.3z"/>
		<path class="st7" d="M28.8,104.6H28v0.9c0,0.1,0,0.3-0.3,0.3s-0.2,0-0.2-0.2v-0.3h-1.3v0.8c0,0.4-0.3,0.6-0.7,0.6
			c0-0.2,0-0.4-0.8-0.6V106l0.9,0.1c0.1,0,0.1-0.1,0.1-0.2v-0.6h-1.9l-0.1-0.2h2v-0.6H23l-0.1-0.2h2.8v-0.5h-2l-0.1-0.2h2.1v-0.5h-1
			v0.2c-0.1,0.1-0.2,0.1-0.3,0.1c-0.1,0-0.1-0.1-0.1-0.2v-1.3l0.6,0.3h1v-0.6h-2.5l-0.1-0.2h2.6v-0.9h0.5c0.1,0,0.2,0,0.2,0.1
			s0,0.1-0.2,0.2v0.6h1.7l0.2-0.3l0.1-0.1c0.1,0,0.1,0,0.1,0.1l0.3,0.3l0.1,0.1c0,0,0,0.1-0.1,0.1h-2.5v0.6h1l0.2-0.2l0.1-0.1h0.1
			l0.3,0.2l0.1,0.1c0,0-0.1,0.2-0.2,0.2v0.8c-0.1,0.1-0.2,0.1-0.3,0.1c-0.1,0-0.1,0-0.1-0.2h-1.1v0.5h1.2l0.2-0.2c0,0,0-0.1,0.1-0.1
			c0,0,0.1,0,0.1,0.1l0.2,0.2l0.1,0.1c0,0.1-0.1,0.1-0.2,0.2v0.4h0.2l0.2-0.3l0.1-0.1c0.1,0,0.1,0,0.1,0.1l0.2,0.3v0.1
			C28.9,104.5,28.9,104.6,28.8,104.6z M25.7,102.5h-1.1v0.6h1.1V102.5z M27.3,102.5h-1.1v0.6h1.1V102.5z M27.5,103.9h-1.3v0.5h1.3
			V103.9z M27.5,104.6h-1.3v0.6h1.3V104.6z"/>
		<path class="st7" d="M35.6,106.4c-0.9-0.3-1.7-0.8-2.3-1.6v1.6c0,0.1,0,0.2-0.1,0.2c-0.1,0.1-0.2,0.1-0.3,0.1s-0.1-0.1-0.1-0.2
			V105c-0.8,0.7-1.8,1.2-2.9,1.5v-0.1c0.9-0.4,1.8-1,2.5-1.7h-2l-0.1-0.2h2.5V104H31l-0.1-0.2h2v-0.5h-2.1l-0.1-0.2h1.7
			c-0.1,0-0.1-0.1-0.2-0.3c-0.1-0.2-0.2-0.4-0.4-0.6h-1.5l-0.1-0.2h2.3v-1.4l0.5,0.1c0.2,0,0.2,0,0.2,0.1s0,0.1-0.2,0.2v1h0.6v-1.3
			l0.5,0.1c0.2,0,0.2,0,0.2,0.1s0,0.1-0.2,0.2v1H34c0.3-0.3,0.5-0.6,0.7-1l0.5,0.2c0.1,0,0.1,0.1,0.1,0.1c0,0.1-0.1,0.1-0.1,0.1H35
			c-0.3,0.2-0.6,0.4-0.9,0.6h1.1l0.2-0.3l0.1-0.1c0.1,0,0.1,0.1,0.2,0.1L36,102l0.1,0.1c0,0.1-0.1,0.1-0.1,0.1h-2l0.4,0.2
			c0,0,0.1,0,0.1,0.1s-0.1,0.1-0.3,0.1c-0.1,0.2-0.3,0.3-0.5,0.5h1l0.2-0.3c0-0.1,0.1-0.1,0.1-0.1c0.1,0,0.1,0,0.2,0.1l0.3,0.3
			l0.1,0.1l-0.1,0.1h-2.2v0.5h1.1l0.2-0.2c0-0.1,0.1-0.1,0.1-0.1s0.1,0,0.2,0.1l0.2,0.2c0,0,0.1,0,0.1,0.1s-0.1,0.1-0.1,0.1h-1.7
			v0.6H35l0.2-0.3l0.1-0.1c0.1,0,0.1,0,0.1,0.1l0.3,0.3l0.1,0.1l-0.1,0.1h-2.3c0.8,0.7,1.7,1.1,2.7,1.2v0.1
			C35.9,106,35.7,106.2,35.6,106.4L35.6,106.4z M31.9,102c-0.1,0-0.1,0-0.3-0.3c-0.1-0.2-0.3-0.4-0.5-0.5V101c0.5,0.1,1,0.5,1,0.8
			C32.1,101.9,32,102,31.9,102L31.9,102z M31.9,102.2c0.3,0.2,0.7,0.4,0.7,0.7c0,0.1,0,0.2-0.1,0.2h1.1c0.1-0.3,0.3-0.6,0.4-0.9
			C34,102.2,31.9,102.2,31.9,102.2z"/>
		<path class="st0" d="M231.7,136c-0.2,0.1-0.2,0.1-0.3,0.5c-0.2,0.9-0.7,1.8-1.4,2.5c-0.6,0.6-1.4,1-2.2,1v-0.1
			c1.8-0.6,3-2.2,3.1-4c-1,0-1.9,0.1-2.9,0.4c-0.1,0-0.1,0.1-0.1,0.1c-0.3-0.2-0.6-0.4-0.7-0.8l0,0c0.2,0.2,0.4,0.3,0.7,0.3l2.3-0.2
			c0.6,0,0.7-0.1,0.8-0.1s0.2-0.2,0.3-0.2c0.2,0.1,0.4,0.3,0.6,0.5C231.8,135.9,231.8,136,231.7,136L231.7,136z M232.4,135.6
			c-0.4,0-0.7-0.4-0.6-0.8c0-0.3,0.3-0.6,0.6-0.6l0,0c0.4,0,0.7,0.3,0.7,0.7l0,0l0,0C233.1,135.2,232.8,135.6,232.4,135.6
			C232.5,135.6,232.5,135.6,232.4,135.6L232.4,135.6L232.4,135.6z M232.4,134.3c-0.3,0-0.5,0.2-0.5,0.5s0.2,0.5,0.5,0.5
			s0.5-0.2,0.5-0.5C232.9,134.6,232.7,134.4,232.4,134.3C232.4,134.4,232.4,134.4,232.4,134.3L232.4,134.3z"/>
		<path class="st0" d="M239,136.1c-0.1,0-0.2,0.1-0.2,0.2c0,0.1-0.4,1.8-0.5,2.1c0.1,0.1,0.4,0.2,0.4,0.3s-0.1,0.1-0.2,0.1H238
			c-0.8,0-1.6,0-2.4,0.2c0,0.1,0,0.4-0.1,0.4s-0.2-0.2-0.3-0.3s-0.1-0.3-0.1-0.4v-0.2c0-0.5-0.1-1.4-0.1-1.9s-0.1-0.8-0.4-1v-0.1
			c0.3,0,0.5,0.2,0.7,0.3s0.4,0.1,0.6,0.1c0.8,0,1.6-0.2,2.4-0.3l0.2-0.1h0.1c0.1,0,0.1,0,0.2,0.1l0.4,0.3l0.1,0.1
			C239.2,136.1,239.1,136.1,239,136.1z M236.1,136.2h-0.4c-0.2-0.1-0.3-0.2-0.5-0.2c0.1,0.4,0.2,0.9,0.2,1.4s0,0.9,0.1,1.4l2.4-0.2
			c0.1-0.5,0.1-1,0.3-1.4c0.1-0.4,0.1-0.7,0.1-1.1C237.6,136,236.9,136.1,236.1,136.2z"/>
		<path class="st0" d="M245,136.2c-0.1,0.1-0.1,0.2-0.1,0.2c-0.1,0.3-0.3,0.6-0.4,0.8l-0.4,0.6c0.2,0.2,0.3,0.4,0.3,0.7
			c0,0.1,0,0.3-0.2,0.3c-0.1,0-0.2,0-0.2-0.1l-0.2-0.4c-0.7,0.9-1.7,1.5-2.9,1.7v-0.1c1.1-0.3,2-1.1,2.6-2c-0.3-0.4-0.7-0.7-1.1-0.9
			c-0.4,0.4-0.9,0.8-1.4,1l0,0c0.4-0.3,0.8-0.7,1.1-1.2c0.3-0.4,0.6-0.9,0.7-1.4c0-0.1,0-0.2-0.1-0.3l0,0c0.2,0,0.3,0.1,0.6,0.5
			c0.1,0.1,0.1,0.2,0.2,0.3h0.3c0.3,0,0.5,0,0.7-0.1c0.1-0.1,0.2-0.1,0.2-0.1s0.1,0,0.3,0.2s0.3,0.2,0.3,0.3S245.2,136.1,245,136.2z
			 M243.4,136.1h-0.1c0,0-0.2-0.1-0.2-0.2c-0.2,0.4-0.4,0.7-0.7,1c0.5,0.1,0.9,0.3,1.3,0.6c0.3-0.5,0.6-1,0.7-1.5
			C244.2,136,243.4,136.1,243.4,136.1z M245.5,135.8c-0.1,0-0.1,0-0.4-0.3c-0.2-0.2-0.4-0.4-0.6-0.6l0,0c0.3,0.1,0.5,0.2,0.8,0.3
			c0.1,0.1,0.2,0.2,0.2,0.4C245.6,135.8,245.6,135.8,245.5,135.8L245.5,135.8z M246.1,135.4c-0.1,0-0.1,0-0.2-0.2
			c-0.2-0.3-0.4-0.5-0.7-0.6l0,0c0.3,0.1,1,0.2,1,0.6C246.2,135.2,246.2,135.4,246.1,135.4z"/>
		<path class="st0" d="M251.9,136.4c-0.1,0-0.1,0.1-0.2,0.2c-0.6,1.8-2.1,3.1-4,3.4v-0.1c0.9-0.3,1.8-0.8,2.4-1.6
			c0.5-0.6,0.9-1.3,1-2.1l-0.4,0.1c-0.3,0.1-0.5,0.1-0.8,0.1c0,0-0.1,0-0.2-0.1l-0.2-0.1c-0.3,0.4-0.6,0.7-1,1.1
			c-0.3,0.3-0.6,0.5-1,0.7v-0.1c0.9-0.6,1.6-1.5,1.9-2.6c0-0.1-0.1-0.1-0.1-0.2l0.1-0.1c0.2,0,0.4,0.1,0.5,0.2c0,0,0.3,0.3,0.3,0.4
			s0,0-0.1,0.1s-0.2,0.2-0.3,0.4c0.1,0.1,0.2,0.1,0.3,0.1c0.4,0,0.9-0.1,1.3-0.2c0.1-0.1,0.1-0.1,0.2-0.1c0.2,0.1,0.4,0.3,0.6,0.6
			C252.1,136.3,252.1,136.3,251.9,136.4z"/>
		<path class="st0" d="M256.3,138.1c0,0-0.1,0-0.2-0.2c-0.3-0.5-0.8-0.9-1.3-1.1v1.6c0,0.3,0,0.5,0,0.8c0,0.2,0,0.3,0,0.5
			s-0.1,0.3-0.2,0.3c-0.2,0-0.4-0.7-0.4-0.8l0.1-0.2c0-0.2,0-0.2,0.1-0.3c0-0.4,0.1-1.5,0.1-1.7v-1.9c0-0.1-0.1-0.2-0.1-0.3
			l-0.2-0.2v-0.1c0.2,0,0.4,0,0.6,0.1c0.2,0.1,0.3,0.2,0.3,0.3s0,0.2-0.1,0.2c0,0.3-0.1,0.5-0.1,0.8v0.6c0.7,0.2,1.7,0.4,1.7,1.2
			C256.5,138,256.4,138.1,256.3,138.1z"/>
		<path class="st0" d="M264.4,136.5c-0.1,0-0.2,0.1-0.4,0.4c-0.2,0.2-0.4,0.5-0.5,0.7s-0.3,0.3-0.5,0.4l0,0c0.3-0.4,0.6-0.9,0.7-1.4
			c-0.3,0.1-1.7,0.6-1.8,0.6c0,0.4,0,0.8,0,1.2c0,0.7,0.1,0.9,0.9,0.9c0.2,0,1.4-0.1,1.5-0.1s0.4,0.2,0.4,0.3s-0.1,0.2-0.2,0.2h-2.1
			c-0.4,0-0.7-0.2-0.8-0.6c-0.1-0.3-0.1-0.7,0-1v-0.8c-0.4,0.1-0.7,0.2-1,0.4c-0.1,0.1-0.1,0.1-0.2,0.1c-0.2,0-0.5-0.4-0.6-0.7l0,0
			c0.1,0.1,0.2,0.1,0.4,0.1c0.5-0.1,0.9-0.2,1.4-0.4V136c0-0.5,0-0.6-0.2-0.8l-0.2-0.2v-0.1h0.2c0.3,0,0.9,0.2,0.9,0.5
			c0,0.1-0.1,0.3-0.1,0.4c-0.1,0.4-0.1,0.7-0.1,1.1c0.6-0.1,1.1-0.3,1.6-0.5c0.1-0.1,0.2-0.1,0.3-0.3c0.1-0.1,0.1-0.1,0.2-0.1
			c0.2,0.1,0.4,0.2,0.6,0.3c0,0,0.1,0.1,0.1,0.2C264.7,136.4,264.6,136.4,264.4,136.5z"/>
		<path class="st0" d="M268.4,135.8c0,0.1,0,0.2,0,0.3c0,0.8-0.1,1.6-0.5,2.3c-0.4,0.6-1,1.1-1.6,1.3v-0.1c1.1-0.7,1.8-2.1,1.7-3.4
			c0-0.4,0-0.8-0.3-1v-0.1c0.2,0,0.4,0.1,0.6,0.2c0.2,0.1,0.3,0.2,0.3,0.2S268.5,135.7,268.4,135.8z M270.7,138.6
			c-0.1,0.1-0.9,0.4-0.9,0.5c-0.1,0.1-0.1,0.1-0.2,0.2c0,0.1-0.1,0.1-0.1,0.1s-0.1-0.1-0.2-0.2l-0.3-0.4v-0.1c0-0.1,0-0.1,0.1-0.3
			c0.1-0.8,0.1-1.7,0.1-2.5c0-0.3-0.1-0.4-0.3-0.6v-0.1c0.2,0,0.4,0,0.5,0.1c0.2,0.1,0.4,0.3,0.4,0.3c0,0.1-0.1,0.1-0.1,0.2
			c-0.1,0.1-0.1,0.3-0.1,0.4l-0.1,2.4c0.5,0,1-0.2,1.4-0.5s0.9-0.6,1.3-0.9v0.1C271.9,137.8,271.4,138.3,270.7,138.6L270.7,138.6z"
			/>
		<path class="st0" d="M278.3,135.9c-0.1,0.1-0.2,0.2-0.3,0.4c-0.2,0.8-0.6,1.5-1.1,2.1s-1.1,1-1.8,1.2c-0.3,0.1-0.6,0.2-0.9,0.2
			v-0.1c0.8-0.2,1.6-0.7,2.1-1.4c0.6-0.7,1-1.6,1.1-2.5h-0.3c-0.9,0-1.7,0.2-2.5,0.4c0,0-0.1,0-0.1,0.1c-0.3-0.1-0.6-0.4-0.7-0.7
			h0.1c0.2,0.1,0.3,0.2,0.9,0.2c0.3,0,2.5-0.2,2.6-0.2s0.1,0,0.3-0.2s0.1-0.1,0.1-0.1c0.1,0,0.1,0,0.1,0.1s0.4,0.3,0.4,0.4
			S278.4,135.8,278.3,135.9z"/>
		<path class="st0" d="M284.2,136c-0.2,0.1-0.2,0.1-0.3,0.5c-0.2,1-0.7,1.8-1.4,2.5c-0.6,0.6-1.4,1-2.2,1l0,0c0.9-0.2,2.7-1.2,3.1-4
			c-1,0-1.9,0.1-2.9,0.4c-0.1,0-0.1,0.1-0.1,0.1c-0.3-0.2-0.6-0.4-0.7-0.8l0,0c0.2,0.2,0.4,0.3,0.7,0.3l2.3-0.2
			c0.6,0,0.6-0.1,0.8-0.1s0.2-0.2,0.2-0.2S284.2,135.9,284.2,136S284.3,136,284.2,136z M284.9,135.6c-0.4,0-0.7-0.3-0.7-0.7l0,0l0,0
			c0-0.4,0.3-0.7,0.7-0.7c0.4,0,0.7,0.3,0.7,0.7l0,0C285.7,135.2,285.4,135.6,284.9,135.6C285,135.6,285,135.6,284.9,135.6
			L284.9,135.6L284.9,135.6z M284.9,134.3c-0.3,0-0.5,0.2-0.5,0.5s0.2,0.5,0.5,0.5s0.5-0.2,0.5-0.5S285.2,134.4,284.9,134.3
			C285,134.4,284.9,134.4,284.9,134.3L284.9,134.3z"/>
		<path class="st0" d="M291.6,136.1c-0.1,0-0.2,0.1-0.2,0.2c0,0.1-0.4,1.8-0.5,2.1c0.1,0.1,0.4,0.2,0.4,0.3s-0.1,0.1-0.2,0.1h-0.5
			c-0.8,0-1.6,0-2.4,0.2c0,0.1,0,0.4-0.1,0.4s-0.2-0.2-0.3-0.3c-0.1-0.1-0.1-0.3-0.1-0.4v-0.2c0-0.5-0.1-1.4-0.1-1.9s-0.1-0.8-0.4-1
			v-0.1c0.3,0,0.5,0.2,0.7,0.3s0.4,0.1,0.6,0.1c0.8,0,1.6-0.2,2.4-0.3l0.2-0.1h0.1c0.1,0,0.1,0,0.2,0.1l0.4,0.3l0.1,0.1
			C291.7,136.1,291.6,136.1,291.6,136.1z M288.6,136.2h-0.4c-0.2-0.1-0.3-0.2-0.5-0.2c0.1,0.4,0.2,0.9,0.2,1.4s0,0.9,0.1,1.4
			l2.4-0.2c0.1-0.5,0.1-1,0.3-1.4c0.1-0.4,0.1-0.7,0.1-1.1C290.1,136,289.4,136.1,288.6,136.2z"/>
		<path class="st0" d="M298.6,136.9c-0.2,0-0.4,0-0.5-0.1h-0.8c-0.3,0-0.6,0-0.9,0.1l0.2,0.1c0.1,0,0.1,0,0.1,0.1s-0.1,0.2-0.2,0.3
			s-0.1,0.4-0.1,0.5c-0.2,1.2-1.1,2.1-2.3,2.2l0,0c0.5-0.2,0.9-0.5,1.2-0.9c0.4-0.5,0.6-1.2,0.7-1.9c0-0.2-0.1-0.3-0.3-0.3l0,0l0,0
			c-0.4,0-0.8,0.1-1.1,0.2c-0.3,0.1-0.3,0.1-0.4,0.1s-0.2,0-0.3-0.1c-0.1-0.1-0.3-0.3-0.4-0.4l0,0l0.3,0.1h0.3l2.2-0.2
			c0.2,0,1.3-0.1,1.5-0.1c0.1,0,0.2-0.1,0.2-0.1s0.8,0.2,0.8,0.4C298.8,136.8,298.7,136.9,298.6,136.9z M297.7,135.5h-0.5
			c-0.6,0-1.2,0-1.7,0.1c-0.1,0-0.4,0.1-0.4,0.1c-0.1,0-0.2-0.1-0.3-0.2c-0.1-0.1-0.2-0.3-0.3-0.4h0.1c0.1,0.1,0.2,0.1,0.3,0.2
			c0.1,0,0.3,0,0.4,0.1c0,0,1.3-0.1,1.5-0.1c0.2-0.1,0.4-0.1,0.6-0.2c0.1,0,0.7,0.3,0.7,0.4S297.7,135.5,297.7,135.5L297.7,135.5z
			 M298.9,135.7c-0.1,0-0.2-0.2-0.3-0.2c-0.1-0.3-0.3-0.5-0.6-0.7v-0.1c0.3,0,0.6,0.1,0.8,0.3c0.1,0.1,0.2,0.3,0.2,0.5
			C299,135.6,299,135.7,298.9,135.7L298.9,135.7z M299.4,135.1c-0.1,0-0.1,0-0.2-0.2c-0.2-0.3-0.5-0.5-0.8-0.7l0,0
			c0.5,0.1,1.1,0.2,1.1,0.8C299.4,135.1,299.4,135.1,299.4,135.1z"/>
		<path class="st0" d="M304.4,139.9l-0.4-0.1c-0.3-0.1-0.6-0.1-0.9-0.1c-0.8,0-1.5,0.1-2.3,0.3l-0.5,0.2c-0.2,0-0.3-0.1-0.4-0.2
			c-0.1-0.1-0.1-0.2-0.1-0.3h0.1c0.1,0.1,0.2,0.1,0.4,0.1c0.1,0,1-0.1,1.1-0.2l1.1-0.1c0.1-0.7,0.2-1.3,0.3-2c-0.4,0-0.8,0-1.1,0.1
			c-0.1,0.1-0.3,0.1-0.5,0.1c-0.1,0-0.4-0.2-0.5-0.6l0,0c0.1,0.1,0.3,0.2,0.5,0.2c0.5,0,0.9-0.1,1.4-0.2c0.1-0.1,0.1-0.1,0.2-0.1
			c0.2,0.1,0.4,0.2,0.5,0.4v0.1v0.1l-0.1,0.1c-0.1,0.4-0.2,1.2-0.4,1.8c0.3,0,0.7,0,1-0.1h0.2c0.1,0,0.2,0.1,0.2,0.1
			C304.4,139.7,304.5,139.8,304.4,139.9C304.5,139.9,304.5,139.9,304.4,139.9z"/>
		<path class="st0" d="M310,137.6h-0.2c-0.4,0-0.9-0.1-1.3-0.1c-0.6,0-2.2,0.1-2.3,0.1s-0.4,0.1-0.4,0.1c-0.2,0-0.5-0.4-0.5-0.8h0.1
			c0.2,0.2,0.4,0.4,0.7,0.4l2.9-0.1c0.1,0,0.5-0.1,0.6-0.1c0.3,0,0.7,0.2,0.7,0.4S310.1,137.6,310,137.6z"/>
		<path class="st0" d="M315.2,139.7c-0.1,0-0.1,0-0.3-0.4c-0.3-0.6-0.7-1.1-1.2-1.4c-0.7,1-1.8,1.6-3,1.9v-0.1
			c1.7-0.7,3.1-2.1,3.5-3.9c-0.7,0.1-1.3,0.2-2,0.4c-0.1,0.1-0.2,0.1-0.2,0.1c-0.2,0-0.4-0.3-0.5-0.7h0.1c0.1,0.2,0.3,0.3,0.5,0.3
			l2-0.3c0.1,0,0.1,0,0.3-0.1s0.1-0.1,0.2-0.1s0.1,0,0.3,0.2s0.2,0.3,0.2,0.3s-0.1,0.1-0.2,0.2s-0.1,0-0.2,0.2s-0.1,0.3-0.2,0.5
			c-0.2,0.4-0.4,0.7-0.6,1.1c0.1,0.1,0.7,0.4,0.8,0.5c0.7,0.6,0.8,1.1,0.8,1.2C315.4,139.5,315.3,139.6,315.2,139.7z"/>
		<path class="st9" d="M123.2,89.6c0,0,0.6,2.2,0.7,2.6s1.2,0.2,1.2,0.2l-0.3-3.5L123.2,89.6z"/>
		<path class="st9" d="M116.8,89.4c0,0,0.2,2.3,0.2,2.7s1.2,0.4,1.2,0.4l0.4-3.5L116.8,89.4z"/>
		<path class="st9" d="M117.2,60.7l-0.4-1.2v-2.1c-0.3-0.2-0.5-0.6-0.5-1v-1c0,0,0.3-1.8,1.5-1.8c0.7,0,1.3,0.5,1.3,1.3v0.5
			c0,0,0.3-0.3,0.4-0.1s0.2,0.2-0.1,0.6c-0.2,0.2-0.3,0.5-0.3,0.7v1.7c0,0,0.4,2.1,0.7,2.3C119.8,60.5,118.1,61.3,117.2,60.7z"/>
		<path class="st0" d="M122.6,68.7c0,0,0.3,1.6,0.5,3.6c0.1,1.6,1,7.8,1,9s1.2,7.8,1.2,8.2s-2.2,0.3-2.2,0.3s-1.1-5.8-1.7-6.7
			c-1-2.8-1.8-5.7-2.3-8.6c-0.2-0.9-0.5-1.8-0.8-2.6c0,0,0.3,7.8,0.2,9.1c0,0.9,0,1.8,0.1,2.7l0.3,6.3l-2.3-0.1c0,0-0.9-9.3-0.9-9.6
			s-1-4.2-0.8-4.9s-0.8-3.7-0.8-4.5S122.6,68.7,122.6,68.7z"/>
		<path class="st8" d="M117,60l1.6,1l1.1-1.4c0,0,5.5,7.7,5.2,8.6c-0.3,0.7-0.8,1.3-1.4,1.8l-6.7,0.2L117,60z"/>
		<path class="st0" d="M124.7,63.7c-0.1,0.2,1.9,1.9,1.9,1.9c0.5-0.5,0.9-1.1,1.1-1.8c0.2-1-0.1-1.2-0.4-1.8
			c-0.1-0.2-0.3-0.4-0.6-0.3c-0.1,0-0.1,0.1-0.2,0.1c0,0-0.1-0.5-0.4-0.5s-0.9-1-1.4-1.4s-1-1.3-1.3-1.4s-1.9,0.1-2.4,0.1
			c-0.6-0.1-1.1-0.2-1.6-0.3c0,0-0.4-0.1-0.4,0.1c0.1,0.7,0.4,1.5,0.8,2.1c0.7,0.8,1.4,1.7,2,2.7c0.4,0.7,0.8,1.5,1.2,2.2
			c0.3,0.8,0.5,1.6,0.6,2.5c0,0.4-0.3,2.2-0.3,2.2c0.6-0.3,1.1-0.7,1.6-1.1c0.2-0.3,0.5-0.7,0.5-0.7v-3"/>
		<path class="st0" d="M118,71.1c0,0-0.4-3.1-0.4-4.8s-0.4-4-0.4-4.9c-0.1-0.8-0.4-1.6-0.8-2.3l-0.1-0.4c0,0-1,0.6-1.1,0.9
			c0,0.2-0.1,0.4-0.2,0.5c-0.2,0.1-0.4,0.2-0.7,0.2c-0.6,0.1-1-0.3-1.1,0.2c-0.3,1-0.5,2-0.6,3c0.1,1,0,2-0.1,3
			c-0.1,0-0.3,0-0.1,0.3s0.3,0.4,0.1,0.8s-0.3,0.5-0.2,0.7c0.1,0.1,0.2,0.2,0.3,0.2c0,0,2.4-0.5,2.4-0.2s-0.2,1.6-0.2,1.8v0.6
			C114.8,70.8,117.8,71.1,118,71.1z"/>
		<path class="st9" d="M125.1,63.8c0,0-3.3,2.3-3.2,2.7s0.9,1.9,0.9,1.9c0.1-0.4,0.2-0.9,0.4-1.3c0.1-0.2,3.3-1.7,3.3-2
			S126.1,63.6,125.1,63.8z"/>
		<path class="st9" d="M112.9,68.3c0,0,1.6-0.7,2.1-0.2s0,1,0,1.9v4.7c0,0.6-1.7,0.9-1.7,0.4s0.1-2.4,0-3.3s-0.2-2-0.3-2.4
			C112.9,69,112.9,68.7,112.9,68.3z"/>
		<path class="st10" d="M117.8,54.2c0.2-0.1,0.4-0.2,0.6-0.2c0.3,0,0.7,1.3,0.7,1.6c-0.2,1.2-0.1,2.4,0.3,3.6
			c0.7,1.5,2.3,1.4,2.3,2.7c0.1,0.6,0,1.2-0.3,1.7c0,0,1.7-0.9,1.7-1.6c-0.1-0.7,0-1.4,0.2-2.1c0.2-1,0.5-1,0.2-2s-2.8-4.6-4.1-4.9
			s-2.4-1.1-3.1,0.4s-0.2,2.8-0.3,4.1s-1.5,2.6-1.5,3.7s1.2,2.2,1.4,2.7c0.2,0.5-0.2-0.1,0.2-1.1c0.6-1.7,0.9-3.5,1-5.3
			c-0.3-0.7-0.4-1.5-0.5-2.2C116.5,54.4,117.3,53.6,117.8,54.2z"/>
		<path class="st11" d="M117,92h0.9c0.7,0,0.6-0.1,1-0.1s0.5,0.8,0.3,1s-0.7,0.2-1.5,0.3s-1.2,0.2-1.2-0.2S116.2,92,117,92z"/>
		<path class="st11" d="M124.4,92h0.9c0.7,0,0.6-0.1,1-0.1s0.5,0.8,0.3,1s-0.7,0.2-1.5,0.3s-1.2,0.2-1.2-0.2S123.7,92,124.4,92z"/>
		<path class="st12" d="M117.3,56.5c0,0,0.5,0.3,0.8-0.1l0.1-0.1c0,0-0.3-0.2-0.4-0.2l-0.1,0.1h-0.2L117.3,56.5z"/>
		<path class="st0" d="M129.4,63.7c0,0,0,1.7-1.4,1.6c0.9,0.4,1.5,1.2,1.5,2.2c0,0,0.2-2.5,1.9-2.3
			C131.4,65.2,129.4,65.2,129.4,63.7z"/>
		<path class="st0" d="M126.1,74.2c0,0-0.2,1.3-1.1,1.2c0.6,0.4,0.9,1.1,0.7,1.8c0,0,0.4-1.8,1.5-1.6
			C127.2,75.5,125.9,75.3,126.1,74.2z"/>
		<path class="st0" d="M110.8,57.3c0,0,0.1,1.3-1,1.3c0.7,0.2,1.2,0.8,1.3,1.6c0,0,0-1.9,1.4-1.9C112.5,58.3,110.9,58.5,110.8,57.3z
			"/>
		<path class="st0" d="M279.3,78.2c1.2-6.5-0.2-6.4-0.2-6.4l-1.4,0.3l0.5-1.3c-2.4-1.2-4.9-1.8-7.6-1.9l-0.4,1.4l-0.5-0.5
			c0,0-2.4,1-2.7,1.9s-1.6,5.8-1.6,5.8L266,78c-0.4,0.2-0.8,0.5-0.9,1c-0.2,0.8,0.6,4.2,0.6,4.2l0.9-0.5l-0.7,0.9c2.8,2,7.6,2,7.6,2
			l0.1-1l0.1,0.7c0.7,0.1,1.4-0.1,2-0.5c1.4-0.7,2.1-3.5,2.1-3.5l-0.5-0.6l1-0.1L279.3,78.2z M268.6,77.2c-1.3-1-0.4-1.6-0.4-1.6
			c1-0.6,2.2-0.5,3.1,0.1c0.5,0.3,0.8,1,0.7,1.6C271.8,77.8,269.8,78.2,268.6,77.2z M272,83.5c-0.4-0.1-0.9-0.2-1.3-0.2
			c0,0-1.7-0.7-1.6-1.2s1-0.7,1.4-0.6s2.3,0.5,2.5,1.2S272.4,83.6,272,83.5z M276.6,79c-0.8,0.4-1.7,0.3-2.4-0.2
			c-1-0.7-0.7-1.3-0.7-1.3c0-0.4,0.2-0.3,0.5-0.7c0.6-0.4,1.3-0.4,2-0.2c0.6,0.2,1,0.7,1,1.3C277,78.4,276.8,78.8,276.6,79L276.6,79
			z"/>
		<path class="st0" d="M265.9,63.1c0,0,0,1.7-1.4,1.6c0.9,0.4,1.5,1.2,1.5,2.2c0,0,0.2-2.5,1.9-2.3
			C267.9,64.6,265.9,64.6,265.9,63.1z"/>
		<path class="st0" d="M277.1,65.3c0,0-0.2,1.8-1.5,1.6c0.8,0.5,1.3,1.5,1,2.4c0,0,0.5-2.6,2.1-2.3C278.8,67.2,276.9,67,277.1,65.3z
			"/>
		<path class="st0" d="M261.9,71.9c0,0,0.1,1.3-1,1.3c0.7,0.2,1.3,0.8,1.3,1.6c0,0,0-1.9,1.4-1.9C263.6,72.9,262,73,261.9,71.9z"/>
		<polygon class="st0" points="47.2,108.8 93.3,95.6 93.3,122.1 47.2,122.1 		"/>
		<path class="st8" d="M53.3,114.4c0.2-0.3,0.4-0.5,0.6-0.8l-1,0.3l-0.4,0.1v0.5c0,0.8,0,0.9,0.5,0.9c0.3,0,0.5,0,0.8-0.1h0.1
			c0.1,0,0.2,0,0.2,0.1v0.1c0,0.1,0,0.1-0.1,0.1c-0.3,0-0.7,0.1-1,0.1c-0.2,0-0.5,0-0.7-0.2c-0.1-0.1-0.2-0.2-0.2-0.8v-0.5
			c-0.3,0.1-0.5,0.2-0.8,0.3h-0.1c-0.1,0-0.1-0.1-0.2-0.1c-0.1-0.1-0.1-0.2-0.1-0.3c0,0,0-0.1,0-0.2c0.2,0.2,0.2,0.2,0.3,0.2
			c0.3,0,0.6-0.1,0.9-0.2v-0.4c0-0.2,0-0.4,0-0.6c-0.1-0.1-0.2-0.2-0.3-0.2c0.1-0.1,0.2-0.1,0.3-0.1c0.2,0,0.4,0.1,0.4,0.2
			s0.1,0.1,0.1,0.2c-0.1,0.3-0.1,0.6-0.1,0.9l0.7-0.2c0.5-0.2,0.5-0.2,0.6-0.3s0.1,0,0.1,0c0.2,0.1,0.3,0.2,0.4,0.3
			c0,0.1-0.1,0.1-0.1,0.1h-0.1c0,0-0.1,0-0.1,0.1C53.8,114.1,53.5,114.3,53.3,114.4L53.3,114.4z"/>
		<path class="st8" d="M55.1,115.6c0.3-0.2,0.4-0.5,0.6-0.8c0.2-0.4,0.2-0.8,0.2-1.2c0-0.4,0-0.4-0.3-0.4c0.1-0.1,0.1-0.1,0.2-0.1
			c0.1,0,0.4,0.1,0.4,0.2v0.6c0,0.5-0.2,1-0.4,1.3C55.6,115.4,55.4,115.5,55.1,115.6L55.1,115.6z M58.5,113.7
			c-0.3,0.6-0.7,1-1.2,1.4c-0.1,0.1-0.2,0.1-0.3,0.2c0,0-0.1,0.2-0.2,0.2c-0.1-0.1-0.2-0.2-0.2-0.3c0-0.1,0-0.1,0-0.2
			c0-0.3,0-0.6,0-0.9v-1c0-0.2,0-0.1-0.3-0.2c0.1,0,0.1-0.1,0.2-0.1c0.1,0,0.3,0.1,0.4,0.2v0.1c0,0,0,0.1,0,0.2s0,0.2,0,0.3v1.6
			C57.6,114.7,58.1,114.2,58.5,113.7L58.5,113.7z"/>
		<path class="st8" d="M59.6,115.7c1-0.5,1.7-1.5,1.9-2.5c-0.6,0-1.2,0.1-1.8,0.2c-0.1,0-0.1,0-0.2,0.1l0,0c-0.1,0-0.3-0.2-0.3-0.4
			V113c0.1,0.1,0.2,0.2,0.4,0.2c0,0,1.7-0.2,1.8-0.2s0.1,0,0.2-0.1l0,0c0,0,0.3,0.2,0.3,0.3s0,0-0.1,0.1s-0.1,0.1-0.2,0.2
			c-0.2,0.5-0.4,1-0.7,1.4C60.5,115.3,60,115.6,59.6,115.7L59.6,115.7z"/>
		<path class="st8" d="M64.6,115.8c1-0.5,1.7-1.4,1.9-2.5c-0.6,0-1.1,0.1-1.7,0.2c-0.1,0-0.1,0-0.2,0.1h-0.1c0,0-0.1,0-0.1-0.1
			s-0.2-0.2-0.2-0.3V113c0.2,0.2,0.2,0.2,0.4,0.2l1.5-0.1c0.1,0,0.3,0,0.4-0.1h0.1c0,0,0,0,0.1,0l0.2,0.2l0,0l-0.1,0.1
			c-0.1,0.1-0.2,0.2-0.2,0.3c-0.2,0.6-0.5,1.1-0.9,1.5C65.4,115.4,65,115.7,64.6,115.8L64.6,115.8z M67.4,113.1
			C67.4,113.1,67.4,113.2,67.4,113.1c-0.2,0.1-0.2,0.1-0.3,0c-0.1-0.2-0.3-0.3-0.4-0.4C67,112.7,67.4,112.9,67.4,113.1z M67.5,112.6
			c0.1,0,0.2,0.2,0.2,0.3c0,0.1,0,0.1-0.1,0.1s0,0-0.1-0.1c-0.1-0.2-0.3-0.3-0.5-0.4C67.2,112.4,67.4,112.5,67.5,112.6z"/>
		<path class="st8" d="M68.7,115.8c0.9-0.4,1.6-1.2,1.8-2.1c-0.6,0-1.1,0.1-1.7,0.3c-0.1,0.1-0.1,0.1-0.1,0.1
			c-0.2-0.1-0.4-0.2-0.4-0.5v-0.1c0.1,0.2,0.3,0.3,0.4,0.3c0.2,0,1.6-0.1,1.7-0.1s0.1-0.1,0.2-0.1c0,0,0,0,0.1,0
			c0,0,0.3,0.2,0.3,0.3s0,0-0.1,0.1s-0.1,0-0.1,0.2c-0.2,0.5-0.6,1-1,1.4C69.4,115.7,69,115.8,68.7,115.8L68.7,115.8z M69.1,112.8
			c0.3,0,0.7,0,1-0.1c0.1,0,0.2-0.1,0.2-0.1s0.3,0,0.3,0.1s-0.1,0.1-0.4,0.1H69.1c-0.2,0.1-0.4,0-0.4-0.3
			C68.7,112.8,68.9,112.9,69.1,112.8L69.1,112.8z"/>
		<path class="st8" d="M73.1,113.3C73.1,113.4,73,113.4,73.1,113.3c-0.2,0.1-0.2,0.1-0.3-0.1c-0.2-0.2-0.4-0.3-0.7-0.4
			C72.6,112.8,73.1,113,73.1,113.3z M74.9,113.2c-0.3,0.6-0.8,1.1-1.3,1.5c-0.2,0.2-0.4,0.3-0.6,0.4c-0.1,0.1-0.2,0.2-0.3,0.2
			l-0.1,0.1c-0.1,0-0.4-0.3-0.4-0.5c0-0.1,0-0.1,0.1-0.2c0.1,0.2,0.2,0.3,0.3,0.3c0.2-0.1,0.5-0.2,0.7-0.4
			C73.8,114.3,74.4,113.8,74.9,113.2L74.9,113.2z"/>
		<path class="st8" d="M76.3,115.8c0.3-0.2,0.6-0.6,0.8-0.9c0.2-0.3,0.3-0.6,0.3-0.9c0-0.1,0-0.1-0.1-0.2c-0.3,0-0.7,0.1-1,0.2
			c-0.1,0-0.1,0.1-0.2,0.1c-0.2-0.1-0.3-0.2-0.3-0.4v-0.1c0.2,0.3,0.3,0.3,0.4,0.3h0.4c0.4-0.1,0.5-0.1,1.8-0.2h0.2
			c0,0,0.4,0.1,0.4,0.2s0,0.1-0.1,0.1h-0.3c-0.2,0-0.3,0-0.5,0h-0.6l0.2,0.2l0,0l-0.1,0.1c0,0,0,0,0,0.1c-0.1,0.7-0.6,1.4-1.3,1.7
			L76.3,115.8z M78,112.9c-0.3,0-0.7,0-1,0.1h-0.2c-0.2,0-0.3-0.1-0.3-0.3l0,0l0,0c0.1,0.1,0.3,0.1,0.5,0.1h0.6c0.1,0,0.2,0,0.3-0.1
			H78c0.1,0,0.2,0,0.3,0.1c0,0,0.1,0,0.1,0.1l0,0C78.3,113,78.2,113,78,112.9L78,112.9z M79.2,113.3
			C79.2,113.3,79.2,113.4,79.2,113.3c-0.2,0.1-0.2,0-0.3-0.1s-0.3-0.3-0.4-0.3C78.8,112.9,79.2,113,79.2,113.3z M79.5,113
			C79.5,113,79.5,113.1,79.5,113c-0.2,0.1-0.2,0.1-0.3-0.1s-0.3-0.3-0.5-0.4C79.1,112.6,79.5,112.7,79.5,113z"/>
		<path class="st8" d="M79.4,114.8c0.7-0.4,1.3-1,1.8-1.6c0,0,0-0.1-0.2-0.2h0.2c0.1,0,0.2,0,0.3,0.2s0.1,0.1,0.1,0.1s0,0-0.1,0.1
			l-0.2,0.1c-0.1,0.1-0.4,0.4-0.5,0.5c0.1,0.1,0.2,0.1,0.2,0.1v1.6c0,0,0,0.1-0.1,0.1s-0.1-0.1-0.1-0.2v-0.9c0-0.2,0-0.4,0-0.6l0,0
			C80.3,114.5,79.9,114.7,79.4,114.8L79.4,114.8z"/>
		<path class="st8" d="M83.8,113.3C83.8,113.4,83.7,113.4,83.8,113.3c-0.2,0.1-0.2,0.1-0.3-0.1c-0.2-0.2-0.4-0.3-0.7-0.4
			C83.3,112.8,83.8,113,83.8,113.3z M85.6,113.2c-0.3,0.6-0.8,1.1-1.3,1.5l-0.6,0.4c-0.1,0.1-0.2,0.1-0.3,0.2l-0.1,0.1
			c-0.1,0-0.4-0.3-0.4-0.5c0-0.1,0-0.1,0.1-0.2c0.1,0.2,0.2,0.3,0.3,0.3c0.2-0.1,0.5-0.2,0.7-0.4C84.5,114.3,85.1,113.8,85.6,113.2
			L85.6,113.2z"/>
		<path class="st8" d="M86.2,115.8c0.5-0.2,1-0.6,1.3-1s0.6-0.9,0.8-1.4l0,0l-0.7,0.1c-0.1,0-0.2,0-0.2-0.1c-0.3,0.4-0.7,0.8-1.1,1
			l0,0c0.5-0.4,0.9-0.9,1.1-1.5c0-0.1-0.2-0.2-0.2-0.2c0.1,0,0.1,0,0.2,0c0.2,0,0.4,0.2,0.4,0.3s0,0-0.1,0.1l-0.2,0.3h0.2
			c0.3,0,0.5,0,0.8-0.1l0.1-0.1l0,0l0.2,0.2l0.1,0.1c0,0,0,0.1-0.2,0.1s-0.1,0.1-0.2,0.2c-0.4,1-1.3,1.8-2.3,2.2L86.2,115.8z
			 M89.2,113.1C89.2,113.2,89.2,113.2,89.2,113.1L89.2,113.1L89.2,113.1c-0.1,0.1-0.2,0.1-0.3-0.1c-0.1-0.1-0.3-0.3-0.4-0.4
			C88.7,112.7,89.1,112.8,89.2,113.1z M89.6,112.9C89.6,112.9,89.6,113,89.6,112.9c-0.1,0.1-0.2,0-0.2,0c-0.2-0.2-0.3-0.3-0.5-0.4
			C89,112.5,89.6,112.5,89.6,112.9z"/>
		<path class="st7" d="M110.6,101c0.5-0.3,0.9-0.6,1.2-1.1c0.3-0.4,0.5-0.9,0.6-1.4c-0.6,0-1.2,0.1-1.8,0.2l-0.1,0.1h-0.1
			c-0.1,0-0.1-0.1-0.2-0.1c-0.1-0.1-0.1-0.2-0.1-0.3v-0.1c0.1,0.1,0.1,0.2,0.2,0.2s0.1,0,0.2,0c0.2,0,1.8-0.2,1.8-0.2l0.2-0.1
			c0,0,0.3,0.2,0.3,0.3s0,0-0.1,0.1s-0.1,0.1-0.1,0.2c-0.2,0.6-0.5,1.1-0.9,1.5C111.4,100.6,111,100.8,110.6,101L110.6,101z
			 M113.2,98.3c-0.2,0-0.4-0.1-0.4-0.4l0,0l0,0c0-0.2,0.2-0.4,0.4-0.3l0,0c0.2,0,0.3,0.2,0.3,0.3C113.6,98.2,113.4,98.4,113.2,98.3
			C113.2,98.4,113.2,98.4,113.2,98.3L113.2,98.3L113.2,98.3z M113.2,97.7c-0.1,0-0.3,0.1-0.3,0.2l0,0l0,0c0,0.1,0.1,0.3,0.2,0.3l0,0
			c0.1,0,0.3-0.1,0.3-0.2v-0.1C113.4,97.8,113.3,97.7,113.2,97.7L113.2,97.7z"/>
		<path class="st7" d="M116.7,98.9c-0.5,0.7-1.1,1.3-1.9,1.7l-0.2,0.1l-0.1,0.2c0,0,0,0-0.1,0s-0.2-0.3-0.2-0.3c0-0.1,0-0.1,0.1-0.2
			c0-0.1,0-0.2,0-0.2v-1.8c0-0.1-0.1-0.2-0.3-0.2c0.1-0.1,0.2-0.1,0.3-0.1c0.1,0,0.4,0.1,0.4,0.2s0,0.1-0.1,0.2v2.1
			C115.3,100.1,116.1,99.6,116.7,98.9L116.7,98.9z"/>
		<path class="st7" d="M119.2,99.7c0.2-0.2,0.4-0.5,0.6-0.8l-0.2,0.1l-1.1,0.3v0.6c0,0.2,0,0.4,0.1,0.6c0.1,0.1,0.2,0.2,0.5,0.2
			c0.2,0,0.5,0,0.7-0.1h0.1c0.2,0,0.3,0.1,0.3,0.1s0,0.1-0.1,0.1c-0.3,0.1-0.6,0.1-0.9,0.1c-0.6,0-0.8-0.1-0.9-0.4v-1.1
			c-0.2,0.1-0.5,0.1-0.7,0.2l-0.1,0.1h-0.1c-0.2-0.1-0.3-0.2-0.3-0.4v-0.1c0.2,0.2,0.2,0.2,0.3,0.2c0.3,0,0.6-0.1,0.9-0.2v-0.8
			c0-0.3-0.1-0.3-0.4-0.4c0.1-0.1,0.2-0.1,0.2-0.1c0.2,0,0.3,0.1,0.4,0.2c0,0,0,0,0,0.1s0,0.1,0,0.2s-0.1,0.7-0.1,0.8l1.2-0.3
			c0,0,0,0,0.1-0.1s0.1-0.1,0.1-0.1l0.4,0.3c0,0,0,0.1-0.2,0.1c-0.1,0-0.1,0-0.2,0.1C119.8,99.3,119.5,99.5,119.2,99.7L119.2,99.7z
			 M119.8,98c0.2,0,0.4,0.1,0.4,0.3c0,0,0,0.1-0.1,0.1l0,0l0,0c-0.1,0-0.1,0-0.2-0.1s-0.3-0.2-0.5-0.3H119.8z M120.3,97.8
			c0.1,0,0.2,0.1,0.2,0.3c0,0.1,0,0.1-0.1,0.1s0,0-0.2-0.1c-0.1-0.1-0.3-0.3-0.5-0.3C120,97.7,120.2,97.7,120.3,97.8z"/>
		<path class="st7" d="M122,98.6c0,0.1-0.1,0.1-0.2,0.1s-0.1,0-0.2-0.2c-0.2-0.2-0.4-0.3-0.7-0.4C121.4,98.1,122,98.3,122,98.6z
			 M123.7,98.5c-0.3,0.6-0.8,1.1-1.3,1.5l-0.6,0.4c-0.1,0.1-0.2,0.2-0.3,0.3l-0.1,0.1c-0.1,0-0.4-0.3-0.4-0.5c0-0.1,0-0.1,0.1-0.2
			c0.1,0.2,0.2,0.3,0.3,0.3c0.2-0.1,0.5-0.2,0.7-0.4C122.7,99.5,123.2,99,123.7,98.5L123.7,98.5z"/>
		<path class="st7" d="M127.6,98.6L127.6,98.6l-0.1,0.9c0,0.3-0.1,0.7-0.1,1c-0.1,0.5-0.5,0.8-0.9,0.8c0-0.1,0-0.1-0.2-0.2l-0.3-0.2
			l0,0c0.2,0.1,0.5,0.1,0.7,0.1s0.4-0.1,0.4-0.3c0.2-0.7,0.2-1.4,0.2-2.1H126c0,0.5-0.1,0.9-0.3,1.3c-0.3,0.7-0.8,1.2-1.5,1.3l0,0
			c0.4-0.2,0.7-0.5,1-0.9c0.3-0.5,0.5-1.1,0.6-1.8H125c-0.2,0-0.4,0-0.5,0.1l-0.1-0.2h1.5c0-0.3,0-0.7-0.1-1l0.4,0.1
			c0,0,0.1,0,0.1,0.1l0,0c0,0.1-0.1,0.1-0.2,0.2s0,0.3,0,0.6h1.2l0.1-0.1h0.1L127.6,98.6C127.7,98.5,127.7,98.6,127.6,98.6
			L127.6,98.6z"/>
		<polygon class="st0" points="95.5,102.8 144.1,106.6 144.1,122.1 95.5,122.1 		"/>
		<path class="st8" d="M106.4,116c0.9-0.4,1.5-1.2,1.8-2.1c-0.6,0-1.1,0.1-1.7,0.3c-0.1,0.1-0.1,0.1-0.1,0.1
			c-0.2-0.1-0.4-0.3-0.4-0.5v-0.1c0.1,0.2,0.3,0.3,0.4,0.3c0.2,0,1.6-0.1,1.7-0.1s0.1-0.1,0.2-0.1h0.1c0.1,0,0.3,0.2,0.3,0.3
			s0,0-0.1,0.1s-0.1,0-0.1,0.2c-0.2,0.5-0.6,1-1,1.4C107.1,115.8,106.7,116,106.4,116L106.4,116z M106.8,113.1c0.3,0,0.7-0.1,1-0.1
			c0.1,0,0.1,0,0.2-0.1c0.1,0,0.3,0,0.3,0.1s-0.1,0.1-0.4,0.1H106.8c-0.2,0.1-0.4,0-0.4-0.3C106.4,113,106.6,113.1,106.8,113.1z"/>
		<path class="st8" d="M109.8,114.9c0.8-0.5,1.5-1.2,2.1-1.9c0,0,0.1-0.1,0.1-0.2s0-0.1-0.1-0.1l-0.2-0.1c0,0,0.1,0,0.2,0
			c0.2,0,0.3,0.1,0.4,0.2l0.1,0.1l-0.1,0.1c-0.1,0.1-0.1,0-0.2,0.2c-0.4,0.4-0.5,0.5-0.7,0.7c0.1,0,0.2,0.1,0.2,0.2v0.1
			c0,0.1,0,0.2,0,0.2v1.4c0,0.2,0,0.2-0.1,0.2s-0.2-0.2-0.2-0.3c0-0.1,0-0.1,0-0.2c0-0.3,0-0.5,0-0.8v-0.8v-0.1
			C110.9,114.4,110.4,114.7,109.8,114.9L109.8,114.9z"/>
		<path class="st8" d="M113.9,115.9c1-0.5,1.7-1.4,1.9-2.5c-0.6,0-1.1,0.1-1.7,0.2c-0.1,0-0.1,0-0.2,0.1h-0.1c0,0,0,0-0.1-0.1
			s-0.2-0.2-0.2-0.3v-0.1c0.2,0.2,0.2,0.2,0.4,0.2l1.5-0.1c0.1,0,0.3,0,0.4-0.1h0.1c0,0,0,0,0.1,0l0.2,0.2l0,0l-0.1,0.1
			c-0.1,0.1-0.2,0.2-0.2,0.3c-0.2,0.6-0.5,1.1-0.9,1.5C114.6,115.6,114.2,115.8,113.9,115.9L113.9,115.9z M116.6,113.3
			C116.6,113.3,116.6,113.4,116.6,113.3c-0.2,0.1-0.1,0.1-0.2,0c-0.1-0.2-0.3-0.3-0.5-0.4C116.2,112.9,116.6,113.1,116.6,113.3
			L116.6,113.3z M116.7,112.7c0.1,0,0.2,0.2,0.2,0.3c0,0.1,0,0.1-0.1,0.1s0,0-0.1-0.1c-0.1-0.2-0.3-0.3-0.5-0.4
			C116.5,112.6,116.6,112.7,116.7,112.7L116.7,112.7z"/>
		<path class="st8" d="M120.1,115.2C120.1,115.3,120,115.3,120.1,115.2l-0.6,0.1c-0.4,0-0.9,0-1.3,0.1l-0.2,0.1
			c-0.2,0-0.3-0.3-0.3-0.4V115c0.2,0.2,0.2,0.3,0.3,0.3l1.6-0.1c0.1-0.8,0.2-1.4,0.2-1.6l0,0c-0.6,0-1.1,0.1-1.7,0.2l-0.2,0.1
			c-0.1,0-0.3-0.2-0.3-0.4c0-0.1,0-0.1,0-0.2c0,0.1,0.1,0.2,0.2,0.2c0.1,0.1,0.1,0.1,0.2,0.1c0.2,0,1.5-0.1,1.7-0.1
			c0.1,0,0.1,0,0.2-0.1l0,0c0.1,0,0.2,0.2,0.2,0.2l0.1,0.1c0,0,0,0.1-0.1,0.1s-0.1,0-0.1,0.1s-0.1,0.6-0.2,1.3
			C120,115.1,120.1,115.1,120.1,115.2z"/>
		<path class="st8" d="M123.6,115.5c0,0,0,0.2-0.1,0.2s-0.1,0-0.2-0.3c-0.2-0.3-0.4-0.5-0.7-0.7l-0.4-0.3c0.3,0.1,0.6,0.2,0.9,0.4
			c0.4-0.4,0.8-0.8,1.1-1.3h-0.8c-1.2,0.2-1.5,0.2-1.6,0.3s-0.1,0-0.1,0c-0.2-0.1-0.4-0.3-0.4-0.5v-0.1c0.1,0.2,0.2,0.3,0.4,0.2
			l2.3-0.2c0.1,0,0.2,0,0.3-0.1c0.1-0.1,0.1-0.1,0.1-0.1c0.1,0.1,0.2,0.1,0.2,0.2s0.1,0.1,0.1,0.1s0,0-0.2,0.1s-0.1,0-0.3,0.2
			c-0.3,0.4-0.7,0.7-1.1,1C123.3,115,123.6,115.2,123.6,115.5z"/>
		<path class="st8" d="M126,114.2h2.4c0,0,0.4,0,0.4,0.2s-0.1,0.1-0.2,0.1h-2.2c-0.1,0-0.2,0-0.3,0.1H126l-0.2-0.1
			c-0.1-0.1-0.1-0.2-0.1-0.3c0-0.1,0-0.1,0-0.2C125.8,114.1,125.9,114.2,126,114.2z"/>
		<path class="st8" d="M129.7,115.6c1.1-0.5,1.9-1.3,2.3-2.4c-0.4,0-0.8,0.1-1.2,0.2l-0.1,0.1c-0.1,0-0.3-0.3-0.3-0.3
			c0-0.1,0-0.1,0-0.2c0.1,0.2,0.2,0.2,0.3,0.2c0.4,0,0.8-0.1,1.2-0.2c0.1,0,0.1-0.1,0.2-0.1c0,0,0.3,0.2,0.3,0.3s0,0.1-0.2,0.1
			c0,0-0.1,0-0.1,0.1c-0.2,0.4-0.4,0.7-0.6,1c0.4,0.2,0.8,0.5,1.1,0.8c0.1,0.1,0.1,0.2,0.1,0.3c0,0.1,0,0.2-0.1,0.2
			c-0.1,0-0.1,0-0.2-0.2c-0.3-0.4-0.6-0.7-1-1C131,115.1,130.4,115.5,129.7,115.6L129.7,115.6z M132.7,112.7c0.1,0,0.2,0.1,0.2,0.3
			c0,0.1,0,0.1-0.1,0.1c-0.1,0,0,0-0.2-0.2c-0.1-0.1-0.3-0.2-0.4-0.3C132.3,112.5,132.5,112.6,132.7,112.7L132.7,112.7z
			 M133.1,112.4c0.1,0,0.2,0.2,0.2,0.3c0,0,0,0.1-0.1,0.1c-0.1,0-0.1,0-0.2-0.2c-0.1-0.2-0.3-0.3-0.5-0.3
			C132.7,112.3,132.9,112.4,133.1,112.4L133.1,112.4z"/>
		<polygon class="st0" points="147.8,108.5 194.3,102.4 194.3,121.8 147.8,121.8 		"/>
		<path class="st7" d="M162.2,102.2c0.5-0.3,0.9-0.6,1.2-1.1c0.3-0.4,0.5-0.9,0.6-1.4c-0.6,0-1.2,0.1-1.8,0.2l-0.1,0.1H162
			c-0.1,0-0.1-0.1-0.2-0.1c-0.1-0.1-0.1-0.2-0.1-0.3v-0.1c0.1,0.1,0.1,0.2,0.2,0.2c0.1,0,0.1,0,0.2,0c0.2,0,1.8-0.2,1.8-0.2l0.2-0.1
			c0,0,0.3,0.2,0.3,0.3s0,0-0.1,0.1s-0.1,0.1-0.1,0.2c-0.2,0.6-0.5,1.1-0.9,1.5C163,101.9,162.6,102.1,162.2,102.2L162.2,102.2z
			 M164.8,99.6c-0.2,0-0.4-0.2-0.3-0.4l0,0c0-0.2,0.2-0.4,0.5-0.3c0.2,0,0.4,0.2,0.3,0.5c0,0.2-0.2,0.3-0.3,0.3
			C164.9,99.6,164.9,99.6,164.8,99.6z M164.8,98.9c-0.1,0-0.3,0.1-0.3,0.3s0.1,0.3,0.3,0.3c0.1,0,0.3-0.1,0.3-0.3l0,0l0,0
			C165.1,99,165,98.9,164.8,98.9z"/>
		<path class="st7" d="M168.4,100.1c-0.5,0.7-1.1,1.3-1.9,1.7l-0.2,0.1c-0.1,0-0.1,0.1-0.1,0.2H166c-0.1,0-0.2-0.3-0.2-0.3
			c0-0.1,0-0.1,0.1-0.2c0-0.1,0-0.2,0-0.2v-1.9c0-0.1-0.1-0.2-0.4-0.2c0.1-0.1,0.2-0.1,0.3-0.1s0.4,0.1,0.4,0.2s0,0.1-0.1,0.2v2.1
			C167,101.3,167.7,100.8,168.4,100.1L168.4,100.1z"/>
		<path class="st7" d="M170.9,100.9c0.2-0.2,0.4-0.5,0.5-0.8l-0.2,0.1l-1.1,0.3v0.6c0,0.2,0,0.4,0.1,0.6c0.1,0.1,0.2,0.2,0.5,0.2
			c0.2,0,0.5,0,0.7-0.1h0.1c0.2,0,0.3,0.1,0.3,0.1s0,0.1-0.1,0.1c-0.3,0.1-0.6,0.1-0.9,0.1c-0.6,0-0.8-0.1-0.9-0.4v-1.1
			c-0.2,0.1-0.5,0.1-0.7,0.2c0,0-0.1,0-0.1,0.1H169c-0.2-0.1-0.3-0.2-0.4-0.4v-0.1c0.1,0.2,0.2,0.2,0.3,0.2c0.3,0,0.6-0.1,0.9-0.2
			v-0.8c0-0.3-0.1-0.3-0.4-0.4c0.1,0,0.2-0.1,0.2-0.1c0.1,0,0.3,0.1,0.4,0.1c0,0,0,0,0,0.1s0,0.1,0,0.2s-0.1,0.7-0.1,0.8l1.2-0.3
			l0.1-0.1c0.1-0.1,0.1-0.1,0.1-0.1l0.4,0.3c0,0,0,0.1-0.1,0.1s-0.1,0-0.2,0.1C171.4,100.5,171.1,100.8,170.9,100.9L170.9,100.9z
			 M171.4,99.2c0.2,0,0.4,0.1,0.4,0.3c0,0,0,0.1-0.1,0.1l0,0l0,0c-0.1,0-0.1,0-0.2-0.1c-0.2-0.1-0.3-0.2-0.5-0.3
			C171.2,99.2,171.3,99.2,171.4,99.2z M172,99c0.1,0,0.2,0.2,0.2,0.3c0,0.1,0,0.1-0.1,0.1s0,0-0.2-0.2c-0.1-0.1-0.3-0.3-0.5-0.3
			C171.6,98.9,171.8,98.9,172,99L172,99z"/>
		<path class="st7" d="M173.6,99.7c0,0.1-0.1,0.1-0.1,0.1c-0.1,0-0.1,0-0.2-0.2c-0.2-0.2-0.4-0.3-0.7-0.4
			C173.1,99.3,173.6,99.5,173.6,99.7z M175.4,99.7c-0.3,0.6-0.8,1.1-1.3,1.5c-0.2,0.2-0.4,0.3-0.6,0.4c-0.1,0.1-0.2,0.2-0.3,0.2
			l-0.1,0.1c-0.1,0-0.4-0.3-0.4-0.5c0-0.1,0-0.1,0.1-0.2c0.1,0.2,0.2,0.3,0.3,0.3c0.2-0.1,0.5-0.2,0.7-0.4
			C174.3,100.7,174.9,100.2,175.4,99.7L175.4,99.7z"/>
		<path class="st7" d="M179.2,99.8l-0.1,0.1v0.8c0,0.3-0.1,0.7-0.1,1c-0.1,0.5-0.5,0.8-0.9,0.8c0-0.1-0.1-0.2-0.1-0.2
			c-0.1-0.1-0.2-0.1-0.4-0.2l0,0c0.2,0.1,0.5,0.1,0.7,0.1s0.4-0.1,0.4-0.3c0.2-0.7,0.2-1.3,0.2-2h-1.3c0,0.5-0.1,0.9-0.3,1.3
			c-0.3,0.7-0.8,1.2-1.5,1.3l0,0c0.4-0.2,0.7-0.5,1-0.9c0.3-0.5,0.5-1.1,0.6-1.8h-0.9c-0.2,0-0.4,0-0.5,0l-0.1-0.2h1.5
			c0-0.3,0-0.7-0.1-1l0.4,0.1c0.1,0,0.1,0,0.1,0.1s-0.1,0.1-0.2,0.2s0,0.3,0,0.6h1.2l0.1-0.1h0.1L179.2,99.8L179.2,99.8
			C179.3,99.9,179.3,99.8,179.2,99.8z"/>
		<path class="st8" d="M162.2,114.7c0,0.1-0.1,0.1-0.1,0.1h-0.5c-0.4,0-0.9,0-1.3,0.1l-0.2,0.1c-0.1,0-0.3-0.3-0.3-0.4v-0.1
			c0.1,0.2,0.2,0.3,0.3,0.3l1.6-0.1c0.1-0.8,0.2-1.4,0.2-1.6s0,0,0,0c-0.6,0-1.1,0.1-1.7,0.2l-0.1,0.1c-0.1,0-0.3-0.2-0.3-0.4
			c0-0.1,0-0.1,0-0.2c0,0.1,0.1,0.2,0.2,0.2c0.1,0.1,0.1,0.1,0.2,0.1c0.2,0,1.5-0.1,1.7-0.1c0.1,0,0.1,0,0.2-0.1l0,0l0.2,0.2
			l0.1,0.1c0,0,0,0.1-0.1,0.1s-0.1,0-0.1,0.1s-0.1,0.6-0.3,1.3C162.1,114.5,162.2,114.6,162.2,114.7z"/>
		<path class="st8" d="M163.2,115.3c0.7-0.3,1.3-0.9,1.7-1.5c-0.3-0.2-0.6-0.4-1-0.6c0.4,0,0.7,0.2,1.1,0.4c0.2-0.3,0.3-0.6,0.4-0.9
			c0-0.1-0.1-0.2-0.2-0.3h0.1c0.1,0,0.2,0,0.3,0.1c0.2,0.1,0.2,0.2,0.2,0.2s0,0.1-0.1,0.2s-0.1,0.1-0.1,0.2
			c-0.1,0.2-0.2,0.5-0.4,0.7c0.1,0.1,0.5,0.4,0.5,0.7c0,0,0,0.1-0.1,0.1s-0.1,0-0.1-0.1c-0.1-0.2-0.2-0.4-0.4-0.5
			C164.6,114.6,164,115.1,163.2,115.3L163.2,115.3z"/>
		<path class="st8" d="M168.4,112.9c0,0.1-0.1,0.1-0.1,0.1c-0.1,0-0.1,0-0.2-0.2c-0.2-0.2-0.4-0.3-0.7-0.4
			C167.9,112.4,168.4,112.7,168.4,112.9z M170.2,112.8c-0.3,0.6-0.8,1.1-1.3,1.5c-0.2,0.2-0.4,0.3-0.6,0.4c-0.1,0.1-0.2,0.2-0.3,0.2
			l-0.1,0.1c-0.1,0-0.4-0.3-0.4-0.5c0-0.1,0-0.1,0-0.2c0.1,0.2,0.2,0.3,0.3,0.3c0.2-0.1,0.5-0.2,0.7-0.4
			C169,113.9,169.6,113.4,170.2,112.8L170.2,112.8z"/>
		<path class="st8" d="M171.3,115.5c0.6-0.5,0.9-1.1,1.1-1.9c0-0.1,0-0.1-0.1-0.2c-0.3,0-0.7,0.1-1,0.2h-0.1
			c-0.2-0.1-0.3-0.2-0.3-0.4v-0.1c0.1,0.2,0.2,0.2,0.4,0.3c0.2,0,1.2-0.1,1.4-0.1l0.7-0.1c0.1,0,0.1,0,0.2,0h0.1
			c0.1,0,0.2,0.1,0.4,0.2v0.1c0,0,0,0.1-0.1,0.1h-1c-0.2,0-0.3,0-0.5,0c0.1,0,0.2,0.1,0.2,0.2l-0.1,0.1v0.1
			C172.5,114.7,172,115.3,171.3,115.5L171.3,115.5z M172.1,112.5c0.3,0,0.5,0,0.8-0.1c0.1,0,0.1,0,0.2,0c0.1,0,0.3,0,0.3,0.1
			s0,0.1-0.2,0.1c-0.4,0-0.8,0-1.2,0.1h-0.1c-0.1,0-0.2,0-0.3-0.1s-0.1-0.1-0.1-0.2C171.7,112.5,171.9,112.5,172.1,112.5
			L172.1,112.5z"/>
		<path class="st8" d="M175.2,113.7h2.4c0,0,0.4,0,0.4,0.2s-0.1,0.1-0.2,0.1h-2.2c-0.1,0-0.2,0-0.3,0.1h-0.1c0,0-0.1,0-0.1-0.1
			c-0.1-0.1-0.1-0.2-0.1-0.3c0-0.1,0-0.1,0-0.2C175,113.5,175.1,113.6,175.2,113.7z"/>
		<path class="st8" d="M179,114c0.4-0.4,0.8-1,1-1.6c0-0.1-0.2-0.2-0.2-0.2h0.2c0.2,0,0.4,0.1,0.4,0.3c0,0,0,0.1-0.1,0.1
			s0,0-0.1,0.2h0.2c0.2,0,0.5,0,0.7-0.1l0.1-0.1l0,0c0.1,0,0.1,0.1,0.1,0.1s0.1,0.1,0.1,0.2s0,0.1-0.1,0.1s-0.1,0.1-0.2,0.3
			c-0.3,0.6-0.6,1.1-1.1,1.5c-0.3,0.3-0.7,0.5-1.1,0.6l0,0c0.6-0.3,1.1-0.8,1.5-1.3c-0.1,0-0.1,0-0.2-0.1c-0.2-0.2-0.4-0.4-0.6-0.5
			c-0.2,0.2-0.4,0.4-0.7,0.6L179,114z M181.2,112.8c-0.1,0-0.7,0.1-0.8,0.1s-0.1,0-0.2,0l-0.3,0.4l-0.1,0.1c0.3,0.1,0.8,0.2,0.8,0.6
			C180.8,113.7,181,113.3,181.2,112.8z"/>
		<path class="st8" d="M182.3,113.7h2.4c0,0,0.4,0,0.4,0.2s-0.1,0.1-0.2,0.1h-2.2c-0.1,0-0.2,0-0.3,0.1h-0.1l-0.1-0.1
			c-0.1-0.1-0.1-0.2-0.1-0.3c0-0.1,0-0.1,0-0.2C182.1,113.5,182.2,113.6,182.3,113.7z"/>
		<polygon class="st1" points="250.2,94.8 295.8,86.6 295.8,108 250.2,108 		"/>
		<path class="st7" d="M260.8,100c0.9-0.4,1.5-1.2,1.8-2.1c-0.6,0-1.1,0.1-1.7,0.3c-0.1,0.1-0.1,0.1-0.1,0.1
			c-0.2-0.1-0.4-0.2-0.4-0.5v-0.1c0.1,0.2,0.3,0.3,0.5,0.3c0.1,0,1.5-0.1,1.7-0.1s0.1,0,0.2-0.1c0,0,0,0,0.1,0c0,0,0.3,0.2,0.3,0.3
			s0,0-0.1,0.1s-0.1,0-0.1,0.2c-0.2,0.5-0.6,1-1,1.4C261.5,99.8,261.2,100,260.8,100L260.8,100z M261.2,97c0.3,0,0.7,0,1-0.1
			c0.1,0,0.1-0.1,0.2-0.1s0.3,0,0.3,0.1s-0.1,0.1-0.4,0.1l-1.2,0.1c-0.1,0-0.3-0.1-0.3-0.4C260.8,97,261,97.1,261.2,97L261.2,97z"/>
		<path class="st7" d="M263.5,98.9c0.8-0.5,1.5-1.2,2.1-1.9c0.1-0.1,0.1-0.1,0.1-0.2c0,0,0-0.1-0.1-0.1l-0.2-0.1h0.1
			c0.2,0,0.3,0.1,0.4,0.2l0.1,0.1c0,0,0,0.1-0.1,0.1s-0.1,0-0.2,0.2l-0.7,0.7c0.1,0,0.2,0.1,0.2,0.2v0.1c0,0.1,0,0.2,0,0.2v1.4
			c0,0.2,0,0.2-0.1,0.2s-0.2-0.2-0.2-0.3c0-0.1,0-0.1,0-0.2c0-0.3,0.1-0.5,0.1-0.8v-0.8v-0.1c-0.5,0.4-1,0.7-1.5,1L263.5,98.9z"/>
		<path class="st7" d="M267.1,100c1-0.5,1.7-1.4,1.9-2.5c-0.6,0-1.1,0.1-1.7,0.2l-0.2,0.1H267c0,0,0,0-0.1-0.1s-0.1-0.2-0.2-0.3
			v-0.1c0.1,0.2,0.2,0.2,0.4,0.2l1.5-0.1c0.1,0,0.3,0,0.4-0.1h0.2l0.2,0.2l0,0c0,0,0,0-0.1,0.1s-0.1,0.1-0.2,0.3
			c-0.2,0.6-0.5,1.1-0.9,1.5C267.9,99.6,267.5,99.9,267.1,100L267.1,100z M269.9,97.4c0,0,0,0.1-0.1,0.1s-0.1,0-0.1-0.1
			c-0.1-0.2-0.3-0.3-0.5-0.4C269.4,96.9,269.9,97.1,269.9,97.4L269.9,97.4z M270,96.8c0.1,0,0.2,0.2,0.2,0.3c0,0.1,0,0.1-0.1,0.1
			s0,0-0.1-0.1c-0.1-0.2-0.3-0.3-0.5-0.4C269.7,96.7,269.9,96.7,270,96.8L270,96.8z"/>
		<path class="st7" d="M273,99.2c0,0.1-0.1,0.1-0.1,0.1h-0.5c-0.4,0-0.9,0-1.3,0.1l-0.2,0.1c-0.1,0-0.3-0.3-0.3-0.4V99
			c0.1,0.2,0.2,0.3,0.4,0.3l1.6-0.1c0.1-0.8,0.2-1.4,0.2-1.6l0,0c-0.6,0-1.1,0.1-1.7,0.2l-0.1,0.1c0,0-0.3-0.2-0.3-0.4
			c0-0.1,0-0.1,0-0.2c0,0.1,0.1,0.1,0.2,0.2c0,0.1,0.1,0.1,0.2,0.1c0.2,0,1.5-0.1,1.7-0.1c0.1,0,0.1-0.1,0.2-0.1h0.1l0.2,0.2
			l0.1,0.1c0,0,0,0.1-0.1,0.1s-0.1,0-0.1,0.1S273.1,98.5,273,99.2C272.9,99.1,273,99.2,273,99.2z"/>
		<path class="st7" d="M276.2,99.5c0,0,0,0.2-0.1,0.2s-0.1,0-0.2-0.2c-0.2-0.3-0.4-0.5-0.7-0.7c-0.1-0.1-0.2-0.2-0.4-0.2
			c0.3,0.1,0.6,0.2,0.9,0.4c0.4-0.4,0.8-0.8,1.1-1.3H276c-0.6,0-1.1,0.1-1.6,0.3c-0.1,0-0.1,0.1-0.1,0.1c-0.2-0.1-0.4-0.3-0.4-0.5
			v-0.1c0.1,0.2,0.2,0.3,0.4,0.3l2.3-0.2c0.1,0,0.2,0,0.3-0.1h0.1c0.1,0.1,0.2,0.1,0.2,0.2c0.1,0.1,0.1,0.1,0.1,0.1s0,0-0.1,0.1
			s-0.1,0-0.3,0.2c-0.3,0.4-0.7,0.7-1.1,1C276,99,276.2,99.2,276.2,99.5z"/>
		<path class="st7" d="M278.3,98.2c0.2,0,0.3,0,0.5,0c0.1,0,1.5,0,1.8,0h0.2c0,0,0.4,0,0.4,0.2s-0.1,0.1-0.2,0.1h-2.2
			c-0.1,0-0.2,0-0.3,0.1h-0.1c0,0-0.1,0-0.2-0.1s-0.1-0.2-0.1-0.3c0-0.1,0-0.1,0-0.2C278,98.1,278.1,98.2,278.3,98.2z"/>
		<path class="st7" d="M281.5,99.6c1.1-0.5,1.9-1.3,2.4-2.4c-0.4,0-0.8,0.1-1.2,0.2c0,0-0.1,0-0.1,0.1c-0.1,0-0.2-0.3-0.2-0.3
			c0-0.1,0-0.1,0-0.2c0.1,0.2,0.1,0.2,0.3,0.2c0.4,0,0.8-0.1,1.2-0.2c0.1,0,0.2-0.1,0.2-0.1s0.3,0.2,0.3,0.3s0,0-0.1,0.1
			s0,0-0.1,0.1c-0.2,0.4-0.4,0.7-0.6,1c0.4,0.2,0.8,0.5,1.1,0.8c0.1,0.1,0.1,0.2,0.1,0.3c0,0.1,0,0.1-0.1,0.2c-0.1,0-0.1,0-0.2-0.2
			c-0.3-0.4-0.6-0.7-1-1C283,99.1,282.4,99.6,281.5,99.6L281.5,99.6z M284.5,96.7c0.1,0,0.2,0.2,0.2,0.3c0,0,0,0.1-0.1,0.1
			s0,0-0.2-0.2c-0.1-0.1-0.3-0.2-0.4-0.3C284.2,96.5,284.4,96.6,284.5,96.7L284.5,96.7z M285,96.5c0.1,0,0.2,0.2,0.2,0.3
			c0,0,0,0.1-0.1,0.1s-0.1,0-0.2-0.2s-0.3-0.3-0.5-0.3C284.6,96.3,284.8,96.4,285,96.5L285,96.5z"/>
		<polygon class="st0" points="250.2,107.9 295.8,100.1 295.8,121.2 250.2,121.2 		"/>
		<path class="st8" d="M264.2,112.8c-0.2-0.3-0.4-0.7-0.9-0.7c-0.2,0-0.3,0.1-0.3,0.2v2.2c0,0.1,0.1,0.3,0.2,0.3l0,0h0.3v0.1h-1.3
			v-0.1h0.2c0.2,0,0.3-0.1,0.3-0.3l0,0v-2.1c0-0.2-0.2-0.3-0.3-0.3c-0.5,0-0.7,0.4-0.9,0.7h-0.1l0.3-0.8h2.2L264.2,112.8
			L264.2,112.8z"/>
		<path class="st8" d="M266.4,112.1c-0.2,0-0.3,0.2-0.4,0.4l-1,2.6l0,0l-1-2.7c0-0.2-0.2-0.3-0.4-0.3h-0.1V112h1.1v0.1h-0.1
			c-0.1,0-0.2,0.1-0.2,0.2c0,0,0,0.1,0,0.2l0.7,2.2l0.8-2.2c0,0,0-0.1,0-0.2s-0.1-0.2-0.2-0.2l0,0h-0.2V112h0.9L266.4,112.1
			L266.4,112.1z"/>
		<path class="st8" d="M266.9,112.8c0.3,0,0.7,0.1,0.7,0.4c0,0,0,0.1-0.1,0.1s-0.1,0-0.2-0.1c-0.2-0.2-0.5-0.3-0.8-0.4
			C266.7,112.8,266.8,112.8,266.9,112.8z M267.3,111.9c0.4,0,0.8,0.2,0.8,0.4c0,0.1,0,0.1-0.1,0.1s-0.1,0-0.1-0.1
			c-0.2-0.2-0.5-0.3-0.7-0.4H267.3z M269.7,112.7c-0.5,0.8-1.1,1.5-1.9,2c-0.1,0.1-0.2,0.2-0.3,0.2h-0.1c-0.1-0.1-0.2-0.1-0.3-0.2
			c-0.1-0.1-0.1-0.3-0.1-0.4c0.1,0.1,0.2,0.3,0.3,0.3C268.3,114.1,269.1,113.4,269.7,112.7L269.7,112.7z"/>
		<path class="st8" d="M270.5,113.9L270.5,113.9c-0.3-0.1-0.3-0.2-0.3-0.4c0.1,0.1,0.2,0.1,0.3,0.2l1.3-0.1v-0.7
			c-0.1,0-1,0.1-1.2,0.1h-0.1c0,0-0.2-0.2-0.2-0.3v-0.1c0.1,0.2,0.2,0.2,0.3,0.2c0.4,0,0.8,0,1.2-0.1c0.1-0.1,0.1-0.1,0.1-0.1
			c0.1,0.1,0.2,0.1,0.3,0.3l-0.1,0.1c-0.1,0.1,0,0-0.1,0.3s0,1.2-0.1,1.4s-0.1,0.2-0.1,0.2s-0.1-0.1-0.1-0.2c-0.4,0-0.7,0.1-1.1,0.2
			c-0.1,0.1-0.1,0.1-0.1,0.1c-0.1-0.1-0.2-0.2-0.3-0.4v-0.1c0.1,0.1,0.2,0.2,0.3,0.2l1.2-0.1v-0.7
			C271.3,113.7,270.9,113.8,270.5,113.9z"/>
		<path class="st8" d="M273.2,113.4c0,0.1,0,0.1-0.1,0.1l0,0l0,0c0,0-0.1,0-0.1-0.2c-0.1-0.2-0.2-0.3-0.3-0.4
			C272.9,113,273.1,113.1,273.2,113.4z M273,115c0.5-0.2,1-0.7,1.3-1.2c0.2-0.2,0.3-0.5,0.3-0.8c0-0.1-0.1-0.1-0.2-0.2h0.2
			c0.2,0,0.3,0.1,0.3,0.3l-0.1,0.1l-0.1,0.1c-0.2,0.4-0.5,0.9-0.8,1.2C273.7,114.8,273.3,115,273,115L273,115z M273.9,113.2
			c0,0.1-0.1,0.2-0.1,0.2s-0.1,0-0.1-0.2c-0.1-0.2-0.2-0.3-0.3-0.4C273.6,112.8,273.9,113,273.9,113.2z"/>
		<path class="st8" d="M276,114.3c0,0.1,0.1,0.1,0.2,0.2c0.2,0.1,0.4,0.1,0.6,0.1c0.3,0,0.6,0,0.9-0.1h0.2c0,0,0.3,0,0.3,0.2
			s-0.2,0.1-0.2,0.1c-0.3,0-0.8,0.1-1,0.1c-0.7,0-0.9-0.1-1.1-0.3s-0.1-0.2-0.1-1.1v-1c0-0.1-0.1-0.2-0.3-0.3c0,0,0.1-0.1,0.2-0.1
			s0.5,0.1,0.5,0.2s0,0.1-0.1,0.1c-0.1,0.4-0.1,0.7-0.1,1.1c0.6-0.2,1.1-0.5,1.5-0.8v-0.1c0-0.1,0,0-0.1-0.2c0.1,0,0.3,0,0.4,0.1
			s0.1,0.1,0.1,0.2s0,0.1-0.1,0.1s-0.1,0-0.2,0.1c-0.5,0.3-1.1,0.5-1.6,0.7C275.9,113.8,275.9,114.1,276,114.3z M278,112.2
			c-0.2,0-0.4-0.2-0.4-0.4c0-0.2,0.2-0.4,0.4-0.4c0.2,0,0.4,0.2,0.4,0.4l0,0l0,0C278.4,112,278.2,112.2,278,112.2z M278,111.5
			c-0.1,0-0.2,0.1-0.2,0.2l0,0c0,0.1,0.1,0.3,0.2,0.3s0.3-0.1,0.3-0.2v-0.1l0,0C278.3,111.6,278.1,111.5,278,111.5L278,111.5
			L278,111.5z"/>
		<path class="st8" d="M279.8,112.5c0,0.1-0.1,0.1-0.1,0.1l0,0l0,0c-0.1,0-0.1,0-0.2-0.2c-0.2-0.2-0.4-0.3-0.7-0.4
			C279.2,112.1,279.8,112.3,279.8,112.5z M281.5,112.5c-0.3,0.6-0.8,1.1-1.3,1.5c-0.2,0.2-0.4,0.3-0.6,0.4c-0.1,0.1-0.2,0.2-0.3,0.2
			l-0.1,0.1c-0.1,0-0.4-0.3-0.4-0.5c0-0.1,0-0.1,0.1-0.2c0.1,0.2,0.2,0.3,0.3,0.3c0.2-0.1,0.5-0.2,0.7-0.4
			C280.5,113.5,281,113,281.5,112.5L281.5,112.5z"/>
		<path class="st8" d="M281.9,115.1c0.5-0.3,1-0.6,1.3-1.1c0.3-0.4,0.6-0.9,0.8-1.4l0,0l-0.7,0.1c-0.1,0-0.2,0-0.2-0.1
			c-0.3,0.4-0.7,0.8-1.1,1l0,0c0.5-0.4,0.9-0.9,1.1-1.5c0-0.1-0.2-0.2-0.2-0.2c0.1,0,0.1,0,0.2,0c0.2,0,0.4,0.2,0.4,0.3s0,0-0.1,0.1
			s-0.1,0.2-0.2,0.3h0.1c0.3,0,0.5,0,0.8-0.1l0.1-0.1l0,0c0.1,0.1,0.2,0.1,0.3,0.2l0.1,0.1c0,0,0,0.1-0.1,0.1
			c-0.1,0.1-0.1,0.1-0.1,0.2C283.8,114,283,114.8,281.9,115.1L281.9,115.1z M284.8,112.3c0,0.1,0,0.1-0.1,0.1l0,0l0,0
			c0,0-0.1,0-0.2-0.2c-0.1-0.1-0.3-0.3-0.4-0.4C284.4,111.9,284.8,112.1,284.8,112.3z M285.2,112.1
			C285.2,112.2,285.2,112.2,285.2,112.1c-0.1,0.1-0.2,0-0.2,0c-0.1-0.2-0.3-0.3-0.5-0.4C284.7,111.8,285.2,111.8,285.2,112.1z"/>
		<polygon class="st0" points="302.3,101.7 322.2,106.2 347,104.8 347,120.6 302.3,120.6 		"/>
		<path class="st8" d="M315.6,112.9c-0.2-0.3-0.4-0.7-0.9-0.7c-0.2,0-0.3,0.1-0.3,0.2l0,0v2.2c0,0.2,0.1,0.3,0.2,0.3l0,0h0.3v0.1
			h-1.3l0,0h0.2c0.2,0,0.3-0.1,0.3-0.3l0,0v-2.2c0-0.2-0.2-0.3-0.3-0.3c-0.5,0-0.7,0.4-0.9,0.7l-0.1-0.1l0.3-0.8h2.3L315.6,112.9
			L315.6,112.9z"/>
		<path class="st8" d="M317.8,112.2c-0.2,0-0.3,0.2-0.4,0.4l-0.9,2.6h-0.1l-0.9-2.7c0-0.2-0.2-0.3-0.4-0.3H315v-0.1h1v0.1h-0.1
			c-0.1,0-0.2,0.1-0.2,0.2v0.1l0.8,2.2l0.8-2.2c0,0,0-0.1,0-0.2s-0.1-0.2-0.2-0.2l0,0h-0.2V112h1L317.8,112.2L317.8,112.2z"/>
		<path class="st8" d="M318.3,112.9c0.3,0,0.7,0.1,0.7,0.4c0,0,0,0.1-0.1,0.1s-0.1,0-0.2-0.1c-0.2-0.2-0.5-0.3-0.8-0.3
			C318.1,113,318.2,112.9,318.3,112.9z M318.6,112c0.4,0,0.8,0.2,0.8,0.4c0,0.1,0,0.1-0.1,0.1s-0.1,0-0.1-0.1
			c-0.2-0.2-0.5-0.3-0.7-0.4H318.6z M321.1,112.8c-0.5,0.8-1.1,1.5-1.9,2c-0.1,0.1-0.2,0.2-0.3,0.2c0,0,0,0-0.1,0s-0.3-0.2-0.3-0.2
			c-0.1-0.1-0.1-0.3-0.1-0.4c0.1,0.1,0.2,0.3,0.3,0.3C319.7,114.2,320.4,113.6,321.1,112.8L321.1,112.8z"/>
		<path class="st8" d="M322,114L322,114c-0.3-0.1-0.3-0.2-0.3-0.4c0.1,0.1,0.2,0.1,0.3,0.2c0.1,0,1.1-0.1,1.3-0.1V113
			c-0.1,0-1,0.1-1.2,0.1c0,0-0.1,0-0.1,0.1c0,0-0.2-0.2-0.2-0.3v-0.1c0.1,0.2,0.2,0.2,0.3,0.2c0.4,0,0.8,0,1.2-0.1
			c0.1-0.1,0.1-0.1,0.1-0.1s0.3,0.2,0.3,0.3s0,0-0.1,0.1s0,0-0.1,0.3s0,1.2-0.1,1.4s-0.1,0.2-0.1,0.2s-0.1-0.1-0.1-0.2
			c-0.4,0-0.7,0.1-1.1,0.2c-0.1,0.1-0.1,0.1-0.1,0.1c-0.1-0.1-0.2-0.2-0.3-0.4v-0.1c0.1,0.1,0.2,0.2,0.3,0.2l1.2-0.1v-0.7
			C322.7,113.8,322.4,113.9,322,114z"/>
		<path class="st8" d="M324.6,113.5c0,0.1,0,0.1-0.1,0.1l0,0l0,0c0,0-0.1,0-0.1-0.2c-0.1-0.2-0.2-0.3-0.3-0.4
			C324.3,113,324.5,113.2,324.6,113.5z M324.4,115.1c0.5-0.2,1-0.7,1.3-1.2c0.2-0.2,0.3-0.5,0.3-0.8c0-0.1,0-0.1-0.2-0.2
			c0.1,0,0.1,0,0.2,0c0.2,0,0.3,0.1,0.4,0.3l-0.1,0.1l-0.1,0.1c-0.2,0.5-0.5,0.9-0.8,1.2C325.1,114.9,324.7,115.1,324.4,115.1
			L324.4,115.1z M325.3,113.3c0,0.1-0.1,0.2-0.1,0.2s-0.1,0-0.1-0.2c-0.1-0.2-0.2-0.3-0.3-0.5C325,112.9,325.3,113.1,325.3,113.3
			L325.3,113.3z"/>
		<path class="st8" d="M327.4,114.4c0,0.1,0.1,0.1,0.2,0.2c0.2,0,0.4,0.1,0.6,0.1c0.3,0,0.6,0,0.9-0.1h0.2c0.1,0,0.3,0,0.3,0.1
			s-0.2,0.1-0.2,0.1c-0.3,0-0.6,0.1-1,0.1c-0.7,0-0.9-0.1-1.1-0.3s-0.1-0.2-0.1-1.1v-1c0-0.2-0.1-0.2-0.3-0.3c0,0,0.1-0.1,0.2-0.1
			s0.5,0.1,0.5,0.3l-0.1,0.1c-0.1,0.4-0.1,0.7-0.1,1.1c0.6-0.2,1.1-0.5,1.5-0.9c0,0,0,0,0-0.1l-0.1-0.2c0.1,0,0.3,0,0.3,0.1
			c0.1,0.1,0.1,0.2,0.1,0.2s0,0-0.1,0.1c-0.1,0-0.1,0-0.2,0.1c-0.5,0.3-1.1,0.5-1.6,0.7C327.3,113.9,327.3,114.2,327.4,114.4z
			 M329.4,112.3c-0.2,0-0.4-0.2-0.4-0.4c0-0.2,0.2-0.4,0.4-0.4c0.2,0,0.4,0.2,0.4,0.4l0,0l0,0C329.8,112.1,329.6,112.2,329.4,112.3
			L329.4,112.3z M329.4,111.6c-0.1,0-0.2,0.1-0.2,0.2s0.1,0.3,0.2,0.3l0,0c0.1,0,0.3-0.1,0.3-0.2v-0.1
			C329.6,111.7,329.5,111.6,329.4,111.6L329.4,111.6z"/>
		<path class="st8" d="M331.2,112.7c0,0.1-0.1,0.1-0.1,0.1l0,0l0,0c-0.1,0-0.1,0-0.2-0.2c-0.2-0.2-0.4-0.3-0.7-0.4
			C330.7,112.2,331.2,112.4,331.2,112.7z M333,112.6c-0.3,0.6-0.8,1.1-1.3,1.5c-0.2,0.2-0.4,0.3-0.6,0.4c-0.1,0.1-0.2,0.2-0.3,0.3
			l-0.1,0.1c-0.1,0-0.4-0.3-0.4-0.5c0-0.1,0-0.1,0.1-0.2c0.1,0.2,0.2,0.3,0.3,0.3c0.2-0.1,0.5-0.2,0.7-0.4
			C331.9,113.6,332.5,113.1,333,112.6L333,112.6z"/>
		<path class="st8" d="M333.4,115.2c0.5-0.3,1-0.6,1.3-1.1c0.3-0.4,0.6-0.9,0.8-1.4l0,0l-0.7,0.1c-0.1,0-0.2,0-0.2-0.1
			c-0.3,0.4-0.7,0.8-1.1,1l0,0c0.5-0.4,0.9-0.9,1.1-1.5c0-0.1-0.2-0.2-0.2-0.2c0.1,0,0.1,0,0.2,0c0.2,0,0.4,0.2,0.4,0.3s0,0-0.1,0.1
			l-0.2,0.3h0.2c0.3,0,0.5,0,0.8-0.1l0.1-0.1l0,0c0.1,0,0.2,0.1,0.2,0.2l0.1,0.1c0,0,0,0.1-0.1,0.1s-0.1,0.1-0.1,0.2
			C335.3,114.1,334.4,114.9,333.4,115.2L333.4,115.2z M336.3,112.4c0,0.1,0,0.1-0.1,0.1l0,0l0,0c0,0-0.1,0-0.2-0.2
			c-0.1-0.1-0.3-0.3-0.4-0.4C335.9,112,336.3,112.2,336.3,112.4z M336.7,112.2C336.7,112.3,336.7,112.3,336.7,112.2
			c-0.1,0.1-0.2,0-0.2,0c-0.2-0.1-0.3-0.3-0.5-0.4C336.1,111.9,336.7,111.9,336.7,112.2z"/>
		<polygon class="st2" points="302.3,85.5 347,96.2 307.9,91.4 		"/>
		<polygon class="st2" points="254.7,88.7 295.6,86.6 250.2,94.8 250.2,94.8 		"/>
		<polygon class="st2" points="197.8,83.3 242.4,95.1 216.5,85.1 		"/>
		<polygon class="st2" points="147.8,99.4 194.3,86.9 153,94.2 		"/>
		<path class="st13" d="M168.2,86.2h3.6l-3.3,1.2l2.7,1l5.4-2.9c0,0,1.2-0.7,1.2-1.5s0-1.9-1.8-1.6S168.2,86.2,168.2,86.2z"/>
		<path class="st14" d="M166.1,80.8c-1.1,0.9-1.7,2.3-1.6,3.7c0.1,1.5,1.4,2.7,3,2.6c1.8-0.8,3.5-1.8,5.1-2.8l-1.7,2.4l-0.2,0.3
			l1.8,0.4c0,0,5-5.1,5-6.1s0.6-2-0.2-2.2S166.1,80.8,166.1,80.8z"/>
		<path class="st15" d="M172.5,73.1c0,0-1.5,0.3-1.2-1.2c0.2-1.3,2.6-3.4,3.8-3.3s2.1,0.2,2.2,1.3c0.2,1,0.4,2,0.4,3.1
			c0,0.9,0.1,1.8,0.4,2.7c0,0.2,0.1,0.3,0.1,0.3l-0.8,1.6l-4.1-3.2"/>
		<path class="st16" d="M171.3,73.2c0,0,1.6,0.9,1.9,1s0.4-0.5,0.6-0.4s0.1,0.4,0.4,0.5c0.3,0.2,0.8,0.1,1-0.2
			c0.4-0.4,1-0.8,1.1-1.1s0-0.3,0.1-0.5s0.3,0,0.3-1.1s-0.5-1-0.5-1s-0.5,0.2-0.7,0.3c-0.5,0.2-0.9,0.3-1.4,0.4c0,0,0.3-0.8-0.3-0.7
			s-0.5,0.6-0.4,0.9s0,0.6-0.1,0.8c-0.4,0.3-0.8,0.5-1.3,0.8C171.8,73,171.5,73.1,171.3,73.2z"/>
		<path class="st0" d="M179.5,73.4c0,1.3-0.1,3.2-0.1,3.5c0,0.5,0.1,2.5-0.9,2.8c-1.6,0.2-3.2-0.2-4.5-1.1c-0.6-0.5-1.2-0.8-1.9-1
			l-0.2,1.2c0,0,0-0.7,1.3-0.2c0.6,0.2,1.3,0.5,1.8,0.9c-1.3,0.3-2.5,0.7-3.7,1.3c-1.1,0.7-1.9,1.2-2.9,1.2c-0.6,0-1.3-0.2-1.8-0.4
			c-0.3-0.2-0.6-0.4-0.8-0.7c0.1-0.4,0.3-0.7,0.6-1c0.5-0.7,2.7-4.7,3.1-5.3s1.2-1.6,1.7-1.6c1.1,0.5,2,1.2,2.9,2
			c0.5,0.6,3.4,2.7,3.4,2.7c0.5-1,0.8-2.1,1-3.2c0-0.2-0.2-0.7-0.2-0.8"/>
		<path class="st16" d="M179.2,72.5v-1c0-0.2-0.3-0.5-0.6-0.7c-0.3-0.1-0.6-0.2-0.9-0.2c0,0-0.8,0.6-0.5,0.6h0.9
			c0,0,0.1,0.4-0.2,0.4s-0.9,0-0.8,0.1s1.3,1.2,1.3,1.2s0.1,0,0.1,0.3c0,0.1,0,0.3,0,0.4v0.1h0.7V72.5z"/>
		<path class="st14" d="M170.4,86.8l2.2,0.7c0.2,0.1-0.1,1.3,0.1,1.9s0.6,1.1,1.1,1.1s0.9-0.4,0.9,0.1s-0.3,1.2-1,1.2
			c-0.6,0-1.2-0.1-1.8-0.2c0,0-0.2-1-0.5-1.2s-0.3-0.7-0.9-0.7s-0.4,1.3-0.4,1.3l-0.6-0.2c0,0,0.2-1.8,0.3-2.5
			C169.9,87.9,170.1,87.3,170.4,86.8z"/>
		<path class="st14" d="M168.8,87c0,0,1.3,0.7,1.5,0.7s-0.6,1-0.4,1.6s0.6,1.1,1.1,1.1s0.9-0.4,0.9,0.1s-0.3,1.2-1,1.2
			c-0.6,0-1.2-0.1-1.8-0.2c0,0-0.2-1-0.5-1.2s-0.3-0.7-0.9-0.7s-0.4,1.3-0.4,1.3l-0.6-0.2c0,0,0.2-1.8,0.3-2.5S168.8,87,168.8,87z"
			/>
		<path class="st12" d="M174.7,73.1c0,0,0,0.6,0.6,0.6h0.1c0,0,0-0.4-0.1-0.4h-0.2l-0.1-0.2H174.7z"/>
		<path class="st0" d="M168.1,68.4c0,0,0,1.7-1.4,1.6c0.9,0.3,1.5,1.2,1.5,2.2c0,0,0.2-2.5,1.9-2.3C170.2,70,168.2,69.9,168.1,68.4z
			"/>
		<path class="st0" d="M180.4,80.5c0,0-0.1,1.3-1.1,1.2c0.6,0.4,0.9,1.1,0.7,1.8c0,0,0.4-1.8,1.5-1.6
			C181.6,81.8,180.3,81.7,180.4,80.5z"/>
		<path class="st0" d="M162.6,72.4c0,0,0.1,1.3-1,1.3c0.7,0.2,1.2,0.8,1.3,1.6c0,0,0-1.9,1.4-1.9C164.3,73.5,162.7,73.6,162.6,72.4z
			"/>
		<polygon class="st2" points="90.5,89.6 47.2,85.3 93.3,95.6 		"/>
		<path class="st17" d="M73.2,83.4c-0.2,0.7-0.3,1.3-0.4,2c0,0.8-0.1,1-0.1,1.4s-0.4,1.2,0.1,1.7s0.6,0.7,1.1,0.6s1.1-0.1,1-1.5
			s-0.4-1.6-0.4-2.8v-1.5"/>
		<path class="st17" d="M66,82.9c0,0,0.3,2.6-0.3,3.7s-0.8,1.4-0.8,2s0.2,0.8,0.7,0.8c0.9-0.1,1.6-0.6,1.9-1.4
			c0.3-0.6,0.5-1.2,0.5-1.9v-3.2"/>
		<path class="st16" d="M65.5,60c0.2-1.1,0.6-2.2,1.1-3.3c0.5-0.8,0.9-1.5,1.8-1.5s1.2,0.4,2.1,0.5s0.7,0.1,0.8-0.3s0.3-0.5,0.1-0.9
			s-0.7-0.6-0.7-1.2s0-2.8,1.2-3c1-0.2,1.9,0.4,2.2,1.4c0,0.2,0,0.4,0,0.5c0.1,0.9-0.1,1.8-0.6,2.5C73.2,55.4,73,56,73.3,56
			c0.9,0.1,1.7,0.4,2.4,0.8c0.8,0.4,1.3,1.3,1.2,2.2c0,1.3,0,3.4,0,3.8s1.1,2.8,1.2,3.6s0.2,1.6,0.2,2.5c0.2,0.6,0.3,1.3,0.3,2
			c-0.1,0.9-0.7,1.8-1.1,1.8s-0.3-0.3-0.3-0.9c0-0.5,0-1.1,0-1.6V69c-0.1-1.1-0.5-2.2-1-3.2c-0.4-0.9-0.7-1.8-0.8-2.7
			c-0.3-0.8-0.4-1.5-0.4-2.3s-0.2,1.5-0.2,1.9s0.2,1.5,0.2,1.5l-6.1,0.2c0.6-1.2,0.7-2.6,0.2-3.9c-0.3-0.6-0.4-1.3-0.4-2
			c0-0.5-0.7,0.7-1.1,1.9c-0.3,1-0.5,1.4-0.5,1.4c0.1,0.4,0.4,0.7,0.7,1c0.3,0.2,0.5,0.4,0.6,0.6c0,0,1.3-0.4,1.4,0
			s-0.5,1.2-1.3,1.3s-1.2,0.3-1.6-0.2c-0.5-0.5-0.9-1.1-1.2-1.6c-0.6-1-0.8-1-0.8-1.7C64.8,60.7,65.1,60.2,65.5,60z"/>
		<path class="st18" d="M67.5,55.7c0,0-0.1,0.3,1.1,0.5s1.2,0.7,2.4,1.1c1.1,0.4,2.3,0.5,3.5,0.5c0.7-0.1,1.3-0.3,1.9-0.6
			c0.5,0.5,0.8,1.3,0.8,2s0.1,1.5,0.2,2.2l0.5,0.3c0,0-0.1,0.1-0.8,0.1s-0.2,0.1-1,0.1s-1-0.9-1-0.9v1.5c0,0.2-0.7,0.2-0.7,0.2
			l-5.3,0.2c-0.7-1-1.2-2.1-1.3-3.3L67.4,61c-0.3-0.2-0.7-0.4-1.1-0.5c-0.5,0-1,0.6-1.7,0.2s0.6-0.3,0.7-1.1s0.4-0.7,0.7-1.3
			S67,55.1,67.5,55.7z"/>
		<path class="st0" d="M74.8,62.6v1c0,0,0.3-0.2,0.7,0.8c1,2.4,1.4,5,1.2,7.7c-0.3,4.1-1.2,7.3-0.7,10.1l0.5,2.8
			c0,0-1.8,0.2-3.1,0.2h-4.7c-2,0-1.6,0.8-3.7,0.6S62.6,85,62.6,85c0.9-1.4,1.5-3,1.8-4.7c0.1-2.2,2.1-6.6,2.5-9.2s2.1-6.2,2.1-7
			c0-0.4,0.1-0.8,0.2-1.2L74.8,62.6z"/>
		<path class="st19" d="M72,51.8c0.2,0.3,0.5,0.6,0.9,0.8c0.8,0.5,0.7,0.2,0.7,1.1s-0.1,0.6-0.3,1.3s-0.9,0.8-0.2,2s1.8,1,1.6,2.2
			c-0.2,0.9-0.6,1.7-1.2,2.4c0,0,1.6-0.6,1.8-1.1s1.4-1.1,1.2-2.2s-0.5-0.8-0.7-1.8c-0.3-0.7-0.5-1.4-0.5-2.2
			c-0.1-1.7,0-3.2-1.2-3.7s-2-1-2.9-0.2c-0.9,0.9-1.3,2.1-1.3,3.3c0,0.7-0.4,1.3-1,1.5l2,0.7c0,0,0.6-0.9,0.4-1.3
			c-0.5-0.7-0.6-1.6-0.2-2.4c0.6-1.2,0.4-0.9,0.4-0.9L72,51.8z"/>
		<path class="st12" d="M71.8,54.2c0,0,0.5,0.3,0.8-0.1l0.1-0.1c0,0-0.3-0.2-0.4-0.2l-0.1,0.1H72L71.8,54.2z"/>
		<path class="st0" d="M63.6,50.3c0,0,0.2,2.5-1.6,2.5c1.3,0.5,2.1,1.7,2.1,3c0,0,0-3.6,2.3-3.6C66.4,52.3,63.8,52.5,63.6,50.3z"/>
		<path class="st0" d="M80.5,61.4c0,0,0.1,1.8-1.1,1.8c0.9,0.3,1.5,1.2,1.5,2.2c0,0,0-2.6,1.6-2.6C82.4,62.8,80.7,62.9,80.5,61.4z"
			/>
		<path class="st0" d="M62.5,64.4c0,0,0.1,1.8-1.2,1.8c0.9,0.3,1.5,1.2,1.5,2.2c0,0,0-2.6,1.6-2.6C64.4,65.8,62.6,65.9,62.5,64.4z"
			/>
		<path class="st0" d="M214.4,73c-0.2-0.5-0.5-1-0.8-1.5c-0.2-0.2-0.5-1,0.2-1.2c1.2-0.4,2.5-0.6,3.7-0.7c0.6,0.1,0.6,0.2,0.5,1.2
			s-0.2,1.6-0.2,1.6S215.7,73.6,214.4,73z"/>
		<path class="st0" d="M215,85.6l-0.6-1.6c-0.2-0.6-2.1-4.6-3-6.9l-0.8-2.6c0.3-0.5,1.3-2.4,5.1-3.1c2.1-0.5,4.2-0.2,6.1,0.8
			c0.3,0.1,0.5,2.1,0.4,4.1s-0.2,4.9-0.4,6.5l-0.3,1.9C221.5,84.7,217.6,86.2,215,85.6z"/>
		<path class="st0" d="M215.3,69.6c0,0,0.5,0.1,0.8-0.2l-0.3-1.6c0.3-0.1,0.6-0.3,0.9-0.5l2.1-0.4l-0.1-0.6l-1.8,0.3
			c0,0-0.4-0.8-2-0.5s-1.6,1.2-1.2,1.5c0.4,0.2,0.9,0.3,1.4,0.2L215.3,69.6z"/>
		<path class="st8" d="M216.1,82.6l-0.4-1.1c-0.1-0.4-1.4-3.1-2-4.7l-0.5-1.7c0.2-0.4,0.9-1.6,3.4-2.1c1.4-0.4,2.9-0.2,4.1,0.5
			c0.3,0.9,0.4,1.9,0.3,2.8c-0.1,1.4-0.2,3.3-0.3,4.4l-0.2,1.3C219.1,82.5,217.6,82.7,216.1,82.6z"/>
		<path class="st0" d="M208.7,65c0,0,0,1.7-1.4,1.6c0.9,0.4,1.5,1.2,1.5,2.2c0,0,0.2-2.5,1.9-2.3C210.7,66.5,208.7,66.5,208.7,65z"
			/>
		<path class="st0" d="M222.2,65c0,0-0.2,1.8-1.5,1.6c0.8,0.5,1.2,1.5,1.1,2.5c0,0,0.5-2.6,2.1-2.3C223.8,66.8,222,66.6,222.2,65z"
			/>
		<path class="st0" d="M206.9,71.5c0,0,0.1,1.3-1,1.3c0.7,0.2,1.2,0.8,1.3,1.6c0,0,0-1.9,1.4-1.9C208.6,72.6,207,72.7,206.9,71.5z"
			/>
		<line class="st20" x1="346.3" y1="138.5" x2="346.3" y2="133.5"/>
		<line class="st20" x1="346.3" y1="145.7" x2="346.3" y2="140.7"/>
		<line class="st20" x1="46.8" y1="138.5" x2="46.8" y2="133.5"/>
		<line class="st20" x1="46.8" y1="145.7" x2="46.8" y2="140.7"/>
		<polyline class="st21" points="329.9,16.9 301.2,42.4 271.8,40.8 253.8,55.5 217.6,43.3 190,57 149,58.2 100,79 47.3,69.6 		"/>
		<circle class="st0" cx="47.3" cy="69.6" r="1.5"/>
		<circle class="st0" cx="99.8" cy="78.9" r="1.5"/>
		<circle class="st0" cx="148.9" cy="58.5" r="1.5"/>
		<circle class="st0" cx="190" cy="57" r="1.5"/>
		<circle class="st0" cx="217.8" cy="43.4" r="1.5"/>
		<circle class="st0" cx="253.8" cy="55.5" r="1.5"/>
		<circle class="st0" cx="271.8" cy="40.8" r="1.5"/>
		<circle class="st0" cx="301.1" cy="42.5" r="1.5"/>
		<line class="st21" x1="337.1" y1="10.2" x2="340.8" y2="6.8"/>
		<line class="st21" x1="331.8" y1="15.1" x2="335.5" y2="11.7"/>
		<line class="st21" x1="342.1" y1="5.7" x2="345.8" y2="2.3"/>
	</g>
</g>
<circle class="st6" cx="195.5" cy="156.9" r="0.6"/>
</svg>
