<svg xmlns="http://www.w3.org/2000/svg" viewBox="0 0 142.24 95.1"><defs><style>.cls-1{fill:#fff;}</style></defs><g id="レイヤー_2" data-name="レイヤー 2"><g id="レイヤー_1-2" data-name="レイヤー 1"><g id="レイヤー_2-2" data-name="レイヤー 2"><g id="レイヤー_1-2-2" data-name="レイヤー 1-2"><path class="cls-1" d="M14.46,0,128.19.77c7.84,0,14.14,2,14.05,4.27h0c-.08,2.3-6.51,4.13-14.36,4.08L14.15,8.35C6.3,8.3,0,6.39.1,4.08h0C.18,1.77,6.61,0,14.46,0Z"/></g></g><g id="レイヤー_2-3" data-name="レイヤー 2"><g id="レイヤー_1-2-3" data-name="レイヤー 1-2"><path class="cls-1" d="M14.37,86l113.72.76c7.85.06,14.14,2,14.06,4.28h0c-.09,2.31-6.52,4.14-14.37,4.08L14.06,94.34c-7.85,0-14.14-2-14.06-4.27H0C.09,87.76,6.52,85.93,14.37,86Z"/></g></g></g></g></svg>