<svg xmlns="http://www.w3.org/2000/svg" viewBox="0 0 140.1 93.11"><defs><style>.cls-1{fill:#fff;}</style></defs><g id="レイヤー_2" data-name="レイヤー 2"><g id="レイヤー_1-2" data-name="レイヤー 1"><g id="レイヤー_2-2" data-name="レイヤー 2"><g id="レイヤー_1-2-2" data-name="レイヤー 1-2"><path class="cls-1" d="M16.58,6.39,128.33,79.9C136,85,141.22,90.61,139.89,92.5h0c-1.33,1.88-8.66-.7-16.38-5.77L11.77,13.22C4.05,8.15-1.12,2.5.21.62h0C1.54-1.27,8.87,1.32,16.58,6.39Z"/></g></g><g id="レイヤー_2-3" data-name="レイヤー 2"><g id="レイヤー_1-2-3" data-name="レイヤー 1-2"><path class="cls-1" d="M139.89.62h0c1.33,1.88-3.85,7.53-11.56,12.6L16.58,86.73C8.87,91.8,1.54,94.38.21,92.5h0C-1.12,90.61,4.05,85,11.77,79.9L123.51,6.39C131.23,1.32,138.56-1.27,139.89.62Z"/></g></g></g></g></svg>