<?xml version="1.0" encoding="utf-8"?>
<!-- Generator: Adobe Illustrator 25.3.1, SVG Export Plug-In . SVG Version: 6.00 Build 0)  -->
<svg version="1.1" id="レイヤー_1" xmlns="http://www.w3.org/2000/svg" xmlns:xlink="http://www.w3.org/1999/xlink" x="0px"
	 y="0px" viewBox="0 0 61 27.3" style="enable-background:new 0 0 61 27.3;" xml:space="preserve">
<style type="text/css">
	.st0{fill:#F9AEAE;}
	.st1{fill:#FFFFFF;}
	.st2{fill:#E26287;}
</style>
<g id="レイヤー_2_1_">
	<g id="レイヤー_2-2">
		<path class="st0" d="M0,2c0-1.1,0.9-2,2-2h59l0,0c0,15.1-12.2,27.3-27.3,27.3H0.1c0,0-0.1,0-0.1-0.1V2z"/>
		<path class="st1" d="M10.7,17.8c-0.5,0-1-0.1-1.5-0.3c-0.1,0-0.3-0.1-0.4-0.1c-0.1,0-0.3,0.2-0.4,0.2s-0.2,0.1-0.2,0.1
			S8,17.6,8,17.4V16c0-0.2,0.1-0.2,0.1-0.2l0.2,0.1c0.5,0.8,1.4,1.3,2.3,1.4c0.8,0,1.4-0.5,1.4-1.1s-0.7-0.8-1.7-1
			C9.1,15,8,14.7,8,13.4s1.3-1.7,2-1.7c0.3,0,0.7,0,1,0.1c0.1,0,0.6,0.2,0.6,0.2l0.3-0.2c0.1-0.1,0.1-0.1,0.2-0.1
			c0.1,0,0.2,0.1,0.2,0.2v1.4c0,0.1,0,0.2-0.1,0.2s-0.1-0.1-0.2-0.2c-0.3-0.7-1.1-1.1-1.9-1.1c-0.9,0-1.4,0.6-1.3,1.1
			s0.6,0.7,1.6,0.8c1.2,0.2,2.4,0.4,2.5,1.8c0,1.1-0.9,2-2,2C10.8,17.8,10.7,17.8,10.7,17.8z"/>
		<path class="st1" d="M16.2,17.7c-0.6,0.1-1.2-0.4-1.2-1c0-0.1,0-0.1,0-0.2l-0.1-4.3h-0.8c-0.1,0-0.2-0.1-0.2-0.3s0.5-0.3,0.6-0.4
			c0.6-0.4,0.9-1.1,0.8-1.8c0-0.1,0.1-0.3,0.2-0.3c0,0,0,0,0.1,0s0.2,0.1,0.2,0.2l0,0v2.1h1.5c0.1,0,0.2,0.1,0.2,0.2
			c0,0.1-0.1,0.3-0.2,0.3l0,0h-1.5l0.1,3.9c0,0.4,0.3,0.7,0.7,0.7c0.1,0,0.3,0,0.4-0.1c0.2-0.1,0.2-0.1,0.5-0.6
			c0-0.1,0.1-0.1,0.2-0.1s0.2,0.1,0.2,0.2l0,0C17.8,17,17.1,17.6,16.2,17.7z"/>
		<path class="st1" d="M20.1,14.4c0.1,1,0.2,2.7,1.7,2.6c0.7,0,1.3-0.3,1.7-0.9c0.3-0.3,0.3-0.3,0.4-0.3s0.2,0.1,0.2,0.1l0,0
			c-0.4,0.9-1.3,1.6-2.3,1.6c-1.6,0-2.9-1.4-2.9-3c-0.1-1.6,1.1-3,2.7-3.1c1.5,0,2.4,1.2,2.5,2.9L20.1,14.4z M21.5,11.8
			c-1.2,0-1.4,1.6-1.4,2.1l2.6-0.1C22.7,13.2,22.7,11.8,21.5,11.8z"/>
		<path class="st1" d="M28.6,17.4c-0.7,0-1.3-0.3-1.6-0.9v1.9c0,0.3,0,0.4,0.1,0.4s0.1,0.1,0.7,0.1c0.1,0,0.2,0.1,0.2,0.2l0,0
			c0,0.1-0.1,0.2-0.2,0.2l0,0h-2.4c-0.1,0-0.2-0.1-0.2-0.2l0,0c0-0.1,0.1-0.2,0.2-0.2l0,0c0.5,0,0.6-0.1,0.6-0.6l-0.1-6
			c0-0.5-0.2-0.5-0.8-0.5c-0.1,0-0.2-0.1-0.2-0.2c0-0.1,0.1-0.2,0.2-0.2l0,0h1.6c0.1,0,0.2,0.2,0.2,0.3v0.6c0.3-0.7,1-1.1,1.7-1.1
			c1.2,0,2.4,1.3,2.4,3S30,17.4,28.6,17.4z M28.3,11.8c-1.1,0-1.4,1.5-1.4,1.6v2.1c0,0.5,0.2,0.9,0.6,1.2c0.2,0.2,0.5,0.3,0.9,0.3
			c1,0,1.5-1.1,1.5-2.6S29.2,11.8,28.3,11.8z"/>
		<path class="st1" d="M47.7,4.7c0,0,0.1,3.1-2.1,3.1c0,0,2.2,0.7,2.4,3.9c0,0,0.2-4.5,3-4.4C51,7.4,47.8,7.5,47.7,4.7z"/>
		<path class="st2" d="M55.9,19.8c0,0-0.3,2.7-2.2,2.4c1.2,0.7,1.9,2.2,1.5,3.6c0,0,0.7-3.9,3.1-3.4C58.4,22.6,55.6,22.3,55.9,19.8z
			"/>
		<path class="st1" d="M42.5,13.4c0,0,0.1,1.7-1.2,1.7c0,0,1.2,0.4,1.3,2.2c0,0,0.1-2.5,1.7-2.5C44.3,14.9,42.6,15,42.5,13.4z"/>
		<path class="st1" d="M35.4,17.1c-1.4,0-2.7-0.8-2.7-1.9c-0.1-0.4,0.2-0.8,0.6-0.9c0,0,0,0,0.1,0c0.4,0,0.7,0.3,0.7,0.7l0,0
			c0,0.1-0.1,0.5-0.1,0.5c0,0.5,0.4,0.9,1.3,0.9c1.8,0,1.8-1.8,1.8-2.4c0-0.9-0.4-2.2-1.9-2.2L34.5,12c-0.2,0-0.4-0.1-0.4-0.3
			s0.1-0.4,0.4-0.4c0.1,0,0.5,0.1,0.6,0.1c1-0.1,1.7-0.9,1.6-1.9V9.4c0-1-0.4-1.8-1.6-1.8C34.6,7.6,34,8,34,8.4
			c0,0.1,0.1,0.4,0.1,0.5c0,0.4-0.3,0.8-0.7,0.8c-0.3,0-0.6-0.4-0.6-0.8c0-0.9,1-1.9,2.5-1.9c1.3-0.1,2.5,0.9,2.7,2.2c0,0,0,0,0,0.1
			c0,1.6-1.5,2.1-2.1,2.3c1.4,0.1,2.4,1.3,2.4,2.6c0,1.6-1.3,2.8-2.8,2.8C35.5,17.1,35.4,17.1,35.4,17.1z"/>
	</g>
</g>
</svg>
