<?xml version="1.0" encoding="utf-8"?>
<!-- Generator: Adobe Illustrator 25.3.1, SVG Export Plug-In . SVG Version: 6.00 Build 0)  -->
<svg version="1.1" id="レイヤー_1" xmlns="http://www.w3.org/2000/svg" xmlns:xlink="http://www.w3.org/1999/xlink" x="0px"
	 y="0px" viewBox="0 0 61 27.3" style="enable-background:new 0 0 61 27.3;" xml:space="preserve">
<style type="text/css">
	.st0{fill:#F9AEAE;}
	.st1{fill:#FFFFFF;}
	.st2{fill:#E26287;}
</style>
<g>
	<path class="st0" d="M61,27.1c0,0.1-0.1,0.2-0.2,0.2H27.3C12.2,27.3,0,15.1,0,0l0,0h58.1C59.7,0,61,1.3,61,2.9V27.1z"/>
	<path class="st1" d="M22.8,18c-0.5,0-1-0.1-1.5-0.3c-0.1,0-0.3-0.1-0.4-0.1s-0.3,0.2-0.4,0.2s-0.2,0.1-0.2,0.1s-0.2-0.1-0.2-0.3
		v-1.4c0-0.2,0.1-0.2,0.1-0.2l0.2,0.1c0.5,0.8,1.4,1.3,2.3,1.4c0.8,0,1.4-0.5,1.4-1.1s-0.7-0.8-1.7-1c-1.2-0.2-2.3-0.5-2.3-1.8
		s1.3-1.7,2-1.7c0.3,0,0.7,0,1,0.1c0.1,0,0.6,0.2,0.6,0.2L24,12c0.1-0.1,0.1-0.1,0.2-0.1s0.2,0.1,0.2,0.2v1.4c0,0.1,0,0.2-0.1,0.2
		s-0.1-0.1-0.2-0.2c-0.3-0.7-1.1-1.1-1.9-1.1c-0.9,0-1.4,0.6-1.3,1.1s0.6,0.7,1.6,0.8c1.2,0.2,2.4,0.4,2.5,1.8c0,1.1-0.9,2-2,2
		C22.9,18,22.8,18,22.8,18z"/>
	<path class="st1" d="M28.3,17.9c-0.6,0.1-1.2-0.4-1.2-1c0-0.1,0-0.1,0-0.2L27,12.4h-0.8c-0.1,0-0.2-0.1-0.2-0.3s0.5-0.3,0.6-0.4
		c0.6-0.4,0.9-1.1,0.8-1.8c0-0.1,0.1-0.3,0.2-0.3c0,0,0,0,0.1,0s0.2,0.1,0.2,0.2l0,0v2.1h1.5c0.1,0,0.2,0.1,0.2,0.2
		c0,0.1-0.1,0.3-0.2,0.3l0,0h-1.5l0.1,3.9c0,0.4,0.3,0.7,0.7,0.7c0.1,0,0.3,0,0.4-0.1c0.2-0.1,0.2-0.1,0.5-0.6
		c0-0.1,0.1-0.1,0.2-0.1s0.2,0.1,0.2,0.2l0,0C29.9,17.2,29.2,17.8,28.3,17.9z"/>
	<path class="st1" d="M32.2,14.6c0.1,1,0.2,2.7,1.7,2.6c0.7,0,1.3-0.3,1.7-0.9C35.9,16,35.9,16,36,16s0.2,0.1,0.2,0.1l0,0
		c-0.4,0.9-1.3,1.6-2.3,1.6c-1.6,0-2.9-1.4-2.9-3c-0.1-1.6,1.1-3,2.7-3.1c1.5,0,2.4,1.2,2.5,2.9L32.2,14.6z M33.6,12
		c-1.2,0-1.4,1.6-1.4,2.1l2.6-0.1C34.8,13.4,34.8,12,33.6,12z"/>
	<path class="st1" d="M40.7,17.6c-0.7,0-1.3-0.3-1.6-0.9v1.9c0,0.3,0,0.4,0.1,0.4s0.1,0.1,0.7,0.1c0.1,0,0.2,0.1,0.2,0.2l0,0
		c0,0.1-0.1,0.2-0.2,0.2l0,0h-2.4c-0.1,0-0.2-0.1-0.2-0.2l0,0c0-0.1,0.1-0.2,0.2-0.2l0,0c0.5,0,0.6-0.1,0.6-0.6l-0.1-6
		c0-0.5-0.2-0.5-0.8-0.5c-0.1,0-0.2-0.1-0.2-0.2c0-0.1,0.1-0.2,0.2-0.2l0,0h1.6c0.1,0,0.2,0.2,0.2,0.3v0.6c0.3-0.7,1-1.1,1.7-1.1
		c1.2,0,2.4,1.3,2.4,3S42.1,17.6,40.7,17.6z M40.4,12c-1.1,0-1.4,1.5-1.4,1.6v2.1c0,0.5,0.2,0.9,0.6,1.2c0.2,0.2,0.5,0.3,0.9,0.3
		c1,0,1.5-1.1,1.5-2.6S41.3,12,40.4,12z"/>
	<path class="st1" d="M8.8,6.1c0,0,0.1,3.1-2.1,3.1c0,0,2.2,0.7,2.4,3.9c0,0,0.2-4.5,3-4.4C12.1,8.8,8.9,8.9,8.8,6.1z"/>
	<path class="st2" d="M4.6,18.8c0,0-0.3,2.7-2.2,2.4c1.2,0.7,1.9,2.2,1.5,3.6c0,0,0.7-3.9,3.1-3.4C7.1,21.6,4.3,21.3,4.6,18.8z"/>
	<path class="st1" d="M15.1,13.7c0,0,0.1,1.7-1.2,1.7c0,0,1.2,0.4,1.3,2.2c0,0,0.1-2.5,1.7-2.5C16.9,15.2,15.2,15.3,15.1,13.7z"/>
	<path class="st1" d="M48.8,14.7V16c0,0.6,0.4,0.6,0.6,0.6s0.4,0,0.4,0.3s-0.2,0.2-0.2,0.2h-2.8c-0.2,0-0.3,0-0.3-0.2
		s0.2-0.3,0.3-0.3c0.3,0,0.9-0.1,0.8-0.6v-1.3l-2.9,0.1c-0.3,0-0.5-0.1-0.5-0.4c0-0.1,0-0.2,0.2-0.5l3.4-6.2
		c0.1-0.1,0.3-0.5,0.6-0.5c0.1,0,0.2,0,0.2,0.6l0.1,6.2h1.5v0.7H48.8z M47.6,9.3l-2.7,4.9l2.8-0.1L47.6,9.3z"/>
</g>
</svg>
