<svg xmlns="http://www.w3.org/2000/svg" viewBox="0 0 816.35 413.22"><defs><style>.cls-1{fill:#f1e8e1;}.cls-2{fill:#e6f3fc;}.cls-3{fill:#e28f96;}.cls-4{fill:#bcd3e2;}.cls-29,.cls-5{fill:#e81c52;}.cls-6{fill:#500;}.cls-7{fill:#201e1f;}.cls-8{fill:#121115;}.cls-9{fill:#e2b395;}.cls-10{fill:#f2d0ca;}.cls-11{fill:#050307;}.cls-12{fill:#c34629;}.cls-13,.cls-14,.cls-15,.cls-17{fill:none;}.cls-13,.cls-14,.cls-15{stroke:#e81c52;stroke-linecap:round;stroke-linejoin:round;stroke-width:2.55px;}.cls-14{stroke-dasharray:5.7 5.7;}.cls-15{stroke-dasharray:4.92 4.92;}.cls-16{fill:#d64950;}.cls-17{stroke:#727171;stroke-width:1.13px;stroke-dasharray:2.83;}.cls-17,.cls-26{stroke-miterlimit:10;}.cls-18{fill:#727171;}.cls-19,.cls-27{font-size:11.34px;}.cls-19,.cls-21,.cls-23{fill:#87292e;}.cls-19,.cls-21,.cls-23,.cls-27{font-family:TBUDGoStd-Heavy-83pv-RKSJ-H, TBUDGothic Std;}.cls-20{letter-spacing:0.25em;}.cls-21{font-size:15.91px;}.cls-22{letter-spacing:0.25em;}.cls-23{font-size:9.69px;}.cls-24{letter-spacing:-0.5em;}.cls-25{letter-spacing:0.25em;}.cls-26{font-size:42.45px;fill:#1c2482;stroke:#1c2482;}.cls-26,.cls-29{font-family:FutoMinA101Pr6N-Bold-83pv-RKSJ-H, A-OTF Futo Min A101 Pr6N;}.cls-27{fill:#1c2a7b;}.cls-28{letter-spacing:0.25em;}.cls-29{font-size:73.98px;}</style></defs><g id="レイヤー_2" data-name="レイヤー 2"><g id="レイヤー_1-2" data-name="レイヤー 1"><path class="cls-1" d="M583.18,54.09s58.82,0,86.83,7,95.23,98,95.23,161,8.4,124.65-44.81,147.05-244.72,52-257.69,42c-60.69-46.9-75.63-154.06-60.22-203.07S507.55,56.89,583.18,54.09Z"/><path class="cls-2" d="M120.69,202.79S100.9,222.41,96.5,249.46s-11.54,62-1.64,74.23,40.67,45.61,92.34,39.24,64.31-16.43,83-33.4,45.07-62.57,44.52-91.74-14.29-47.72-40.67-55.15-46.87-6.3-65.41-5.83S120.69,202.79,120.69,202.79Z"/><circle class="cls-3" cx="599.98" cy="210.42" r="71.71"/><circle class="cls-3" cx="506.57" cy="294.79" r="71.8"/><circle class="cls-4" cx="167.78" cy="293.56" r="42.68"/><circle class="cls-4" cx="235.68" cy="239.33" r="42.68"/><path class="cls-5" d="M228.84,242.84l-10.25-26.65s-4.25-6,14.28,2.33l8,21.44"/><path class="cls-6" d="M232.16,219.85s-3.35,1.17-9.06-.46c-3.52-1-6.42-4.9-4-5.45C220.53,213.61,236.64,217.52,232.16,219.85Z"/><path class="cls-7" d="M225.12,238.7l13.33,33.65s9.87,3.19,14.84-6L240.11,232.8l-1.54.17s-3.08,8.29-11.7,4.82Z"/><path class="cls-8" d="M171.44,320.76a17.13,17.13,0,0,0-.72,3.86c0,1.5-.18,2-.18,2.65s-.73,2.35.24,3.2,1.15,1.32,2.11,1.14,2.11-.24,1.93-2.89-.84-3.08-.84-5.31v-3"/><path class="cls-8" d="M157.63,319.73s.61,4.95-.54,7.18-1.63,2.77-1.63,3.8.3,1.63,1.33,1.44a4.22,4.22,0,0,0,3.68-2.59c1-2.23,1-2.83,1-3.68s.06-6.15.06-6.15"/><path class="cls-9" d="M156.72,275.72s1.05-4.75,2-6.29,1.78-2.92,3.56-2.92,2.29.77,4.06.93,1.33.22,1.49-.59.49-1,.16-1.69-1.29-1.13-1.29-2.26-.08-5.35,2.33-5.67,4,1,4.21,3.73-.57,3.47-1.21,4.84-.89,2.5-.33,2.5a17.41,17.41,0,0,1,4.76,1.54c1.29.72,2.18,1.53,2.26,4.11s0,6.61.08,7.26,2.1,5.32,2.34,6.94.32,4.76.32,4.76a11.2,11.2,0,0,1,.49,3.79c-.16,1.77-1.29,3.55-2.1,3.55s-.64-.57-.56-1.78.08-1.29.08-3.06v-2.26a18,18,0,0,0-2-6.21c-1.13-2.18-1.21-4.12-1.61-5.17a14.31,14.31,0,0,1-.81-4.51c0-1.54-.48,3-.48,3.71s.32,2.82.32,2.82l-11.78.4a8.92,8.92,0,0,0,.24-7.42,7.54,7.54,0,0,1-.72-3.79c0-.88-1.34,1.33-2.11,3.65-.61,1.85-.88,2.72-.88,2.72a4,4,0,0,0,1.29,1.94A3.49,3.49,0,0,1,162,282.5s2.42-.73,2.67-.08-1,2.26-2.5,2.5-2.34.65-3.15-.48a22.15,22.15,0,0,1-2.34-3.15c-1.13-1.94-1.53-2-1.53-3.31S156.72,275.72,156.72,275.72Z"/><path class="cls-10" d="M160.57,267.45s-.14.54,2.12,1,2.42,1.37,4.59,2a21.44,21.44,0,0,0,6.69,1.05,12.35,12.35,0,0,0,3.71-1.21,6,6,0,0,1,1.61,3.87,28.89,28.89,0,0,0,.32,4.19l.89.56s-.24.24-1.61.24-.41.25-1.86.25-1.77-1.7-1.77-1.7.09,2.45.09,2.85-1.38.3-1.38.3l-10.18.32s-2.84-3.48-2.73-6.35l-.86,2.69a4.85,4.85,0,0,0-2.19-.86c-1,0-1.91,1.12-3.28.31s1.16-.66,1.41-2.19.74-1.24,1.28-2.46S159.6,266.32,160.57,267.45Z"/><path class="cls-5" d="M174.61,280.79l.08,2s.55-.44,1.32,1.43a30.21,30.21,0,0,1,2.2,14.56c-.55,7.95-2.31,14-1.32,19.42l1,5.4s-3.42.33-5.95.33h-9.05c-4,0-3.09,1.55-7.06,1.11s-4.63-1.55-4.63-1.55,3.2-4.74,3.42-9,4.08-12.58,4.74-17.65,4-11.86,4.06-13.19a15.61,15.61,0,0,1,.38-2.36Z"/><path class="cls-11" d="M169.15,260.13a4.52,4.52,0,0,0,1.68,1.59c1.5,1,1.42.29,1.42,2.07s-.12,1.18-.48,2.42-1.74,1.58-.34,3.74,3.43,2,3.17,4.19a11.52,11.52,0,0,1-2.22,4.64s3-1.21,3.56-2.16,2.66-2,2.28-4.19-.95-1.59-1.39-3.43-.7-1-1-4.2-.12-6-2.28-7.05-3.75-2-5.53-.38a8.45,8.45,0,0,0-2.48,6.35,3,3,0,0,1-1.94,3l3.8,1.32s1.12-1.69.81-2.58-1.65-2.35-.44-4.57.87-1.67.87-1.67Z"/><path class="cls-12" d="M168.85,264.54a1.18,1.18,0,0,0,1.6-.19l.17-.18s-.65-.4-.76-.34a1,1,0,0,0-.22.22l-.3-.08Z"/><path class="cls-13" d="M267.6,300.16s1,.31,2.72.8"/><path class="cls-14" d="M275.82,302.43c18.82,4.73,64.62,13.61,80.89-7,20.69-26.26-35.8-23.87-37.39-11.93s23.87,49.32,82.74,23.86l32.33-16.5"/><polyline class="cls-13" points="436.93 289.52 439.46 288.23 436.62 288.23"/><polyline class="cls-15" points="431.7 288.23 426.73 288.23 414.51 288.79"/><polyline class="cls-13" points="412.05 288.9 409.22 289.02 409.22 291.86"/><line class="cls-13" x1="409.22" y1="297.33" x2="409.22" y2="300.16"/><circle class="cls-16" cx="506.57" cy="294.79" r="45.87"/><circle class="cls-16" cx="599.98" cy="210.42" r="45.87"/><path class="cls-5" d="M592.57,209.82l-11-28.65s-4.57-6.47,15.35,2.51l8.62,23"/><path class="cls-6" d="M596.14,185.11s-3.6,1.26-9.74-.49c-3.77-1.08-6.9-5.27-4.3-5.86C583.64,178.41,601,182.6,596.14,185.11Z"/><path class="cls-7" d="M588.58,205.36l14.32,36.17s10.61,3.43,15.94-6.47l-14.15-36-1.66.18s-3.31,8.91-12.57,5.18Z"/><path class="cls-8" d="M511.78,323.16a18.34,18.34,0,0,0-.78,4.15c0,1.62-.19,2.14-.19,2.85s-.78,2.53.26,3.44,1.23,1.42,2.26,1.23,2.27-.26,2.08-3.11-.91-3.31-.91-5.71v-3.17"/><path class="cls-8" d="M496.94,322.06s.64,5.31-.59,7.71-1.75,3-1.75,4.09.33,1.75,1.43,1.55a4.51,4.51,0,0,0,4-2.79c1.1-2.39,1.1-3,1.1-3.95s.07-6.61.07-6.61"/><path class="cls-9" d="M496,274.77s1.12-5.12,2.16-6.76,1.92-3.14,3.83-3.14,2.46.82,4.37,1,1.43.23,1.6-.64.52-1,.17-1.82-1.38-1.21-1.38-2.43-.1-5.74,2.5-6.09,4.34,1.07,4.52,4-.61,3.73-1.3,5.21-1,2.68-.35,2.68a18.76,18.76,0,0,1,5.11,1.65c1.39.78,2.35,1.65,2.43,4.42s0,7.11.09,7.8,2.25,5.72,2.51,7.46.35,5.11.35,5.11a12.24,12.24,0,0,1,.52,4.08c-.17,1.9-1.39,3.81-2.25,3.81s-.7-.61-.61-1.91.09-1.38.09-3.29v-2.43a19.53,19.53,0,0,0-2.17-6.67c-1.22-2.34-1.3-4.42-1.74-5.55a15.82,15.82,0,0,1-.86-4.86c0-1.64-.52,3.21-.52,4s.34,3,.34,3l-12.65.43a9.65,9.65,0,0,0,.26-8,8.1,8.1,0,0,1-.78-4.07c0-.95-1.44,1.42-2.26,3.92-.66,2-.95,2.93-.95,2.93a4.2,4.2,0,0,0,1.39,2.08,3.8,3.8,0,0,1,1.3,1.3s2.6-.78,2.86-.09-1,2.43-2.69,2.69-2.51.69-3.38-.52a23.47,23.47,0,0,1-2.51-3.38c-1.22-2.08-1.65-2.17-1.65-3.56S496,274.77,496,274.77Z"/><path class="cls-10" d="M500.09,265.87s-.15.59,2.28,1.11,2.6,1.47,4.94,2.16a23,23,0,0,0,7.19,1.13,13.53,13.53,0,0,0,4-1.3,6.47,6.47,0,0,1,1.73,4.16,30.42,30.42,0,0,0,.35,4.5l1,.61s-.26.26-1.73.26-.43.26-2,.26-1.91-1.82-1.91-1.82.1,2.63.1,3.06-1.48.32-1.48.32l-10.94.34s-3.06-3.74-2.94-6.82l-.93,2.89a5.19,5.19,0,0,0-2.35-.93c-1,0-2,1.2-3.52.34s1.25-.71,1.51-2.35.8-1.33,1.38-2.65S499.05,264.66,500.09,265.87Z"/><path class="cls-5" d="M515.18,280.21l.08,2.11s.6-.48,1.42,1.54a32.48,32.48,0,0,1,2.38,15.65c-.6,8.53-2.49,15.05-1.43,20.86l1.07,5.81s-3.67.35-6.4.35h-9.72c-4.27,0-3.32,1.66-7.59,1.19s-5-1.66-5-1.66,3.44-5.1,3.68-9.72,4.39-13.52,5.1-19,4.23-12.75,4.35-14.17a16.2,16.2,0,0,1,.42-2.54Z"/><path class="cls-11" d="M509.31,258a4.94,4.94,0,0,0,1.81,1.71c1.61,1.07,1.53.31,1.53,2.22s-.14,1.27-.52,2.61-1.87,1.69-.37,4,3.69,2.19,3.41,4.51-2.38,5-2.38,5,3.2-1.3,3.82-2.32,2.86-2.19,2.46-4.51-1-1.7-1.51-3.68-.75-1.1-1-4.51-.14-6.48-2.46-7.58-4-2.11-5.94-.41-2.59,4.17-2.66,6.83a3.18,3.18,0,0,1-2.09,3.2l4.08,1.42s1.21-1.82.87-2.78-1.77-2.52-.47-4.91.94-1.8.94-1.8Z"/><path class="cls-12" d="M509,262.75s1.06.7,1.72-.21l.18-.19s-.69-.43-.81-.36a.89.89,0,0,0-.23.24l-.34-.1Z"/><polyline class="cls-17" points="568.06 285.67 589.41 315.07 740.31 315.07"/><circle class="cls-18" cx="565.88" cy="282.6" r="3.43"/><polyline class="cls-17" points="598.75 145.6 584.06 117.75 419.82 117.75"/><ellipse class="cls-18" cx="600.9" cy="148.65" rx="3.23" ry="3.43"/><text class="cls-19" transform="translate(421.53 110.66)">ライブコマーズで売り上<tspan class="cls-20" x="124.73" y="0">げ</tspan><tspan x="138.9" y="0">UP!</tspan></text><polyline class="cls-17" points="540.91 187.35 516.8 159.51 397.97 159.51"/><ellipse class="cls-18" cx="543.35" cy="190.41" rx="3.41" ry="3.43"/><text class="cls-19" transform="translate(398.5 152.18)">商品のブラッシュアップ</text><text class="cls-21" transform="translate(610.28 101.25)">認知<tspan class="cls-22" x="31.81" y="0">度</tspan><tspan x="51.7" y="0">UP!</tspan></text><polyline class="cls-17" points="553.85 327.97 566.61 347.22 682.52 347.22"/><ellipse class="cls-18" cx="553.03" cy="326.42" rx="2.67" ry="2.26"/><text class="cls-19" transform="translate(596.46 309.89)">自己ブランディング<tspan class="cls-20" x="102.05" y="0">力</tspan><tspan x="116.22" y="0">UP!</tspan></text><text class="cls-23" transform="translate(305.37 240.85)">「セルフプロデュース<tspan class="cls-24" x="96.89" y="0">」</tspan><tspan x="4.84" y="16.96">することによっ</tspan><tspan class="cls-25" x="72.67" y="16.96">て</tspan><tspan x="84.78" y="16.96">...</tspan></text><text class="cls-26" transform="translate(83.4 229.78) rotate(-12.28)">Before</text><polyline class="cls-17" points="228.41 329.74 259.11 364.55 410.44 364.55"/><ellipse class="cls-18" cx="228.85" cy="329.45" rx="2.84" ry="3.06"/><text class="cls-27" transform="translate(263.39 360.26)">商品の売れ行きが良くな<tspan class="cls-28" x="124.72" y="0">い</tspan><tspan x="138.9" y="0">...</tspan></text><polyline class="cls-17" points="188.03 339.76 239.15 404.81 446.1 407.93"/><ellipse class="cls-18" cx="187.24" cy="338.28" rx="3.06" ry="2.84" transform="translate(-106.79 87.21) rotate(-20.54)"/><text class="cls-27" transform="translate(243.14 399.88)">良い商品なのに認知度が上がらな<tspan class="cls-20" x="170.08" y="0">い</tspan><tspan x="184.25" y="0">...</tspan></text><polyline class="cls-17" points="644.5 169.71 657.25 146.63 768.4 146.63"/><ellipse class="cls-18" cx="643.67" cy="171.57" rx="2.67" ry="2.71"/><text class="cls-19" transform="translate(662.6 141.28)">テレビ通販に出演！</text><polyline class="cls-17" points="664.57 199.1 679.32 220.37 816.35 220.37"/><ellipse class="cls-18" cx="663.74" cy="197.99" rx="2.67" ry="3.08"/><text class="cls-19" transform="translate(687.12 193.86) rotate(-0.45)">社員の販売意欲を高める<tspan x="0" y="19.84">コーチング指導！</tspan></text><text class="cls-19" transform="translate(569.92 341.15)">プレゼンテーターに！</text><polyline class="cls-17" points="494.59 352.44 540.34 410.69 646.26 410.69"/><ellipse class="cls-18" cx="493.76" cy="350.88" rx="2.67" ry="2.26"/><text class="cls-19" transform="translate(542.39 405.76)">モデル活動開始！</text><polyline class="cls-17" points="535.84 360.94 552.59 380.19 700.51 380.19"/><ellipse class="cls-18" cx="535.01" cy="359.39" rx="2.67" ry="2.26"/><text class="cls-19" transform="translate(555.9 375.12)">マーケティングスキル向上！</text><text class="cls-29" transform="translate(591.39 64.47) rotate(8.02)">After</text><polyline class="cls-17" points="161.27 343.7 121.31 377.98 1.81 377.98"/><ellipse class="cls-18" cx="161.82" cy="343.07" rx="3.07" ry="3.42"/><text class="cls-27" transform="translate(0 352.31)">自分のブランディング方法が<tspan x="0" y="19.84">分からな</tspan><tspan class="cls-28" x="45.35" y="19.84">い</tspan><tspan x="59.53" y="19.84">...</tspan></text></g></g></svg>