<svg xmlns="http://www.w3.org/2000/svg" viewBox="0 0 125.24 84.92"><defs><style>.cls-1{fill:none;stroke:#e6d29f;stroke-miterlimit:10;stroke-width:4px;}</style></defs><g id="レイヤー_2" data-name="レイヤー 2"><g id="レイヤー_1-2" data-name="レイヤー 1"><polyline class="cls-1" points="81.52 1.41 122.41 42.31 81.94 82.78"/><polyline class="cls-1" points="61.52 1.41 102.41 42.31 61.21 83.51"/><polyline class="cls-1" points="41.52 1.41 82.41 42.31 41.21 83.51"/><polyline class="cls-1" points="21.72 1.41 62.62 42.31 21.41 83.51"/><polyline class="cls-1" points="93.06 71.86 63.8 42.6 93.54 12.86"/><polyline class="cls-1" points="103.03 61.6 83.74 42.31 103.36 22.68"/><polyline class="cls-1" points="113.17 51.74 103.74 42.31 112.64 33.41"/><polyline class="cls-1" points="1.72 1.41 42.62 42.31 1.41 83.51"/><polyline class="cls-1" points="82.91 81.72 43.8 42.6 83.36 2.4"/><polyline class="cls-1" points="62.75 81.46 23.64 42.34 63.2 2.14"/></g></g></svg>