<svg xmlns="http://www.w3.org/2000/svg" xmlns:xlink="http://www.w3.org/1999/xlink" viewBox="0 0 44.55 55.25"><defs><style>.cls-1{fill:none;}.cls-2{font-size:3.27px;fill:#898989;font-family:KozGoPr6N-Regular-83pv-RKSJ-H, Kozuka Gothic Pr6N;}.cls-3{fill:#231815;}.cls-4{fill:url(#名称未設定グラデーション_19);}.cls-5{fill:url(#名称未設定グラデーション_15);}.cls-6{fill:url(#名称未設定グラデーション_26);}.cls-7{opacity:0.6;}.cls-8{fill:url(#名称未設定グラデーション_7);}.cls-9{fill:url(#名称未設定グラデーション_8);}</style><linearGradient id="名称未設定グラデーション_19" x1="10.26" x2="10.26" y2="34.17" gradientUnits="userSpaceOnUse"><stop offset="0.43" stop-color="#e68d38"/><stop offset="1" stop-color="#f7e3c6"/></linearGradient><linearGradient id="名称未設定グラデーション_15" x1="18.17" y1="21.85" x2="16.06" y2="33.79" gradientUnits="userSpaceOnUse"><stop offset="0.05" stop-color="#479a38"/><stop offset="1" stop-color="#bbd2a3"/></linearGradient><linearGradient id="名称未設定グラデーション_26" x1="29.75" y1="28.92" x2="23.61" y2="34.07" gradientUnits="userSpaceOnUse"><stop offset="0.05" stop-color="#0c6e9c"/><stop offset="1" stop-color="#88b8d1"/></linearGradient><linearGradient id="名称未設定グラデーション_7" x1="16.23" y1="38.97" x2="18.59" y2="52.72" gradientTransform="matrix(1, 0, 0, -1.02, 0, 86.31)" gradientUnits="userSpaceOnUse"><stop offset="0.86" stop-color="#479a38" stop-opacity="0"/><stop offset="1" stop-color="#bbd2a3"/></linearGradient><linearGradient id="名称未設定グラデーション_8" x1="28.3" y1="46.72" x2="28.79" y2="53.51" gradientTransform="matrix(1, 0, 0, -1.02, 0, 86.31)" gradientUnits="userSpaceOnUse"><stop offset="0.37" stop-color="#0c6e9c" stop-opacity="0"/><stop offset="0.96" stop-color="#88b8d1"/></linearGradient></defs><g id="レイヤー_2" data-name="レイヤー 2"><g id="_あなたのロゴ_" data-name="[あなたのロゴ]"><rect class="cls-1" x="1.57" y="8.01" width="40.37" height="47.25"/><text class="cls-2" transform="translate(0 50.64)">Japan self produce association</text><path class="cls-3" d="M11.21,45.45a2.44,2.44,0,0,0,.64-.16c.9-.37.92-2.08.92-3.08V37.76a6.05,6.05,0,0,0-.08-1.12h.94a6.05,6.05,0,0,0-.08,1.12v4.45a7.39,7.39,0,0,1-.31,2.51C13,45.38,12.53,46,11,46.1Z"/><path class="cls-3" d="M22.36,44.44a6.19,6.19,0,0,0,.08-1.12V38a7.37,7.37,0,0,0-.08-1.14c.36,0,.64,0,1.1,0h1.06c1.53,0,2.4.54,2.4,1.93s-.9,2.07-2.45,2.07H23.22v2.45a6.1,6.1,0,0,0,.08,1.13Zm2.11-4.27c1.05,0,1.65-.32,1.65-1.34s-.58-1.28-1.65-1.28H23.22v2.62Z"/><path class="cls-3" d="M32.65,44.44a8.79,8.79,0,0,0-.3-1l-.52-1.28H28.35l-.52,1.28a5.59,5.59,0,0,0-.31,1h-1A6.38,6.38,0,0,0,27,43.29l2.23-5.5a5.69,5.69,0,0,0,.32-.93h1a5.41,5.41,0,0,0,.34.93l2.23,5.5a9.94,9.94,0,0,0,.53,1.15ZM30.3,38.16l-.22-.64c0,.15-.09.26-.11.33s-.09.27-.11.31l-1.27,3.29h3Z"/><path class="cls-3" d="M19.65,38.63a1.72,1.72,0,0,0-.31-.82A1.55,1.55,0,0,0,18,37.23a1.4,1.4,0,0,0-1.56,1.35,1.17,1.17,0,0,0,.77,1.13,6,6,0,0,0,1.27.36c1.43.34,2,1,2,2.1a2.1,2.1,0,0,1-2.4,2.21,2.41,2.41,0,0,1-2.14-1,2.8,2.8,0,0,1-.42-1.32l.78-.11a1.69,1.69,0,0,0,.27,1,1.73,1.73,0,0,0,1.49.69c1.06,0,1.7-.56,1.7-1.49a1.17,1.17,0,0,0-.52-1.06,4,4,0,0,0-1.47-.49,3.82,3.82,0,0,1-1.21-.46,1.75,1.75,0,0,1-.82-1.58A2,2,0,0,1,18,36.54a2.24,2.24,0,0,1,2,.92,2.56,2.56,0,0,1,.39,1Z"/><polygon class="cls-4" points="10.41 0 7.12 34.17 13.39 34.17 10.41 0"/><polygon class="cls-5" points="13.1 16.9 14.6 34.17 21.94 34.17 13.1 16.9"/><polygon class="cls-6" points="19.02 26.1 23.14 34.17 37.59 34.16 19.02 26.1"/><g class="cls-7"><polygon class="cls-8" points="13.11 52.06 14.62 34.51 21.95 34.51 13.11 52.06"/><polygon class="cls-9" points="19.03 42.72 23.16 34.51 37.6 34.52 19.03 42.72"/></g></g></g></svg>