<?xml version="1.0" encoding="utf-8"?>
<!-- Generator: Adobe Illustrator 25.3.1, SVG Export Plug-In . SVG Version: 6.00 Build 0)  -->
<svg version="1.1" id="レイヤー_1" xmlns="http://www.w3.org/2000/svg" xmlns:xlink="http://www.w3.org/1999/xlink" x="0px"
	 y="0px" viewBox="0 0 140.4 80.1" style="enable-background:new 0 0 140.4 80.1;" xml:space="preserve">
<style type="text/css">
	.st0{fill:#FFFFFF;}
	.st1{fill:#D6B094;}
	.st2{fill:#F2DDD6;}
	.st3{fill:#FBFBFB;}
	.st4{fill:#544130;}
	.st5{fill:#E81C52;}
	.st6{fill:#F9D9C7;}
	.st7{fill:#F1F1F1;}
	.st8{fill:#DD9F80;}
	.st9{fill:#F4EEF6;}
	.st10{fill:#B21B43;}
	.st11{font-family:'HiraKakuProN-W3-83pv-RKSJ-H';}
	.st12{font-size:3.88px;}
	.st13{font-family:'MidashiGoPr6N-MB31-83pv-RKSJ-H';}
	.st14{font-size:2.55px;}
	.st15{font-size:2.32px;}
	.st16{font-size:4.92px;}
	.st17{font-size:3.8px;}
	.st18{font-size:2.53px;}
	.st19{font-size:2.3px;}
	.st20{fill:#E5B4D2;}
	.st21{opacity:0.47;fill:#E81C52;enable-background:new    ;}
	.st22{opacity:0.75;fill:#E81C52;enable-background:new    ;}
	.st23{fill:none;stroke:#BF586C;stroke-width:0.2;stroke-miterlimit:10;}
	.st24{fill:none;stroke:#E81C52;stroke-width:0.25;stroke-miterlimit:10;}
	.st25{opacity:0.8;fill:#E81C52;enable-background:new    ;}
	.st26{fill:#E2CDC3;}
	.st27{fill:#F1E8E1;}
	.st28{fill:#DABFA7;}
	.st29{fill:#EFD9CB;}
	.st30{fill:#CE1D54;}
</style>
<polygon class="st0" points="140.4,80.1 0.2,80.1 0.2,31.4 0.2,0 140.4,0 "/>
<path class="st1" d="M0,80c0,0,54.9-2.6,64-8.2s-16.2-9.6-17.9-14.5S77.7,34,85.2,34s35.5-2.4,41,6.4s-13.9,13-15,17.7
	s14.8,6.8,12.4,11.8s-23.9,4.3-22.8,7.1c0.5,1.6,1.9,2.7,3.6,2.8L0,80z"/>
<path class="st2" d="M12.9,79.9c0,0,54.9-2.6,64-8.2S60.7,62.1,59,57.2S90.6,34,98.1,34s35.5-2.4,40.9,6.4s-13.9,13-15,17.7
	s14.8,6.8,12.4,11.8s-23.9,4.3-22.8,7.1c0.5,1.6,1.9,2.7,3.6,2.8L12.9,79.9z"/>
<path class="st3" d="M129.2,36.2c0,0-0.5,4.2-3.8,4.5c2.4,0.9,4,3,4.2,5.6c0,0,0-5.1,3.3-5.7C132.9,40.6,130.2,40,129.2,36.2z"/>
<path class="st3" d="M105.7,66.7c0,0-0.5,4.2-3.8,4.5c2.4,0.9,4,3,4.2,5.6c0,0,0-5.1,3.3-5.7C109.4,71.1,106.7,70.5,105.7,66.7z"/>
<path class="st0" d="M110.7,39.9c0,0-0.3,2.8-2.5,2.9c1.6,0.6,2.6,2,2.7,3.7c0,0,0-3.4,2.2-3.8C111.8,42.3,110.9,41.2,110.7,39.9z"
	/>
<path class="st2" d="M98,26.7c-20.9-2.4-42.3,0.9-40.8-12.4S79.5,0.2,79.5,0.2L0.1,0l0.1,24.4c0,0,35.5,2.2,8.7,12.6
	c-10,3.9-3.2,10.9,4.7,13.1c23.6,6.5,31.1-2.2,39.1-1.7s39.8,4,30.7,7.2"/>
<path class="st3" d="M30.5,1.9c0,0-0.5,4.2-3.9,4.5c2.4,0.9,4,3.1,4.2,5.6c0,0,0-5.1,3.3-5.7C34.2,6.2,31.5,5.6,30.5,1.9z"/>
<path class="st0" d="M19.4,31.9c0,0-0.5,4.2-3.9,4.5c2.4,0.9,4,3.1,4.2,5.6c0,0,0-5.1,3.3-5.7C23.1,36.2,20.4,35.7,19.4,31.9z"/>
<path class="st0" d="M7,5.7c0,0-0.4,2.8-2.6,2.9c1.6,0.6,2.6,2,2.8,3.7c0,0,0-3.4,2.2-3.8C8.1,8.1,7.2,7,7,5.7z"/>
<path class="st4" d="M30,13.7h78.8c1.1,0,2.1,0.9,2.1,2.1V61c0,1.1-0.9,2.1-2.1,2.1H30c-1.1,0-2.1-0.9-2.1-2.1V15.8
	C28,14.6,28.9,13.7,30,13.7z"/>
<rect x="30.3" y="16" class="st0" width="78.5" height="44.7"/>
<path class="st4" d="M54.1,69.6H85c0.5,0,0.9,0.4,0.9,0.9v1.3c0,0.5-0.4,0.9-0.9,0.9H54.1c-0.5,0-0.9-0.4-0.9-0.9v-1.3
	C53.2,70,53.6,69.6,54.1,69.6z"/>
<rect x="67.6" y="61.9" class="st4" width="3.7" height="7.6"/>
<path class="st0" d="M65.9,20.2c0,0,5.9,0.2,6.3,7c0.3,6.1-3.9,7-3.9,7s5.3,1.9,3.8,8.1c-1.1,4.4-6.1,5.2-6.1,5.2s1.8,4.2-0.7,6.5
	c-4.8,4.5-8.5,0.8-8.5,0.8s-0.5,4.6-4.7,5s-6.2-1.2-6.2-1.2s1.5,2.2-3,2.2s-12.5,0-12.5,0V16h39.3C69.5,18.1,67.9,19.8,65.9,20.2z"
	/>
<path class="st1" d="M42.4,34.7C42,33.8,41.5,33,41,32.2c-0.3-0.4-0.9-1.7,0.3-2.1c2.1-0.6,4.2-1.1,6.4-1.2c0.9,0.1,1,0.4,0.8,2.1
	c-0.2,1.7-0.3,2.8-0.3,2.8S44.7,35.7,42.4,34.7z"/>
<path class="st5" d="M43.5,56.3l-1.1-2.7c-0.4-0.9-3.5-7.8-5.1-11.8l-1.3-4.4c0.5-0.9,2.3-4.1,8.7-5.3s10,1.1,10.5,1.3
	s0.9,3.6,0.7,7.1s-0.4,8.4-0.7,11.1l-0.6,3.2C54.7,54.8,48,57.3,43.5,56.3z"/>
<path class="st1" d="M44,28.8c0,0,0.9,0.1,1.3-0.3l-0.6-2.7c0.6-0.1,1.1-0.4,1.5-0.7l3.6-0.7l-0.2-1l-3.1,0.6c0,0-0.6-1.4-3.3-0.8
	s-2.7,2.1-2.1,2.5c0.7,0.4,1.6,0.6,2.4,0.5L44,28.8z"/>
<path class="st0" d="M45.4,51.1l-0.7-1.8c-0.3-0.6-2.4-5.3-3.4-8l-0.9-3c0.4-0.6,1.5-2.8,5.9-3.6s6.8,0.7,7.1,0.9s0.6,2.4,0.5,4.8
	s-0.3,5.7-0.4,7.5L52.9,50C52.9,50,48.4,51.8,45.4,51.1z"/>
<path class="st6" d="M96.9,54.7c-0.5-1.6-0.8-3.2-0.9-4.8c0-1.6-0.5,3.2-0.5,4s0.3,3,0.3,3l-12.6,0.4c1.2-2.5,1.3-5.4,0.3-7.9
	c-0.6-1.2-0.9-2.6-0.8-4c0-1-1.4,1.4-2.2,3.9c-0.7,2-0.9,2.9-0.9,2.9c0.2,0.8,0.7,1.5,1.4,2.1c0.5,0.3,1,0.8,1.3,1.3
	c0,0,2.6-0.8,2.8-0.1s-1,2.3-2.7,2.6s-2.5,0.7-3.4-0.5c-0.9-1-1.8-2.2-2.5-3.4c-1.2-2.1-1.1-0.3-1.1-1.7s3.6-10.6,3.6-10.6
	s-1.3,1.3-0.3-0.3s1.9-3.1,3.8-3.1s2.4,0.8,4.3,1s1.4,0.2,1.6-0.6s0.5-1,0.2-1.8s-1.4-1.2-1.4-2.4s-0.1-5.7,2.5-6.1s4.3,1.1,4.5,4
	s-0.6,3.7-1.3,5.2s-0.9,2.7-0.3,2.7c1.7,0.3,3.4,0.9,5,1.6c1.4,0.8,2.3,1.6,2.4,4.4s0,7.1,0.1,7.8"/>
<path class="st7" d="M80.7,38.8c1.2-0.2,2.5-0.1,3.7,0.2c2.4,0.5,1.4,2.7,3.7,3.4c2.3,0.8,4.7,1.1,7.1,1.1c1.4-0.2,1.5-0.7,2.7-1.4
	c1,1.1,2.1-0.3,2.9,4.2c0,1.5-0.2-1.5,0,0l-0.6,0.3c0,0,1.1,0.5-0.4,0.5s-0.2,0.6-1.8,0.6s-1.5,2.3-1.5,2.3s0.6,8.2,0.6,8.7
	s0.5,0.6,0.5,0.6l-13.8-1.5c0,0-2.5-7.9-2.4-10.9l0.7-1.6c-0.5-1.3-1.1-0.9-1.6-2c-0.5-0.6,0.1,0-1.3-0.9s-3.3,6.1-3,4.4
	s0.8-1.3,1.4-2.6S79.6,37.6,80.7,38.8z"/>
<path class="st8" d="M89.8,31.6c0.4,0.7,1.1,1.3,1.8,1.7c1.6,1.1,1.5,0.3,1.5,2.2s-0.1,1.3-0.5,2.6s-1.9,1.7-0.4,4s3.7,2.2,3.4,4.5
	s-4.1,1-4.1,1s5,2.6,5.6,1.6s2.8-2.2,2.4-4.5s-1-1.7-1.5-3.7s-0.7-1.1-1-4.5s-0.1-6.5-2.4-7.5s-4-2.1-5.9-0.4s-3.1,3.2-4.9,4.8
	c-2,1.1-4.1,2-6.3,2.8c-1,0.3-13.5,3-13,5.3c0,0.2-3.9,5.1,1.1,5.1c6.6,0,6.3,2.9,8.2,2.4c0.9-0.2,1.9,0.7,2.6-0.3
	c0.4-0.6,1.7-4.9,2.1-5.8c0.3-0.6-0.3,0.1-0.3,0.1c0.5-1.2,0.7-1.8,1.1-2.6c0.3-0.7,1-1.2,1.8-1.3c0.9,0.2,1.5,0.7,2.4,0.8
	c1.5,0.2,3.1,0.3,4.6,0.1c0,0,1.2-1.8,0.8-2.8s-1.8-2.5-0.5-4.9s0.9-1.8,0.9-1.8L89.8,31.6z"/>
<path class="st1" d="M62.9,47.4c0,0,0.2,2-1.3,2.1c1,0.4,1.7,1.4,1.7,2.5c0,0,0-3,1.9-3C65.1,49.1,63,49.2,62.9,47.4z"/>
<path class="st1" d="M59.8,38.7c0,0,0.2,2.2-1.5,2.3c1.1,0.4,1.9,1.5,1.9,2.7c0,0,0-3.2,2-3.2C62.3,40.5,60,40.6,59.8,38.7z"/>
<path class="st9" d="M64.6,60.7c0,0,44.2-3.1,44.2-27.4v27.4C108.8,60.7,65,60.3,64.6,60.7z"/>
<text transform="matrix(1 0 0 1 57.67 30.1)" class="st10 st11 st12">Beauty</text>
<text transform="matrix(1 0 0 1 57.67 34.76)" class="st10 st11 st12">Shampoo</text>
<rect x="30.3" y="16" class="st5" width="23.1" height="5.5"/>
<text transform="matrix(1 0 0 1 32 19.62)" class="st0 st13 st14">T</text>
<text transform="matrix(1 0 0 1 34.1 19.62)" class="st0 st13 st14">V</text>
<text transform="matrix(1 0 0 1 36.67 19.62)" class="st0 st13 st14">Shopping</text>
<rect x="53.1" y="16" class="st2" width="55.8" height="5.5"/>
<text transform="matrix(1 0 0 1 55.31 19.66)" class="st5 st13 st15">NEX</text>
<text transform="matrix(1 0 0 1 61.23 19.66)" class="st5 st13 st15">T</text>
<text transform="matrix(1 0 0 1 63.57 19.66)" class="st5 st13 st15">&gt;&gt;</text>
<rect x="57" y="53.1" class="st5" width="51.8" height="7.6"/>
<text transform="matrix(1 0 0 1 81.6 59.01)" class="st0 st13 st16">5</text>
<text transform="matrix(1 0 0 1 84.54 59.01)" class="st0 st13 st16">,</text>
<text transform="matrix(1 0 0 1 85.91 59.01)" class="st0 st13 st16">5</text>
<text transform="matrix(1 0 0 1 89.04 59.01)" class="st0 st13 st16">00</text>
<text transform="matrix(1 0 0 1 95.9 59.1444)" class="st0 st13 st17">円</text>
<text transform="matrix(1 0 0 1 100.22 59.01)" class="st0 st13 st18">(税込)</text>
<text transform="matrix(1 0 0 1 58.48 58.32)" class="st0 st13 st19">7,700円(税込)</text>
<rect x="58" y="57.2" class="st0" width="18.6" height="0.3"/>
<path class="st0" d="M77.2,58.1c0.7,0.2,1.5,0.1,2.1-0.2L78.3,57l2.2,0.4L80,59.1l-0.4-0.6C78.8,59.1,77.7,58.8,77.2,58.1z"/>
<path class="st3" d="M118.1,46.3c0,0-0.3,2.7-2.4,2.8c1.5,0.5,2.5,1.9,2.6,3.5c0,0,0-3.2,2.1-3.6C119.2,48.6,118.3,47.6,118.1,46.3z
	"/>
<path class="st20" d="M119.6,38.1c0,0-0.3,2.2-2,2.3c1.2,0.4,2.1,1.6,2.2,2.9c0,0,0-2.7,1.8-3C120.5,40,119.7,39.1,119.6,38.1z"/>
<path class="st1" d="M5.4,16.5c0,0-0.3,2.2-2,2.3c1.2,0.4,2.1,1.6,2.2,2.9c0,0,0-2.7,1.8-3C6.4,18.4,5.6,17.5,5.4,16.5z"/>
<path class="st0" d="M134,59.6c0,0-2.2-4.2-1.9-4.9s1.3,0.2,1.8,1.9S134.5,59.8,134,59.6z"/>
<path class="st21" d="M118.9,64.5c0.5-1.3,1.5-2.3,2.8-2.8c2.3-0.7,4.4-1.9,6.2-3.4c1.3-1.3,3.4-5.8,3.9-6s1.7,0.6,2.4,1.2
	c1.5,1.3,2.7,5.1,2.1,10.1s-0.7,5.9-1.4,6.3s-5.9,2.9-8,2.4c-1-0.2-5.8-4.9-6.7-6C119.8,65.9,119.3,65.2,118.9,64.5z"/>
<path class="st22" d="M119.1,64.6c-0.5,0.8,0.1-1.6,1.9-2.5c1.6-0.8,5.5-2.2,6.6-3.2c1-1,3.4-5.2,3.8-5.8s0.3-0.8,0.4-0.7
	c0.5,0.5,0.1,1-0.3,1.9s-1.7,3.4-2.7,4.2c-1.4,1.2-2.9,2.4-4.5,3.5c-1.4,0.8-3.4,2.3-4.1,2.5S119.3,65.2,119.1,64.6z"/>
<path class="st23" d="M125,58.9c-1.6,0-3.1,0.1-4.6,0.4c-1.7,0.5-3.2,2.5-1.4,5.5c1.8,3,7.2,7.4,7.7,7.6c1.1,0.2,2.2,0.1,3.2-0.3
	c1.2-0.5,3.8-1.5,4.8-2s1.2-1.1,1.4-3.1s1.2-9.4-0.9-12.5s-4.7-2.8-6.3-1.4s-1.6,3.6-2.4,4.8S125,58.9,125,58.9z"/>
<polygon class="st22" points="118.8,54.9 119.8,50.1 121.6,49.1 126.6,48.9 126.7,58.3 125.1,59 "/>
<polygon class="st5" points="118.8,54.9 121.9,54.3 119.8,50.1 "/>
<polygon class="st21" points="121.6,49.1 124,52.9 126.6,48.9 "/>
<polygon class="st21" points="121.9,54.3 124,52.9 126.7,58.3 125.4,58.9 "/>
<polygon class="st5" points="126.6,48.9 126.7,58.3 124,52.9 "/>
<path class="st0" d="M134,59.6c0,0-2.5-4.3-1.9-4.9s2,1.1,2,2.2S134.6,60,134,59.6z"/>
<path class="st0" d="M134.4,62.8c0,0,0,1,0.4,0.9s0.2-1.1-0.1-1.1S134.4,62.8,134.4,62.8z"/>
<path class="st0" d="M125,63.7c0,0,5.2-3.2,6.1-3.2s1.5,5.8,1.4,6.6s-0.1,1.4-0.8,1.4c-1.1,0.1-2.2,0-3.2-0.3
	C127.9,67.8,125,63.7,125,63.7z"/>
<path class="st24" d="M127.3,66.6c0,0,0.1-2.9,0.5-2.8c0.4,0.1,0.1,2.9,0.2,1.9s0.4-2.3,0.9-2.2s0.2,1.4,0.1,0.9s1-2.4,1.2-1.9
	s0.1,2.2,0.1,1.4s1-1.6,1-1.6"/>
<path class="st25" d="M127.1,71.1c0,0,5.7-2.8,6.7-2.2s-1.4,2.1-2.9,2.2S126.6,71.7,127.1,71.1z"/>
<polygon class="st26" points="12.2,55.4 17.7,70.7 22.6,72.3 17.1,54.9 "/>
<polygon class="st27" points="25.5,69.4 22.6,72.3 17.1,54.9 19.6,52.2 "/>
<polygon class="st1" points="13.2,55.3 12.1,52.8 16.1,52.2 17.1,54.9 "/>
<polygon class="st28" points="19,52.8 18.1,50.5 16.1,52.2 17.1,54.9 "/>
<polygon class="st29" points="12.1,52.8 14.2,51.5 18.1,50.5 16.1,52.2 "/>
<path class="st5" d="M12.9,52.4c1,0,1.9-0.1,2.8-0.4c0.6-0.3,1.2-0.6,1.7-1.1L14,42c0,0-4.2-4.1-5.3-3.8s-0.4,1.3-0.1,2.1
	S12.9,52.4,12.9,52.4z"/>
<path class="st30" d="M8.2,38.4c0,0,0.7-0.7,2,0.2s4.3,3.2,3.7,3.5c-1.8,1-5.4-2.7-5.6-3.1C8.2,38.9,8.1,38.6,8.2,38.4z"/>
</svg>
